<?xml version="1.0" standalone="no"?><!DOCTYPE svg PUBLIC "-//W3C//DTD SVG 1.1//EN" "http://www.w3.org/Graphics/SVG/1.1/DTD/svg11.dtd"><svg height="1266" node-id="1" sillyvg="true" template-height="1266" template-width="1024" version="1.1" viewBox="0 0 1024 1266" width="1024" xmlns="http://www.w3.org/2000/svg" xmlns:xlink="http://www.w3.org/1999/xlink"><defs node-id="54"><clipPath id="clip0_30102_51019" node-id="51"><path d="M 0.00 0.00 L 1024.00 0.00 L 1024.00 1266.00 L 0.00 1266.00 Z" fill="#000000" fill-rule="nonzero" node-id="57" stroke="none" target-height="1266" target-width="1024" target-x="0" target-y="0"></path></clipPath></defs><g clip-path="url(#clip0_30102_51019)" id="sillyvg_g_0" node-id="61"><path d="M 251.18 74.43 C 295.80 29.80 448.48 0.08 514.17 0.01 C 646.80 -0.94 774.12 52.03 866.95 146.76 C 1047.73 328.71 1023.64 519.77 1022.16 754.05 C 1020.44 892.03 964.74 1023.85 867.00 1121.25 C 856.71 1131.55 845.92 1141.34 834.67 1150.59 C 811.04 1093.82 773.60 1012.68 721.02 979.31 C 717.76 976.10 712.29 975.32 708.61 972.31 C 698.13 963.77 660.68 929.40 648.29 937.56 C 650.34 947.70 660.66 944.23 663.06 952.11 C 655.18 956.72 650.58 958.88 644.37 965.84 C 646.39 954.95 647.72 946.10 641.17 936.62 C 632.14 932.03 636.04 933.18 624.55 933.78 L 616.68 928.26 C 619.36 926.04 627.94 921.61 633.58 917.14 L 630.94 910.33 L 628.46 911.88 C 601.78 905.40 467.22 907.44 430.56 906.68 C 411.24 906.28 396.90 912.59 371.16 910.28 C 377.69 915.12 384.01 918.07 386.89 924.58 C 376.24 936.51 321.35 966.44 303.02 982.02 C 248.16 1018.08 214.25 1089.79 188.98 1148.54 C -30.13 959.38 -0.85 740.79 3.89 481.22 C 5.10 414.88 31.36 340.57 59.20 281.30 C 92.50 210.42 141.57 157.50 200.00 107.03 C 213.94 96.34 235.03 80.77 251.18 74.43 Z" fill="#eaebf1" fill-rule="nonzero" node-id="63" stroke="none" target-height="1151.5262" target-width="1077.8588" target-x="-30.1288" target-y="-0.936268"></path><path d="M 251.18 74.43 C 251.75 74.39 252.32 74.35 252.89 74.32 C 268.41 73.01 283.37 67.90 296.43 59.42 L 303.01 63.12 L 303.51 62.16 L 298.14 58.51 L 304.97 57.65 C 300.16 70.62 290.50 79.13 291.58 89.90 C 306.84 101.55 353.32 67.85 369.89 68.61 L 382.83 86.49 L 384.75 86.47 C 389.80 86.48 392.11 85.94 396.31 88.68 C 396.40 94.95 393.13 98.15 389.41 103.49 C 388.89 110.79 389.32 111.59 393.32 117.77 L 409.59 121.42 C 409.41 132.55 392.71 147.32 384.35 156.08 C 414.97 151.25 477.64 184.91 514.86 190.59 C 554.61 196.66 643.08 179.45 659.39 227.36 C 663.07 238.17 656.86 265.86 639.25 267.85 L 628.88 263.71 C 630.57 278.51 636.73 273.93 636.37 288.73 L 633.22 292.64 C 628.07 295.88 619.99 301.62 614.43 302.84 C 599.92 286.25 549.32 297.05 537.04 294.36 C 511.94 288.85 482.82 281.49 457.72 275.12 C 449.61 269.24 430.94 262.62 421.21 258.94 C 409.54 260.48 402.04 260.66 391.87 266.63 L 385.64 266.94 C 266.79 306.15 189.43 362.94 151.09 486.85 L 157.35 489.99 C 165.47 490.53 166.63 490.55 173.28 495.13 C 179.41 505.34 187.20 516.92 188.23 528.82 C 199.92 568.77 196.91 590.16 204.08 620.26 L 201.09 630.49 C 203.12 647.37 203.88 685.16 200.03 701.33 L 199.36 716.26 C 192.29 737.25 193.52 749.35 171.26 758.62 L 167.35 759.43 C 170.32 771.09 191.20 802.09 199.41 810.39 C 233.89 853.04 280.20 884.55 332.53 900.96 C 337.41 902.54 370.20 909.70 371.16 910.27 C 377.69 915.12 384.01 918.07 386.89 924.58 C 376.24 936.51 321.35 966.43 303.02 982.02 C 248.16 1018.08 214.25 1089.78 188.98 1148.54 C -30.13 959.38 -0.85 740.78 3.89 481.21 C 5.10 414.87 31.36 340.56 59.20 281.30 C 92.50 210.42 141.57 157.49 200.00 107.03 C 213.94 96.33 235.03 80.77 251.18 74.43 Z" fill="#91a9d0" fill-rule="nonzero" node-id="65" stroke="none" target-height="1090.8916" target-width="693.19775" target-x="-30.1288" target-y="57.6484"></path><path d="M 157.35 490.00 C 165.47 490.53 166.63 490.55 173.28 495.13 C 179.41 505.34 187.20 516.92 188.23 528.83 C 199.92 568.77 196.91 590.17 204.08 620.27 L 201.09 630.50 C 203.12 647.37 203.88 685.16 200.03 701.34 L 199.36 716.27 C 192.29 737.25 193.52 749.35 171.26 758.63 L 167.35 759.44 C 159.58 757.89 149.87 755.21 141.98 753.27 C 137.43 743.64 140.20 746.40 132.05 741.53 C 159.70 728.60 151.36 687.01 151.27 661.61 C 149.34 653.62 149.34 622.06 149.14 611.34 L 146.43 608.89 L 142.48 585.89 C 137.95 563.46 137.74 553.54 122.12 536.70 C 115.46 541.95 114.23 543.16 106.20 545.66 L 104.67 542.05 L 110.99 533.57 C 115.64 529.17 118.68 524.30 122.58 519.25 C 132.30 506.62 145.26 500.00 157.35 490.00 Z" fill="#4252a9" fill-rule="nonzero" node-id="67" stroke="none" target-height="269.44003" target-width="99.408" target-x="104.673" target-y="489.99796"></path><path d="M 157.35 490.00 C 165.47 490.53 166.63 490.55 173.28 495.13 C 179.41 505.34 187.20 516.92 188.23 528.83 C 176.60 548.91 203.94 575.14 172.52 588.84 C 168.41 590.63 167.35 588.84 163.41 587.01 C 149.83 568.54 155.13 538.80 137.21 530.42 C 131.22 532.20 127.03 532.91 122.12 536.70 C 115.46 541.95 114.23 543.16 106.20 545.66 L 104.67 542.05 L 110.99 533.57 C 115.64 529.17 118.68 524.30 122.58 519.25 C 132.30 506.62 145.26 500.00 157.35 490.00 Z" fill="#7ba7f3" fill-rule="nonzero" node-id="69" stroke="none" target-height="100.63406" target-width="99.27" target-x="104.673" target-y="489.99796"></path><path d="M 157.35 490.00 C 165.47 490.53 166.63 490.55 173.28 495.13 C 153.44 504.20 124.62 531.95 110.99 533.57 C 115.64 529.17 118.68 524.30 122.58 519.25 C 132.30 506.62 145.26 500.00 157.35 490.00 Z" fill="#6290d7" fill-rule="nonzero" node-id="71" stroke="none" target-height="43.57303" target-width="62.295006" target-x="110.99" target-y="489.99796"></path><path d="M 122.12 536.69 C 127.03 532.91 131.22 532.19 137.21 530.41 C 155.13 538.80 149.83 568.53 163.41 587.01 C 167.35 588.84 168.41 590.63 172.52 588.84 C 203.94 575.13 176.60 548.91 188.23 528.82 C 199.92 568.77 196.91 590.17 204.08 620.27 L 201.09 630.49 C 191.85 615.45 201.69 597.94 195.47 583.49 C 196.21 596.75 195.92 621.76 188.85 633.30 C 187.93 623.03 188.05 613.54 182.72 604.82 L 177.78 602.96 C 165.12 608.85 162.15 624.76 158.54 637.15 C 157.43 630.80 156.96 624.59 153.68 619.20 C 150.03 630.08 152.52 648.88 151.27 661.61 C 149.34 653.61 149.34 622.06 149.14 611.34 L 146.43 608.88 L 142.48 585.89 C 137.95 563.46 137.74 553.54 122.12 536.69 Z" fill="#3e7dd9" fill-rule="nonzero" node-id="73" stroke="none" target-height="132.78296" target-width="81.965" target-x="122.116" target-y="528.822"></path><path d="M 141.98 753.27 L 151.73 735.78 C 150.56 741.68 151.15 742.44 152.91 748.41 C 160.97 755.68 169.75 755.56 179.32 751.36 C 193.28 737.29 183.14 715.33 184.54 696.63 C 185.35 685.77 187.37 687.43 197.53 678.26 L 199.69 678.86 C 199.57 686.44 199.82 693.77 200.03 701.34 L 199.36 716.26 C 192.29 737.25 193.52 749.35 171.26 758.62 L 167.35 759.43 C 159.58 757.89 149.87 755.20 141.98 753.27 Z" fill="#273b7d" fill-rule="nonzero" node-id="75" stroke="none" target-height="81.17102" target-width="58.044006" target-x="141.984" target-y="678.264"></path><path d="M 104.92 701.43 C 110.24 663.05 106.22 601.49 124.29 569.93 L 127.28 570.76 C 130.49 580.53 133.52 590.37 136.37 600.26 C 138.37 595.45 140.41 590.66 142.48 585.89 L 146.43 608.88 L 149.14 611.34 C 149.34 622.06 149.34 653.61 151.27 661.60 C 151.36 687.01 159.70 728.60 132.05 741.53 L 121.43 732.28 C 118.80 723.94 119.03 727.49 123.68 716.92 C 113.52 714.41 110.46 709.34 104.92 701.43 Z" fill="#6290d7" fill-rule="nonzero" node-id="77" stroke="none" target-height="171.599" target-width="54.782005" target-x="104.921" target-y="569.928"></path><path d="M 146.43 608.89 L 149.14 611.34 C 149.34 622.06 149.34 653.62 151.27 661.61 C 151.36 687.01 159.70 728.60 132.05 741.53 L 121.43 732.29 C 118.80 723.95 119.03 727.49 123.68 716.93 L 127.23 716.04 L 128.27 713.07 L 120.17 707.43 C 136.05 684.92 137.37 638.98 146.43 608.89 Z" fill="#273b7d" fill-rule="nonzero" node-id="79" stroke="none" target-height="132.64496" target-width="40.908005" target-x="118.795" target-y="608.887"></path><path d="M 421.21 258.94 C 468.43 248.88 565.23 255.67 615.73 268.15 C 623.23 270.00 612.99 279.96 633.22 292.63 C 628.07 295.87 619.99 301.62 614.43 302.84 C 599.92 286.24 549.32 297.05 537.04 294.35 C 511.94 288.85 482.82 281.49 457.72 275.12 C 449.61 269.24 430.94 262.61 421.21 258.94 Z" fill="#80b8f0" fill-rule="nonzero" node-id="81" stroke="none" target-height="53.957977" target-width="212.00699" target-x="421.215" target-y="248.88202"></path><path d="M 151.09 486.85 L 157.35 489.99 C 145.26 499.99 132.30 506.62 122.58 519.24 C 118.68 524.29 115.64 529.17 110.99 533.56 L 104.67 542.04 L 106.20 545.65 C 114.23 543.15 115.46 541.94 122.12 536.69 C 137.74 553.53 137.95 563.46 142.48 585.88 C 140.41 590.66 138.37 595.45 136.37 600.26 C 133.52 590.37 130.49 580.53 127.28 570.76 L 124.29 569.92 C 106.22 601.49 110.24 663.05 104.92 701.43 C 76.39 645.21 78.67 508.95 151.09 486.85 Z" fill="#80b8f0" fill-rule="nonzero" node-id="83" stroke="none" target-height="214.57703" target-width="80.9566" target-x="76.3944" target-y="486.84998"></path><path d="M 385.64 266.94 C 414.14 233.08 598.98 230.48 628.88 263.71 C 630.57 278.51 636.73 273.93 636.38 288.74 L 633.22 292.64 C 612.99 279.97 623.23 270.00 615.73 268.15 C 565.23 255.67 468.43 248.89 421.21 258.94 C 409.54 260.48 402.04 260.67 391.87 266.63 L 385.64 266.94 Z" fill="#c7cff3" fill-rule="nonzero" node-id="85" stroke="none" target-height="62.15802" target-width="251.09201" target-x="385.637" target-y="230.482"></path><path d="M 200.00 107.03 C 213.94 96.33 235.03 80.77 251.18 74.43 C 243.79 87.03 243.24 89.10 231.59 97.48 C 218.77 106.69 224.85 112.10 208.07 105.72 L 200.00 107.03 Z" fill="#b1b9d0" fill-rule="nonzero" node-id="87" stroke="none" target-height="37.668304" target-width="51.181" target-x="199.996" target-y="74.4277"></path><path d="M 251.18 74.43 C 295.80 29.80 448.48 0.08 514.17 0.01 C 646.80 -0.94 774.12 52.03 866.95 146.76 C 1047.73 328.71 1023.64 519.77 1022.16 754.05 C 1020.44 892.03 964.74 1023.85 867.00 1121.25 C 856.71 1131.55 845.92 1141.34 834.67 1150.59 C 811.04 1093.82 773.60 1012.68 721.02 979.31 C 717.76 976.10 712.29 975.32 708.61 972.31 C 698.13 963.77 660.68 929.40 648.29 937.56 C 650.34 947.70 660.66 944.23 663.06 952.11 C 655.18 956.72 650.58 958.88 644.37 965.84 C 646.39 954.95 647.72 946.10 641.17 936.62 C 632.14 932.03 636.04 933.18 624.55 933.78 L 616.68 928.26 C 619.36 926.04 627.94 921.61 633.58 917.14 C 665.34 932.11 775.79 871.07 801.09 847.06 C 827.77 823.60 855.99 792.81 867.02 758.62 L 871.88 749.18 C 897.90 746.79 913.12 713.12 925.09 692.91 C 940.91 619.94 960.52 530.79 878.32 487.48 C 868.20 467.24 861.88 447.50 849.71 426.18 C 799.53 338.30 733.80 295.36 639.25 267.86 C 656.86 265.86 663.07 238.17 659.39 227.37 C 643.08 179.46 554.61 196.67 514.86 190.60 C 477.64 184.92 414.97 151.25 384.35 156.09 C 392.71 147.33 409.41 132.55 409.59 121.43 L 393.32 117.77 C 389.32 111.59 388.89 110.79 389.41 103.49 C 393.13 98.16 396.40 94.95 396.31 88.68 C 392.11 85.94 389.80 86.48 384.75 86.48 L 382.83 86.49 L 369.89 68.61 C 353.32 67.85 306.84 101.56 291.58 89.90 C 290.50 79.13 300.16 70.62 304.97 57.65 L 298.14 58.52 L 303.51 62.17 L 303.01 63.13 L 296.43 59.42 C 283.37 67.90 268.41 73.02 252.89 74.32 C 252.32 74.36 251.75 74.40 251.18 74.43 Z" fill="#9bb2d5" fill-rule="nonzero" node-id="89" stroke="none" target-height="1151.5262" target-width="796.553" target-x="251.177" target-y="-0.936268"></path><path d="M 443.34 419.01 C 488.43 403.71 583.71 402.66 630.70 406.17 C 729.14 425.10 803.68 438.41 839.50 547.72 C 863.15 639.09 841.86 750.49 746.37 791.38 C 722.81 803.79 669.29 815.50 642.78 816.91 C 531.26 822.89 417.49 831.74 327.22 758.74 C 288.04 712.29 273.08 667.29 275.60 607.03 L 274.00 604.42 L 279.60 571.88 C 295.22 485.74 364.50 439.57 443.34 419.01 Z" fill="#070a10" fill-rule="nonzero" node-id="91" stroke="none" target-height="429.07993" target-width="590.07" target-x="273.078" target-y="402.658"></path><path d="M 443.34 419.01 C 488.43 403.71 583.71 402.66 630.70 406.17 C 729.14 425.10 803.68 438.41 839.50 547.72 C 863.15 639.09 841.86 750.49 746.37 791.38 C 752.79 778.88 778.29 767.59 793.39 752.32 L 793.20 750.64 C 783.14 757.16 749.60 780.73 740.99 782.28 L 740.11 779.47 C 790.48 746.68 782.46 758.39 811.59 700.42 C 825.59 672.56 871.02 651.04 819.46 610.37 C 789.86 609.10 781.63 602.59 776.56 637.67 C 768.58 692.81 747.91 733.50 685.30 708.76 C 665.29 700.85 659.65 686.74 655.40 667.30 L 653.09 662.43 C 607.12 616.35 674.23 562.70 668.19 524.45 C 664.09 498.54 569.96 465.46 541.01 471.54 C 476.12 485.17 480.56 483.75 442.72 529.66 C 457.74 538.85 484.15 554.20 492.15 569.68 C 507.96 600.60 512.32 629.54 503.12 663.23 C 494.00 696.64 455.17 717.54 422.51 707.73 C 399.16 700.72 379.69 662.39 372.56 641.00 C 368.38 628.44 367.63 613.38 361.69 600.58 C 343.97 600.27 318.30 608.49 300.21 610.01 C 291.15 610.78 286.99 603.20 275.60 607.03 L 274.00 604.42 L 279.60 571.88 C 295.22 485.74 364.50 439.57 443.34 419.01 Z" fill="#272c3a" fill-rule="nonzero" node-id="93" stroke="none" target-height="388.72" target-width="597.02405" target-x="273.997" target-y="402.658"></path><path d="M 653.09 662.43 C 630.42 542.61 735.06 489.56 763.08 607.39 C 777.11 666.38 717.32 758.78 655.40 667.30 L 653.09 662.43 Z" fill="#273b7d" fill-rule="nonzero" node-id="95" stroke="none" target-height="269.22598" target-width="146.68701" target-x="630.422" target-y="489.558"></path><path d="M 702.14 553.06 C 708.13 553.25 714.08 554.27 719.64 556.60 C 731.20 561.45 739.31 572.72 743.97 583.94 C 753.56 607.04 752.20 638.21 742.21 660.95 C 735.72 675.69 726.72 682.59 711.99 688.29 C 706.46 688.20 700.77 687.54 695.48 685.88 C 684.34 682.37 676.09 672.79 671.20 662.57 C 660.43 640.06 661.93 608.38 670.33 585.35 C 676.66 567.99 685.68 560.64 702.14 553.06 Z" fill="#74d1f0" fill-rule="nonzero" node-id="97" stroke="none" target-height="135.22998" target-width="93.130005" target-x="660.432" target-y="553.057"></path><path d="M 630.70 406.18 C 729.14 425.10 803.68 438.41 839.50 547.72 L 836.56 552.77 L 834.62 553.14 C 831.16 553.79 823.42 532.22 821.38 527.40 C 790.72 455.37 722.30 429.65 650.37 419.75 C 642.44 418.67 626.44 416.66 619.98 412.33 L 621.06 409.57 L 630.70 406.18 Z" fill="#070a10" fill-rule="nonzero" node-id="99" stroke="none" target-height="147.616" target-width="219.518" target-x="619.98" target-y="406.176"></path><path d="M 279.60 571.87 C 295.22 485.74 364.50 439.57 443.34 419.01 L 447.88 424.00 C 442.14 430.59 424.13 433.15 415.13 436.57 C 384.82 448.09 356.14 463.29 333.22 486.90 C 314.96 505.74 301.37 528.60 293.56 553.65 C 291.00 561.63 289.64 572.77 283.26 577.29 L 279.60 571.87 Z" fill="#070a10" fill-rule="nonzero" node-id="101" stroke="none" target-height="158.27402" target-width="168.272" target-x="279.603" target-y="419.012"></path><path d="M 435.47 555.65 C 442.57 555.48 449.20 555.59 456.00 557.90 C 468.40 562.11 477.59 572.43 483.15 584.01 C 493.68 605.93 494.22 637.30 486.00 659.99 C 479.68 677.42 469.84 685.12 453.46 692.87 C 446.88 692.86 440.52 692.75 434.12 691.08 C 421.48 687.77 411.70 677.79 405.74 666.51 C 394.55 645.32 394.57 614.91 401.87 592.54 C 408.20 573.13 417.64 564.70 435.47 555.65 Z" fill="#74d1f0" fill-rule="nonzero" node-id="103" stroke="none" target-height="137.38403" target-width="99.67203" target-x="394.549" target-y="555.483"></path><path d="M 618.85 700.87 C 619.21 701.14 619.60 701.36 619.92 701.69 C 623.83 705.76 623.71 708.20 623.74 713.48 C 617.94 719.94 612.07 724.17 603.70 726.65 C 580.74 733.45 562.62 730.98 541.89 719.63 C 538.42 714.60 538.68 712.50 538.21 706.54 L 541.94 703.85 C 555.26 706.76 567.48 714.91 580.45 717.30 C 592.96 719.61 609.20 707.20 618.85 700.87 Z" fill="#3e7dd9" fill-rule="nonzero" node-id="105" stroke="none" target-height="32.584045" target-width="85.62402" target-x="538.207" target-y="700.86694"></path><path d="M 204.08 620.26 C 206.47 627.78 204.28 629.02 209.15 639.86 C 221.02 640.30 262.28 641.99 270.00 636.14 C 267.94 625.74 266.95 613.28 274.00 604.43 L 275.60 607.03 C 273.08 667.29 288.04 712.29 327.22 758.74 L 318.40 768.31 C 321.74 772.10 325.24 775.75 328.88 779.25 C 384.13 831.67 516.32 839.20 587.04 835.73 C 684.14 830.96 759.33 823.74 827.79 750.75 C 836.15 748.67 835.24 745.95 842.30 738.07 L 845.62 744.93 C 845.63 754.22 843.83 778.36 847.37 783.58 C 850.22 779.43 853.13 775.33 856.11 771.27 L 857.09 771.20 L 867.02 758.62 C 855.99 792.81 827.77 823.60 801.09 847.05 C 775.79 871.06 665.33 932.11 633.58 917.13 L 630.94 910.32 L 628.46 911.88 C 601.78 905.39 467.22 907.44 430.56 906.68 C 411.24 906.28 396.90 912.59 371.16 910.27 C 370.20 909.70 337.41 902.54 332.53 900.96 C 280.20 884.55 233.89 853.04 199.41 810.39 C 191.20 802.09 170.32 771.10 167.35 759.43 L 171.26 758.62 C 193.52 749.35 192.29 737.25 199.36 716.26 L 200.03 701.33 C 203.88 685.16 203.12 647.37 201.09 630.49 L 204.08 620.26 Z" fill="#8f98b3" fill-rule="nonzero" node-id="107" stroke="none" target-height="327.68" target-width="699.66895" target-x="167.353" target-y="604.426"></path><path d="M 204.08 620.26 C 206.47 627.78 204.28 629.02 209.15 639.86 C 221.02 640.30 262.28 641.99 270.00 636.14 C 267.94 625.74 266.95 613.28 274.00 604.43 L 275.60 607.03 C 273.08 667.29 288.04 712.29 327.22 758.74 L 318.40 768.31 C 311.03 759.91 316.96 758.01 314.98 754.28 C 290.52 708.25 256.11 684.05 205.25 680.04 C 205.17 693.61 205.74 703.55 201.84 716.70 L 199.36 716.26 L 200.03 701.33 C 203.88 685.16 203.12 647.37 201.09 630.49 L 204.08 620.26 Z" fill="#b1b9d0" fill-rule="nonzero" node-id="109" stroke="none" target-height="163.88098" target-width="127.85498" target-x="199.363" target-y="604.426"></path><path d="M 792.82 843.78 L 801.09 847.06 C 775.79 871.07 665.33 932.11 633.58 917.14 L 630.94 910.32 C 661.75 885.65 711.46 897.51 745.69 879.50 C 757.14 873.47 781.77 852.84 792.82 843.78 Z" fill="#a9a8d2" fill-rule="nonzero" node-id="111" stroke="none" target-height="88.326965" target-width="170.15393" target-x="630.94" target-y="843.781"></path><path d="M 845.62 744.94 C 845.63 754.22 843.83 778.36 847.37 783.59 C 850.22 779.44 853.13 775.34 856.11 771.28 L 857.09 771.21 L 867.02 758.62 C 855.99 792.81 827.77 823.60 801.09 847.06 L 792.82 843.78 C 805.04 832.44 830.88 801.60 836.92 786.82 C 832.95 786.81 833.11 786.84 829.35 785.59 C 827.39 762.99 826.24 758.01 845.62 744.94 Z" fill="#b1b9d0" fill-rule="nonzero" node-id="113" stroke="none" target-height="102.12201" target-width="74.20093" target-x="792.82104" target-y="744.936"></path><path d="M 167.35 759.44 L 171.26 758.63 C 180.76 763.27 203.36 794.30 208.35 804.18 C 201.01 806.61 203.81 804.48 199.41 810.39 C 191.20 802.09 170.32 771.10 167.35 759.44 Z" fill="#b1b9d0" fill-rule="nonzero" node-id="115" stroke="none" target-height="51.766968" target-width="40.99901" target-x="167.353" target-y="758.627"></path><path d="M 878.32 487.48 C 960.52 530.78 940.91 619.94 925.09 692.90 L 925.22 638.98 C 917.90 631.20 906.26 616.64 896.43 614.48 L 893.93 621.25 C 892.31 617.45 891.15 583.48 890.65 576.03 C 888.58 544.98 884.06 518.02 878.32 487.48 Z" fill="#aacdef" fill-rule="nonzero" node-id="117" stroke="none" target-height="205.42297" target-width="82.196045" target-x="878.324" target-y="487.479"></path><path d="M 893.93 621.26 L 896.43 614.48 C 906.26 616.64 917.90 631.20 925.22 638.99 L 925.09 692.90 C 913.12 713.11 897.90 746.78 871.88 749.18 C 887.02 709.19 895.88 664.04 893.93 621.26 Z" fill="#4252a9" fill-rule="nonzero" node-id="119" stroke="none" target-height="134.69403" target-width="53.340027" target-x="871.877" target-y="614.482"></path><path d="M 391.87 266.63 C 402.04 260.67 409.54 260.48 421.21 258.94 C 430.94 262.62 449.61 269.24 457.72 275.13 C 482.82 281.50 511.94 288.86 537.04 294.36 C 549.32 297.05 599.92 286.25 614.43 302.85 C 589.18 310.96 522.51 308.45 495.13 305.76 C 452.97 299.29 435.75 272.13 391.87 266.63 Z" fill="#6290d7" fill-rule="nonzero" node-id="121" stroke="none" target-height="52.018005" target-width="222.557" target-x="391.872" target-y="258.945"></path><path d="M 827.79 750.74 C 831.71 740.75 840.25 733.95 845.68 718.63 C 848.75 709.96 854.44 689.86 859.44 684.74 L 862.73 689.43 L 864.79 683.20 C 878.83 688.66 859.64 755.79 856.11 771.27 C 853.13 775.33 850.22 779.43 847.37 783.58 C 843.83 778.35 845.63 754.22 845.62 744.93 L 842.30 738.06 C 835.24 745.94 836.15 748.67 827.79 750.74 Z" fill="#b9b8c7" fill-rule="nonzero" node-id="123" stroke="none" target-height="100.38104" target-width="51.034973" target-x="827.794" target-y="683.199"></path><path d="M 371.16 910.28 C 396.90 912.59 411.24 906.28 430.56 906.68 C 467.22 907.44 601.78 905.40 628.46 911.88 L 630.94 910.33 L 633.58 917.14 C 627.94 921.62 619.36 926.04 616.68 928.26 L 624.55 933.78 C 636.04 933.18 632.14 932.03 641.17 936.62 C 647.72 946.10 646.39 954.95 644.37 965.84 C 650.58 958.88 655.18 956.72 663.06 952.11 C 660.66 944.23 650.34 947.70 648.29 937.57 C 660.68 929.40 698.13 963.77 708.61 972.31 C 712.29 975.32 717.76 976.10 721.02 979.31 C 773.60 1012.68 811.04 1093.82 834.67 1150.59 C 819.73 1163.94 808.35 1172.01 791.99 1183.59 C 765.71 1206.15 759.15 1202.49 739.94 1215.17 L 724.75 1222.76 C 709.89 1229.03 691.54 1237.25 676.41 1242.13 C 640.06 1252.81 613.01 1258.27 575.31 1263.17 L 566.10 1264.33 C 516.27 1267.31 475.59 1266.67 426.35 1259.41 L 400.16 1254.93 C 373.99 1246.12 361.57 1244.46 333.74 1232.98 L 318.66 1226.45 C 291.91 1213.20 275.59 1206.66 248.58 1191.05 C 224.25 1175.66 211.97 1166.65 188.98 1148.54 C 214.25 1089.79 248.16 1018.09 303.02 982.02 C 321.35 966.44 376.24 936.51 386.89 924.58 C 384.01 918.07 377.69 915.12 371.16 910.28 Z" fill="#cfd3e0" fill-rule="nonzero" node-id="125" stroke="none" target-height="361.91205" target-width="645.69403" target-x="188.98" target-y="905.398"></path><path d="M 644.37 965.84 C 650.58 958.88 655.18 956.72 663.06 952.11 C 660.66 944.23 650.34 947.70 648.29 937.56 C 660.68 929.39 698.13 963.77 708.61 972.31 C 712.29 975.32 717.76 976.10 721.02 979.31 C 773.60 1012.68 811.04 1093.82 834.67 1150.59 C 819.73 1163.94 808.35 1172.01 791.99 1183.59 C 765.71 1206.14 759.15 1202.49 739.94 1215.17 L 724.75 1222.75 C 709.89 1229.03 691.54 1237.25 676.41 1242.12 C 640.06 1252.81 613.01 1258.27 575.31 1263.17 L 566.10 1264.33 C 571.87 1234.13 569.79 1079.88 554.99 1053.30 L 550.29 1049.99 C 546.09 1040.62 542.85 1034.55 541.30 1024.35 C 565.00 1024.01 594.10 1023.84 613.89 1009.26 C 619.22 1006.57 624.14 1001.95 628.77 998.07 C 637.48 984.62 639.26 981.02 644.37 965.84 Z" fill="#dadce4" fill-rule="nonzero" node-id="127" stroke="none" target-height="334.93494" target-width="293.378" target-x="541.296" target-y="929.395"></path><path d="M 768.77 1186.12 C 751.66 1169.22 752.46 1127.79 745.42 1103.69 C 738.57 1080.21 705.06 998.20 721.02 979.30 C 773.60 1012.67 811.04 1093.81 834.67 1150.58 C 819.73 1163.93 808.35 1172.00 792.00 1183.58 L 768.77 1186.12 Z" fill="#dedfe8" fill-rule="nonzero" node-id="129" stroke="none" target-height="206.81702" target-width="129.61407" target-x="705.05994" target-y="979.303"></path><path d="M 644.37 965.84 C 650.58 958.88 655.18 956.72 663.06 952.11 C 660.66 944.23 650.34 947.70 648.29 937.56 C 660.68 929.39 698.13 963.77 708.61 972.31 C 712.29 975.32 717.76 976.10 721.02 979.31 C 705.06 998.21 738.57 1080.21 745.42 1103.70 C 752.46 1127.80 751.66 1169.22 768.77 1186.13 L 791.99 1183.59 C 765.71 1206.14 759.15 1202.49 739.94 1215.17 L 737.32 1197.51 C 717.88 1133.10 722.61 1043.51 701.92 978.00 C 701.57 976.88 692.31 963.77 690.51 960.69 L 688.86 963.15 C 689.26 969.57 688.53 971.02 686.82 977.36 C 678.61 984.14 640.61 995.13 628.77 998.07 C 637.48 984.62 639.25 981.02 644.37 965.84 Z" fill="#a9a8d2" fill-rule="nonzero" node-id="131" stroke="none" target-height="285.77502" target-width="163.22101" target-x="628.773" target-y="929.395"></path><path d="M 768.77 1186.12 L 792.00 1183.58 C 765.71 1206.14 759.15 1202.48 739.94 1215.16 L 737.32 1197.50 C 737.52 1192.20 736.82 1194.78 740.55 1189.93 C 749.93 1188.47 759.34 1187.20 768.77 1186.12 Z" fill="#4252a9" fill-rule="nonzero" node-id="133" stroke="none" target-height="31.580078" target-width="55.17401" target-x="736.821" target-y="1183.58"></path><path d="M 676.41 1242.12 C 671.59 1215.96 661.96 1163.84 664.04 1135.49 C 664.34 1131.45 670.04 1129.20 673.41 1127.40 C 700.62 1135.44 702.46 1190.49 723.30 1220.68 L 724.75 1222.75 C 709.89 1229.03 691.54 1237.24 676.41 1242.12 Z" fill="#5b61b9" fill-rule="nonzero" node-id="135" stroke="none" target-height="114.71997" target-width="62.791016" target-x="661.964" target-y="1127.4"></path><path d="M 554.99 1053.30 C 564.25 1052.83 566.34 1051.09 573.00 1055.46 C 573.33 1124.14 576.03 1195.09 575.31 1263.17 L 566.10 1264.33 C 571.87 1234.13 569.79 1079.88 554.99 1053.30 Z" fill="#b1b9d0" fill-rule="nonzero" node-id="137" stroke="none" target-height="213.23999" target-width="21.04602" target-x="554.985" target-y="1051.09"></path><path d="M 371.16 910.28 C 396.90 912.59 411.24 906.28 430.56 906.68 C 467.22 907.44 601.78 905.40 628.46 911.88 L 630.94 910.33 L 633.58 917.14 C 627.94 921.62 619.36 926.04 616.68 928.26 L 624.55 933.78 C 636.04 933.18 632.14 932.03 641.17 936.62 C 647.72 946.10 646.39 954.95 644.37 965.84 C 639.26 981.02 637.48 984.62 628.77 998.07 C 624.14 1001.96 619.22 1006.57 613.89 1009.26 C 594.10 1023.84 565.00 1024.01 541.30 1024.35 C 512.83 1020.62 496.34 1019.64 470.09 1006.94 C 457.70 999.93 453.30 996.99 442.31 988.01 C 432.76 987.93 354.01 993.44 349.10 995.88 C 349.71 1006.91 351.02 1016.65 352.52 1027.58 C 360.87 1088.17 332.70 1147.72 322.44 1206.54 C 321.30 1213.07 320.19 1220.09 318.66 1226.45 C 291.91 1213.20 275.59 1206.66 248.58 1191.05 C 224.25 1175.66 211.97 1166.65 188.98 1148.54 C 214.25 1089.79 248.16 1018.09 303.02 982.02 C 321.35 966.44 376.24 936.51 386.89 924.58 C 384.01 918.07 377.69 915.12 371.16 910.28 Z" fill="#7d8eba" fill-rule="nonzero" node-id="139" stroke="none" target-height="321.05194" target-width="458.73602" target-x="188.98" target-y="905.398"></path><path d="M 303.02 982.02 C 307.85 1020.56 338.44 996.38 342.49 1018.42 C 349.87 1058.59 329.11 1101.84 317.50 1139.53 C 313.72 1151.67 310.13 1187.41 305.44 1195.69 C 281.62 1195.39 274.08 1188.28 248.58 1191.05 C 224.25 1175.66 211.97 1166.64 188.98 1148.54 C 214.25 1089.78 248.16 1018.08 303.02 982.02 Z" fill="#cbcdd7" fill-rule="nonzero" node-id="141" stroke="none" target-height="213.66992" target-width="160.88899" target-x="188.98" target-y="982.02"></path><path d="M 624.55 933.77 C 636.04 933.17 632.14 932.02 641.17 936.61 C 647.72 946.09 646.39 954.94 644.37 965.84 C 639.25 981.01 637.48 984.61 628.77 998.06 C 624.14 1001.95 619.22 1006.57 613.89 1009.25 C 594.10 1023.83 565.00 1024.01 541.30 1024.34 C 512.83 1020.62 496.34 1019.63 470.09 1006.93 C 457.70 999.93 453.30 996.98 442.31 988.00 L 428.68 974.92 C 433.36 967.34 471.36 966.87 482.85 965.38 C 513.84 974.42 567.95 973.51 596.59 959.39 C 608.19 952.19 617.39 945.43 624.55 933.77 Z" fill="#5270b6" fill-rule="nonzero" node-id="143" stroke="none" target-height="92.31598" target-width="219.03201" target-x="428.684" target-y="932.024"></path><path d="M 470.09 1006.94 C 475.23 999.25 478.73 990.53 487.93 990.08 C 528.69 988.07 591.70 981.50 629.88 982.65 C 624.47 990.05 613.72 1001.77 613.89 1009.26 C 594.10 1023.84 565.00 1024.01 541.30 1024.35 C 512.83 1020.62 496.34 1019.64 470.09 1006.94 Z" fill="#6290d7" fill-rule="nonzero" node-id="145" stroke="none" target-height="42.84796" target-width="159.78497" target-x="470.09302" target-y="981.502"></path><path d="M 421.76 931.56 C 424.03 928.10 426.56 925.05 429.11 921.79 C 462.18 923.68 494.78 925.05 527.89 925.40 C 543.62 925.56 605.12 921.84 614.56 927.90 L 616.68 928.26 L 624.55 933.78 C 617.39 945.43 608.19 952.19 596.59 959.39 C 567.95 973.51 513.84 974.42 482.85 965.38 C 466.15 960.84 430.47 951.28 420.64 937.82 L 421.76 931.56 Z" fill="#142868" fill-rule="nonzero" node-id="147" stroke="none" target-height="52.63098" target-width="203.91599" target-x="420.639" target-y="921.791"></path><path d="M 614.56 927.90 L 616.68 928.26 L 624.55 933.78 C 617.39 945.44 608.19 952.19 596.59 959.40 L 590.25 957.72 C 592.73 949.58 604.38 942.89 613.03 930.17 L 614.56 927.90 Z" fill="#201f59" fill-rule="nonzero" node-id="149" stroke="none" target-height="31.498108" target-width="34.307007" target-x="590.248" target-y="927.9019"></path><path d="M 428.68 974.92 C 419.09 965.33 399.87 948.49 397.60 936.10 L 401.05 932.14 C 410.19 929.91 412.75 930.51 421.76 931.56 L 420.64 937.82 C 430.47 951.29 466.15 960.84 482.85 965.38 C 471.36 966.87 433.36 967.35 428.68 974.92 Z" fill="#4252a9" fill-rule="nonzero" node-id="151" stroke="none" target-height="45.010986" target-width="85.25101" target-x="397.602" target-y="929.909"></path><path d="M 333.74 1232.97 C 356.29 1206.58 371.48 1156.32 400.25 1133.17 C 411.51 1124.12 426.77 1127.54 433.88 1139.41 C 443.41 1155.32 433.98 1185.60 430.43 1202.73 C 429.51 1227.40 423.40 1233.56 426.35 1259.41 L 400.16 1254.93 C 373.99 1246.11 361.57 1244.45 333.74 1232.97 Z" fill="#466fc3" fill-rule="nonzero" node-id="153" stroke="none" target-height="135.29004" target-width="109.668" target-x="333.743" target-y="1124.12"></path><path d="M 400.16 1254.93 C 408.86 1238.47 420.89 1219.08 430.43 1202.74 C 429.51 1227.41 423.40 1233.56 426.35 1259.41 L 400.16 1254.93 Z" fill="#a9a8d2" fill-rule="nonzero" node-id="155" stroke="none" target-height="56.670044" target-width="30.270996" target-x="400.163" target-y="1202.74"></path></g></svg>