<?xml version="1.0" standalone="no"?><!DOCTYPE svg PUBLIC "-//W3C//DTD SVG 1.1//EN" "http://www.w3.org/Graphics/SVG/1.1/DTD/svg11.dtd"><svg height="1269" node-id="1" sillyvg="true" template-height="1269" template-width="1024" version="1.1" viewBox="0 0 1024 1269" width="1024" xmlns="http://www.w3.org/2000/svg" xmlns:xlink="http://www.w3.org/1999/xlink"><defs node-id="72"><clipPath id="clip0_30102_50953" node-id="69"><path d="M 0.00 0.00 L 1024.00 0.00 L 1024.00 1269.00 L 0.00 1269.00 Z" fill="#000000" fill-rule="nonzero" node-id="75" stroke="none" target-height="1269" target-width="1024" target-x="0" target-y="0"></path></clipPath></defs><g clip-path="url(#clip0_30102_50953)" id="sillyvg_g_0" node-id="79"><path d="M 177.48 1141.48 C 22.17 995.94 -6.82 841.37 1.21 637.39 C 3.83 570.78 -3.62 508.51 7.72 440.65 C 17.18 380.41 36.73 322.20 65.56 268.46 C 128.86 148.32 238.15 58.99 368.47 20.90 C 466.42 -8.73 614.53 -10.20 705.65 38.41 C 733.23 48.26 775.73 71.36 799.10 89.22 C 900.38 154.07 985.87 289.14 1008.63 404.39 C 1028.55 505.25 1029.70 772.86 1008.60 868.63 C 995.69 926.79 972.66 982.22 940.57 1032.41 C 909.48 1081.07 878.24 1115.91 835.06 1154.12 C 810.94 1176.15 791.17 1189.25 762.24 1204.19 C 757.39 1206.70 731.05 1219.94 727.97 1222.19 C 666.96 1254.91 596.28 1267.56 527.59 1268.83 C 514.04 1269.05 471.35 1269.65 460.84 1265.83 C 408.55 1264.63 344.09 1243.25 297.53 1220.48 L 271.05 1206.36 C 239.43 1191.12 215.98 1172.46 188.64 1151.04 L 177.48 1141.48 Z" fill="#e8e9ee" fill-rule="nonzero" node-id="81" stroke="none" target-height="1279.8492" target-width="1036.5211" target-x="-6.82112" target-y="-10.1992"></path><path d="M 177.48 1141.48 C 22.17 995.94 -6.82 841.37 1.21 637.39 C 3.83 570.78 -3.62 508.51 7.72 440.65 C 17.18 380.41 36.73 322.20 65.56 268.46 C 128.86 148.32 238.15 58.99 368.47 20.90 C 466.42 -8.73 614.53 -10.20 705.65 38.41 C 733.23 48.26 775.73 71.36 799.10 89.22 C 900.38 154.07 985.87 289.14 1008.63 404.39 C 1028.55 505.25 1029.70 772.86 1008.60 868.63 C 995.69 926.79 972.66 982.22 940.57 1032.41 C 909.48 1081.07 878.24 1115.91 835.06 1154.12 C 822.23 1117.67 766.48 1013.04 732.01 996.05 L 735.77 988.67 C 721.21 977.12 706.07 985.00 697.57 967.48 C 700.66 958.11 719.44 944.54 727.84 939.23 L 720.28 931.25 L 723.04 927.52 C 735.67 919.09 747.18 913.82 760.56 904.10 C 775.24 893.45 788.79 881.89 803.32 871.69 C 828.89 856.68 852.51 827.04 860.49 798.61 L 861.08 796.11 C 875.33 803.15 886.49 791.78 895.63 782.68 L 896.74 773.13 C 891.59 762.95 885.46 748.17 876.88 741.42 C 888.35 647.93 892.51 600.38 863.11 512.57 C 856.85 502.44 849.32 482.58 841.49 469.85 C 785.06 378.04 716.17 345.46 617.00 319.85 C 609.39 315.55 609.35 317.22 606.86 310.92 C 597.10 306.92 578.63 305.50 569.80 311.94 C 452.94 303.58 377.56 325.95 287.65 399.41 L 283.49 397.45 C 271.53 406.08 262.31 403.43 246.29 414.85 C 220.26 442.88 200.73 479.61 185.07 514.08 C 179.91 525.45 176.41 529.65 166.56 537.78 C 169.78 561.61 174.90 615.50 171.30 639.26 C 172.09 659.47 170.37 679.86 171.19 698.58 C 173.22 691.62 175.11 684.62 176.84 677.57 C 177.37 682.76 178.19 694.02 179.58 698.51 L 183.70 694.13 C 187.69 762.52 217.63 833.87 270.42 879.50 C 276.61 884.86 283.15 890.85 288.73 896.85 L 296.58 907.70 C 291.63 908.87 291.57 909.13 286.30 908.44 L 291.92 914.94 L 290.70 922.73 L 287.55 922.05 C 281.60 938.22 278.41 937.44 289.51 952.18 C 286.80 959.90 279.93 960.48 273.31 966.25 C 271.50 974.92 269.63 979.68 273.33 987.88 C 279.78 990.71 282.18 991.39 287.54 995.81 C 285.11 999.27 286.05 999.05 282.77 1000.80 C 241.56 1035.77 228.09 1070.22 206.58 1118.25 C 201.21 1130.24 193.43 1137.67 188.64 1151.04 L 177.48 1141.48 Z" fill="#89bbb5" fill-rule="nonzero" node-id="83" stroke="none" target-height="1164.3192" target-width="1036.5211" target-x="-6.82112" target-y="-10.1992"></path><path d="M 349.14 123.16 L 351.89 117.89 C 409.21 107.99 509.05 137.44 522.33 201.17 L 519.62 208.11 C 521.14 216.86 521.52 218.05 525.83 225.82 L 528.75 241.24 C 531.76 255.04 534.83 269.84 535.51 283.96 C 515.06 284.25 442.56 287.36 427.23 283.36 L 428.22 280.57 L 438.18 276.68 C 446.74 276.83 448.60 278.25 455.33 274.39 L 455.06 269.87 C 393.79 255.86 343.06 184.19 349.14 123.16 Z" fill="#6fba8e" fill-rule="nonzero" node-id="85" stroke="none" target-height="179.37701" target-width="192.44797" target-x="343.058" target-y="107.98699"></path><path d="M 406.61 155.90 C 420.73 162.52 517.50 229.84 528.75 241.25 C 531.76 255.04 534.83 269.85 535.51 283.97 C 515.06 284.25 442.56 287.37 427.23 283.36 L 428.22 280.58 L 438.18 276.68 C 446.74 276.84 448.60 278.25 455.33 274.39 L 455.06 269.88 C 472.49 267.24 503.78 282.99 515.29 269.78 C 515.22 240.13 430.99 184.37 407.51 156.98 L 406.61 155.90 Z" fill="#519d7b" fill-rule="nonzero" node-id="87" stroke="none" target-height="131.46802" target-width="128.90097" target-x="406.605" target-y="155.9"></path><path d="M 349.14 123.16 L 351.89 117.89 C 409.21 107.99 509.05 137.44 522.33 201.17 L 519.62 208.11 C 506.24 180.10 476.21 173.34 469.76 164.13 C 473.97 162.81 478.24 161.84 482.53 160.80 L 481.07 156.97 C 439.10 126.68 397.12 129.75 349.14 123.16 Z" fill="#9ad5cd" fill-rule="nonzero" node-id="89" stroke="none" target-height="100.121025" target-width="173.18701" target-x="349.143" target-y="107.98699"></path><path d="M 571.55 158.23 C 616.84 133.75 652.26 127.49 702.97 139.08 L 704.50 139.45 C 699.62 203.13 688.83 250.56 617.89 259.56 L 615.36 259.94 C 597.79 262.47 574.29 261.76 556.78 259.11 L 550.32 254.16 C 543.64 256.10 546.23 254.29 542.04 259.41 C 554.40 270.44 589.12 264.11 602.63 271.02 C 602.95 273.72 603.23 276.11 603.47 278.18 L 606.13 281.06 C 596.61 286.02 557.70 283.70 543.97 283.67 L 535.51 283.97 C 534.83 269.85 531.76 255.04 528.75 241.25 L 525.83 225.82 L 534.34 220.50 C 539.42 224.02 537.75 221.78 539.98 227.07 C 541.32 224.81 540.74 200.58 542.28 190.43 C 539.36 192.59 569.77 160.03 571.55 158.23 Z" fill="#d6e6e8" fill-rule="nonzero" node-id="91" stroke="none" target-height="158.526" target-width="178.67505" target-x="525.825" target-y="127.491"></path><path d="M 539.98 227.07 C 540.70 235.43 540.35 239.82 544.61 247.06 C 554.85 245.32 562.33 218.46 564.53 217.33 C 586.18 206.14 614.80 190.21 638.35 185.14 C 636.10 194.33 573.92 241.27 562.12 250.68 L 566.20 253.33 C 576.43 247.64 602.70 253.59 613.71 257.84 C 615.12 258.39 616.51 258.96 617.89 259.57 L 615.36 259.95 C 597.79 262.47 574.29 261.76 556.78 259.11 L 550.32 254.17 C 543.64 256.10 546.23 254.29 542.04 259.41 C 554.40 270.44 589.12 264.11 602.63 271.02 C 602.95 273.72 603.23 276.11 603.47 278.18 L 606.13 281.07 C 596.61 286.02 557.70 283.70 543.97 283.67 L 535.51 283.97 C 534.83 269.85 531.76 255.04 528.75 241.25 L 525.83 225.83 L 534.34 220.50 C 539.42 224.02 537.75 221.78 539.98 227.07 Z" fill="#94bcbf" fill-rule="nonzero" node-id="93" stroke="none" target-height="100.87999" target-width="112.52399" target-x="525.825" target-y="185.13902"></path><path d="M 543.97 283.66 C 546.25 278.23 547.09 273.06 552.00 271.17 C 566.91 265.44 589.48 273.25 603.47 278.17 L 606.13 281.06 C 596.61 286.01 557.70 283.69 543.97 283.66 Z" fill="#519d7b" fill-rule="nonzero" node-id="95" stroke="none" target-height="20.572021" target-width="62.162964" target-x="543.965" target-y="265.438"></path><path d="M 162.96 519.62 C 174.71 499.77 184.52 460.13 204.05 431.75 C 241.36 377.53 375.82 285.37 437.03 272.25 L 438.18 276.68 L 428.22 280.58 L 427.23 283.37 C 442.56 287.37 515.06 284.26 535.51 283.97 L 543.97 283.67 C 557.70 283.70 596.61 286.02 606.13 281.07 L 607.25 287.34 C 622.62 295.81 655.14 301.31 672.01 316.25 C 668.99 317.95 616.66 311.59 606.86 310.93 C 597.10 306.92 578.63 305.50 569.80 311.94 C 452.94 303.59 377.56 325.95 287.65 399.42 L 283.49 397.46 C 271.53 406.09 262.31 403.43 246.29 414.85 C 220.25 442.89 200.73 479.62 185.07 514.09 C 179.91 525.45 176.41 529.66 166.56 537.78 L 163.71 527.10 L 162.96 519.62 Z" fill="#9ad5cd" fill-rule="nonzero" node-id="97" stroke="none" target-height="265.52798" target-width="509.05396" target-x="162.96" target-y="272.254"></path><path d="M 163.71 527.09 C 186.66 506.61 211.75 416.02 247.34 405.87 L 246.29 414.84 C 220.25 442.88 200.73 479.61 185.07 514.08 C 179.91 525.44 176.41 529.65 166.56 537.77 L 163.71 527.09 Z" fill="#7cdfd7" fill-rule="nonzero" node-id="99" stroke="none" target-height="131.90802" target-width="83.62401" target-x="163.713" target-y="405.865"></path><path d="M 863.11 512.57 C 866.53 518.25 869.00 522.64 871.94 528.58 C 876.75 524.21 876.86 523.99 880.51 518.57 C 881.39 521.31 883.97 528.64 884.03 531.02 C 915.53 546.44 934.20 575.29 940.92 609.52 C 937.95 610.00 936.62 609.86 933.83 608.71 C 928.85 616.03 928.57 622.34 927.06 631.12 C 928.35 638.80 939.11 700.02 941.10 704.63 C 943.21 742.94 917.38 758.46 895.63 782.68 L 896.74 773.13 C 891.59 762.95 885.46 748.17 876.88 741.42 C 888.35 647.93 892.51 600.38 863.11 512.57 Z" fill="#9db2b3" fill-rule="nonzero" node-id="101" stroke="none" target-height="270.107" target-width="80.093994" target-x="863.111" target-y="512.572"></path><path d="M 927.06 631.12 C 925.77 636.96 925.03 650.36 924.51 656.97 C 920.63 656.65 911.48 656.15 908.39 653.77 C 889.61 639.29 893.85 586.39 887.07 562.39 C 883.80 550.85 880.67 542.79 878.61 534.81 L 884.03 531.02 C 915.53 546.44 934.19 575.29 940.92 609.52 C 937.95 610.00 936.62 609.86 933.83 608.71 C 928.85 616.03 928.57 622.34 927.06 631.12 Z" fill="#e5e5e9" fill-rule="nonzero" node-id="103" stroke="none" target-height="125.94299" target-width="62.30896" target-x="878.61005" target-y="531.025"></path><path d="M 606.13 281.07 C 610.37 277.23 612.24 274.66 618.98 276.43 C 751.58 311.16 835.79 390.51 880.51 518.58 C 876.86 524.00 876.75 524.22 871.94 528.58 C 869.00 522.65 866.53 518.25 863.11 512.58 C 856.84 502.44 849.32 482.59 841.49 469.85 C 785.06 378.05 716.17 345.46 617.00 319.85 C 609.39 315.55 609.34 317.22 606.86 310.93 C 616.66 311.59 668.99 317.95 672.01 316.25 C 655.14 301.31 622.62 295.81 607.25 287.34 L 606.13 281.07 Z" fill="#c8e7e3" fill-rule="nonzero" node-id="105" stroke="none" target-height="253.922" target-width="274.385" target-x="606.128" target-y="274.662"></path><path d="M 143.46 513.34 C 155.08 515.05 154.85 513.26 162.96 519.61 L 163.71 527.10 L 166.56 537.77 C 169.78 561.61 174.90 615.50 171.30 639.26 C 165.08 647.40 167.22 648.05 166.98 660.65 C 156.95 661.03 143.94 659.62 133.66 658.81 C 128.89 649.01 133.37 648.92 128.93 637.37 C 128.07 632.38 128.77 628.55 129.14 623.42 C 110.84 606.05 112.19 600.63 109.11 575.47 C 108.97 574.22 107.10 568.91 106.59 567.36 C 102.22 567.78 98.57 567.80 94.22 567.85 C 100.87 554.93 103.94 547.74 114.22 537.13 C 124.71 524.40 129.03 520.98 143.46 513.34 Z" fill="#dbdfe7" fill-rule="nonzero" node-id="107" stroke="none" target-height="147.763" target-width="80.679695" target-x="94.2183" target-y="513.264"></path><path d="M 114.22 537.14 C 130.86 552.64 130.57 601.27 129.14 623.43 C 110.84 606.06 112.19 600.63 109.11 575.47 C 108.97 574.22 107.10 568.92 106.59 567.37 C 102.22 567.78 98.57 567.80 94.22 567.85 C 100.87 554.93 103.94 547.75 114.22 537.14 Z" fill="#b7dddd" fill-rule="nonzero" node-id="109" stroke="none" target-height="86.29199" target-width="36.638695" target-x="94.2183" target-y="537.137"></path><path d="M 171.19 698.58 C 173.22 691.62 175.11 684.61 176.84 677.57 C 177.37 682.75 178.19 694.01 179.58 698.51 L 183.70 694.13 C 187.69 762.52 217.63 833.87 270.42 879.50 C 276.61 884.86 283.15 890.85 288.73 896.84 L 296.58 907.70 C 291.63 908.87 291.57 909.12 286.30 908.44 C 213.41 887.61 180.57 793.44 165.42 784.26 L 165.00 783.32 C 159.06 774.40 170.60 725.25 170.46 706.16 L 171.19 698.58 Z" fill="#468383" fill-rule="nonzero" node-id="111" stroke="none" target-height="231.557" target-width="137.51799" target-x="159.058" target-y="677.568"></path><path d="M 171.19 698.58 C 173.22 691.62 175.11 684.61 176.84 677.57 C 177.37 682.75 178.19 694.01 179.58 698.51 C 180.79 714.35 177.82 774.48 165.00 783.32 C 159.06 774.40 170.60 725.25 170.46 706.16 L 171.19 698.58 Z" fill="#427275" fill-rule="nonzero" node-id="113" stroke="none" target-height="105.75299" target-width="21.729996" target-x="159.058" target-y="677.568"></path><path d="M 128.93 637.38 C 133.37 648.93 128.89 649.02 133.66 658.82 C 143.94 659.63 156.95 661.03 166.98 660.66 C 167.22 648.05 165.08 647.41 171.30 639.27 C 172.09 659.48 170.37 679.87 171.19 698.59 L 170.46 706.17 C 170.60 725.26 159.06 774.41 165.00 783.33 L 165.42 784.27 C 144.45 784.53 140.46 781.36 124.35 767.74 L 124.25 764.15 C 123.00 751.25 124.86 748.65 118.31 739.62 C 124.79 725.47 125.45 701.90 126.39 685.99 L 128.93 637.38 Z" fill="#a7b1c3" fill-rule="nonzero" node-id="115" stroke="none" target-height="147.14795" target-width="53.776" target-x="118.312" target-y="637.379"></path><path d="M 124.25 764.14 C 131.71 760.11 129.34 762.51 133.31 755.14 C 132.62 746.58 131.59 742.31 135.44 734.44 C 150.99 715.61 159.26 738.25 170.46 706.16 C 170.60 725.26 159.06 774.41 165.00 783.33 L 165.42 784.26 C 144.45 784.52 140.46 781.36 124.35 767.74 L 124.25 764.14 Z" fill="#6a6f80" fill-rule="nonzero" node-id="117" stroke="none" target-height="78.35901" target-width="46.349007" target-x="124.25399" target-y="706.164"></path><path d="M 143.46 513.34 C 146.83 512.45 150.84 511.40 155.51 510.17 C 161.28 493.55 172.28 466.95 179.24 452.12 C 186.79 436.06 196.63 421.49 206.51 408.40 C 255.87 344.17 324.83 297.80 402.94 276.33 C 416.15 272.61 427.56 262.56 437.03 272.25 C 375.82 285.36 241.36 377.53 204.05 431.75 C 184.52 460.13 174.71 499.76 162.96 519.61 C 154.85 513.27 155.08 515.06 143.46 513.34 Z" fill="#b7dddd" fill-rule="nonzero" node-id="119" stroke="none" target-height="257.05698" target-width="293.57202" target-x="143.458" target-y="262.556"></path><path d="M 115.03 740.98 C 114.01 742.42 111.25 744.65 109.94 745.81 L 106.03 743.14 C 84.38 694.97 85.68 623.89 103.66 574.30 L 109.11 575.47 C 112.19 600.63 110.84 606.05 129.14 623.43 C 128.77 628.55 128.07 632.39 128.93 637.37 L 126.39 685.99 C 125.45 701.90 124.78 725.46 118.31 739.62 L 115.03 740.98 Z" fill="#6fb3b4" fill-rule="nonzero" node-id="121" stroke="none" target-height="171.50995" target-width="44.760605" target-x="84.3754" target-y="574.301"></path><path d="M 115.03 740.98 C 112.00 738.76 111.77 736.89 110.33 733.33 C 111.79 719.72 115.04 695.17 122.42 683.68 L 126.39 685.99 C 125.45 701.89 124.79 725.46 118.31 739.62 L 115.03 740.98 Z" fill="#468383" fill-rule="nonzero" node-id="123" stroke="none" target-height="57.29901" target-width="16.056" target-x="110.333" target-y="683.68"></path><path d="M 124.34 767.74 C 114.31 766.30 98.79 748.35 95.03 738.60 C 75.58 688.15 76.18 618.23 94.22 567.85 C 98.57 567.81 102.22 567.79 106.59 567.37 C 107.10 568.92 108.97 574.23 109.11 575.47 L 103.66 574.30 C 85.68 623.89 84.38 694.97 106.03 743.15 L 109.94 745.81 C 111.25 744.65 114.01 742.42 115.03 740.99 L 118.31 739.62 C 124.86 748.65 123.00 751.25 124.25 764.14 L 124.34 767.74 Z" fill="#94bcbf" fill-rule="nonzero" node-id="125" stroke="none" target-height="200.37006" target-width="49.2845" target-x="75.5795" target-y="567.371"></path><path d="M 177.48 1141.48 C 200.21 1096.25 234.78 1029.01 275.75 999.44 L 282.77 1000.81 C 241.56 1035.78 228.09 1070.22 206.58 1118.26 C 201.21 1130.25 193.43 1137.67 188.64 1151.05 L 177.48 1141.48 Z" fill="#94bcbf" fill-rule="nonzero" node-id="127" stroke="none" target-height="151.61407" target-width="105.287994" target-x="177.48102" target-y="999.436"></path><path d="M 927.06 631.12 C 928.57 622.34 928.85 616.03 933.83 608.71 C 936.62 609.86 937.95 610.00 940.92 609.53 C 957.66 650.75 940.45 678.36 941.10 704.63 C 939.11 700.02 928.35 638.80 927.06 631.12 Z" fill="#ccece5" fill-rule="nonzero" node-id="129" stroke="none" target-height="95.923035" target-width="30.59491" target-x="927.0641" target-y="608.709"></path><path d="M 723.04 927.52 C 734.83 930.56 750.71 959.04 751.93 971.81 L 748.79 976.32 C 739.09 977.82 725.49 971.68 718.78 964.78 C 720.73 947.94 729.39 956.78 727.84 939.23 L 720.28 931.25 L 723.04 927.52 Z" fill="#b7dddd" fill-rule="nonzero" node-id="131" stroke="none" target-height="50.294983" target-width="33.14612" target-x="718.785" target-y="927.521"></path><path d="M 273.31 966.25 C 270.21 968.75 270.10 968.41 266.09 969.02 C 260.35 956.53 273.79 930.41 281.63 919.97 L 287.55 922.05 C 281.60 938.22 278.41 937.43 289.51 952.17 C 286.80 959.90 279.93 960.48 273.31 966.25 Z" fill="#94bcbf" fill-rule="nonzero" node-id="133" stroke="none" target-height="49.046936" target-width="29.16101" target-x="260.349" target-y="919.969"></path><path d="M 705.65 38.41 C 733.23 48.26 775.73 71.36 799.10 89.22 C 782.79 87.20 714.33 48.18 705.65 38.41 Z" fill="#94bcbf" fill-rule="nonzero" node-id="135" stroke="none" target-height="50.81161" target-width="93.44806" target-x="705.65295" target-y="38.4102"></path><path d="M 542.28 190.43 C 536.15 174.56 555.14 158.63 571.55 158.23 C 569.77 160.03 539.36 192.59 542.28 190.43 Z" fill="#94bcbf" fill-rule="nonzero" node-id="137" stroke="none" target-height="34.362015" target-width="35.406006" target-x="536.147" target-y="158.232"></path><path d="M 273.33 987.87 C 318.40 942.66 411.61 1021.42 464.41 1003.67 C 479.75 1010.53 484.55 1024.66 513.31 1039.92 C 522.75 1046.22 521.77 1047.71 531.42 1047.95 L 534.46 1045.74 C 550.49 1043.33 562.53 1037.91 584.54 1035.12 L 583.64 1020.83 L 579.95 1013.97 L 585.88 1009.67 C 639.29 1006.75 664.50 984.85 735.77 988.66 L 732.01 996.05 C 766.48 1013.03 822.23 1117.67 835.06 1154.12 C 810.94 1176.15 791.17 1189.24 762.24 1204.19 C 757.39 1206.69 731.05 1219.94 727.97 1222.19 C 666.96 1254.91 596.28 1267.56 527.59 1268.83 C 514.04 1269.04 471.35 1269.65 460.84 1265.83 C 408.55 1264.63 344.09 1243.25 297.53 1220.47 L 271.05 1206.36 C 239.43 1191.12 215.98 1172.46 188.64 1151.04 C 193.43 1137.67 201.21 1130.24 206.58 1118.25 C 228.09 1070.22 241.56 1035.77 282.77 1000.80 C 286.05 999.05 285.11 999.27 287.54 995.80 C 282.18 991.38 279.78 990.71 273.33 987.87 Z" fill="#64aca5" fill-rule="nonzero" node-id="139" stroke="none" target-height="326.98602" target-width="646.4241" target-x="188.63998" target-y="942.664"></path><path d="M 579.95 1013.97 L 585.88 1009.67 C 639.29 1006.75 664.50 984.86 735.77 988.67 L 732.01 996.05 C 766.48 1013.04 822.23 1117.68 835.06 1154.12 C 810.94 1176.15 791.17 1189.25 762.24 1204.19 C 757.39 1206.70 731.05 1219.94 727.97 1222.19 C 666.96 1254.91 596.28 1267.56 527.59 1268.84 C 530.44 1207.40 527.71 1121.35 527.65 1058.05 C 543.51 1049.82 563.59 1034.67 579.04 1046.12 C 584.84 1058.18 584.81 1070.27 582.57 1083.26 L 584.57 1048.86 L 584.54 1035.12 L 583.64 1020.83 L 579.95 1013.97 Z" fill="#77baaf" fill-rule="nonzero" node-id="141" stroke="none" target-height="283.98297" target-width="307.476" target-x="527.588" target-y="984.857"></path><path d="M 579.95 1013.97 L 585.88 1009.67 C 639.29 1006.75 664.50 984.86 735.77 988.67 L 732.01 996.05 C 766.48 1013.04 822.23 1117.68 835.06 1154.12 C 810.94 1176.15 791.17 1189.25 762.24 1204.19 C 757.39 1206.70 731.05 1219.94 727.97 1222.19 C 715.19 1168.87 707.14 1103.20 715.23 1048.34 C 716.50 1039.72 717.64 1026.54 713.90 1018.64 C 699.36 1018.19 707.67 1028.32 682.68 1033.51 C 654.60 1039.34 618.39 1029.44 595.79 1037.06 C 595.66 1027.26 596.30 1022.52 591.39 1013.80 L 587.31 1013.74 L 583.64 1020.83 L 579.95 1013.97 Z" fill="#6ea89e" fill-rule="nonzero" node-id="143" stroke="none" target-height="237.33295" target-width="255.11603" target-x="579.948" target-y="984.857"></path><path d="M 583.64 1020.83 L 587.31 1013.73 L 591.39 1013.80 C 596.30 1022.52 595.66 1027.26 595.79 1037.06 C 596.50 1050.83 602.90 1139.91 600.42 1145.94 L 593.75 1147.38 L 584.79 1144.55 C 587.44 1118.56 589.22 1074.00 584.57 1048.86 L 584.54 1035.12 L 583.64 1020.83 Z" fill="#cbcdd7" fill-rule="nonzero" node-id="145" stroke="none" target-height="133.64996" target-width="19.262024" target-x="583.639" target-y="1013.73004"></path><path d="M 595.19 1149.10 C 609.55 1156.92 609.94 1166.70 603.34 1181.64 L 584.08 1178.17 C 583.80 1161.26 582.63 1159.89 595.19 1149.10 Z" fill="#bcc2c8" fill-rule="nonzero" node-id="147" stroke="none" target-height="32.54004" target-width="27.309998" target-x="582.631" target-y="1149.1"></path><path d="M 575.55 1181.88 C 575.71 1167.82 575.57 1161.37 578.55 1147.78 L 584.79 1144.55 L 593.75 1147.38 L 595.19 1149.10 C 582.63 1159.89 583.80 1161.26 584.08 1178.17 L 575.55 1181.88 Z" fill="#55a09c" fill-rule="nonzero" node-id="149" stroke="none" target-height="37.329956" target-width="19.638977" target-x="575.554" target-y="1144.55"></path><path d="M 584.08 1178.16 L 603.34 1181.63 C 598.39 1190.30 601.23 1187.49 592.71 1192.42 C 582.84 1190.92 581.61 1190.68 575.55 1181.88 L 584.08 1178.16 Z" fill="#55a09c" fill-rule="nonzero" node-id="151" stroke="none" target-height="14.26001" target-width="27.789978" target-x="575.554" target-y="1178.16"></path><path d="M 188.64 1151.05 C 193.43 1137.67 201.21 1130.25 206.58 1118.25 C 228.09 1070.22 241.56 1035.77 282.77 1000.80 C 283.48 1013.33 283.04 1012.50 292.41 1021.77 C 325.49 1054.51 299.89 1098.30 292.80 1134.38 C 286.56 1166.14 281.79 1177.88 271.05 1206.36 C 239.43 1191.12 215.98 1172.46 188.64 1151.05 Z" fill="#63aba7" fill-rule="nonzero" node-id="153" stroke="none" target-height="205.56" target-width="136.84802" target-x="188.63998" target-y="1000.8"></path><path d="M 273.33 987.87 C 318.40 942.66 411.61 1021.42 464.41 1003.67 C 479.75 1010.53 484.55 1024.66 513.31 1039.92 C 522.75 1046.22 521.77 1047.71 531.42 1047.95 L 534.46 1045.74 C 550.49 1043.33 562.53 1037.91 584.54 1035.12 L 584.56 1048.85 L 582.57 1083.26 C 584.81 1070.26 584.84 1058.17 579.04 1046.11 C 563.59 1034.66 543.51 1049.81 527.65 1058.04 C 527.70 1121.34 530.44 1207.39 527.59 1268.83 C 514.04 1269.04 471.35 1269.65 460.84 1265.83 C 474.82 1266.16 508.46 1267.51 520.37 1263.28 C 525.99 1241.33 527.13 1073.50 519.40 1060.88 L 509.21 1060.23 C 514.08 1055.82 514.38 1057.07 514.70 1052.32 C 501.07 1039.76 492.69 1031.96 475.88 1042.79 C 474.62 1045.96 473.88 1048.07 471.22 1050.30 C 471.18 1040.15 472.22 1018.16 465.92 1010.74 C 459.99 1014.96 461.55 1015.14 458.63 1023.77 L 460.30 1033.24 C 449.22 1031.36 438.15 1029.38 427.11 1027.29 L 424.90 1027.39 C 403.66 1028.11 341.25 1015.79 314.18 1013.73 L 313.62 1010.71 L 321.72 1004.44 C 315.05 999.18 315.99 998.13 309.06 997.60 C 305.23 1004.97 314.95 1049.12 316.03 1065.52 C 319.47 1117.46 309.96 1170.21 297.53 1220.47 L 271.05 1206.36 C 281.79 1177.87 286.56 1166.14 292.80 1134.37 C 299.89 1098.29 325.49 1054.50 292.41 1021.76 C 283.04 1012.49 283.48 1013.33 282.77 1000.80 C 286.05 999.05 285.11 999.27 287.54 995.80 C 282.18 991.38 279.78 990.71 273.33 987.87 Z" fill="#468383" fill-rule="nonzero" node-id="155" stroke="none" target-height="326.98602" target-width="313.79202" target-x="271.051" target-y="942.664"></path><path d="M 427.11 1027.30 C 394.99 1014.07 324.75 998.51 286.86 986.01 L 285.85 983.74 C 316.91 979.73 423.92 1013.33 458.63 1023.77 L 460.30 1033.25 C 449.22 1031.37 438.16 1029.38 427.11 1027.30 Z" fill="#1d585a" fill-rule="nonzero" node-id="157" stroke="none" target-height="53.523987" target-width="174.448" target-x="285.853" target-y="979.726"></path><path d="M 458.63 1023.77 C 461.55 1015.14 459.99 1014.96 465.92 1010.74 C 472.22 1018.16 471.18 1040.15 471.22 1050.30 C 470.29 1069.05 476.62 1134.69 467.20 1146.24 L 462.87 1146.30 C 456.32 1136.09 460.21 1053.82 460.30 1033.24 L 458.63 1023.77 Z" fill="#cbcdd7" fill-rule="nonzero" node-id="159" stroke="none" target-height="135.56006" target-width="20.300964" target-x="456.31604" target-y="1010.74"></path><path d="M 454.75 1179.06 C 454.70 1169.84 453.81 1162.69 458.70 1154.78 L 463.66 1151.15 C 472.00 1153.68 468.96 1151.72 474.82 1159.88 C 476.09 1168.89 476.39 1172.49 476.49 1181.58 C 475.70 1187.16 475.75 1185.63 471.78 1190.70 C 461.96 1193.79 466.05 1193.82 456.36 1190.68 C 452.77 1183.13 452.85 1186.11 454.75 1179.06 Z" fill="#bcc2c8" fill-rule="nonzero" node-id="161" stroke="none" target-height="42.66992" target-width="23.723969" target-x="452.766" target-y="1151.15"></path><path d="M 454.75 1179.06 L 476.49 1181.58 C 475.70 1187.16 475.75 1185.63 471.78 1190.70 C 461.96 1193.79 466.05 1193.82 456.36 1190.68 C 452.77 1183.13 452.85 1186.12 454.75 1179.06 Z" fill="#55a09c" fill-rule="nonzero" node-id="163" stroke="none" target-height="14.759888" target-width="23.723969" target-x="452.766" target-y="1179.06"></path><path d="M 184.20 671.79 C 191.88 692.55 184.84 722.93 204.36 733.45 C 217.64 740.60 239.50 744.10 253.51 751.01 C 273.79 768.03 287.95 804.03 313.45 818.07 C 418.85 876.14 609.32 879.28 722.48 846.16 C 776.77 830.28 808.31 796.29 834.64 748.65 C 839.06 740.65 843.71 725.96 844.50 716.56 C 852.16 726.90 837.50 746.51 838.59 754.06 C 841.52 774.29 840.99 786.90 840.21 806.94 C 841.58 798.57 845.33 788.78 848.41 780.88 L 853.35 783.90 C 856.84 798.49 847.44 797.43 848.40 814.37 L 850.58 814.53 C 852.25 806.75 853.06 801.38 860.49 798.61 C 852.51 827.05 828.89 856.68 803.32 871.70 C 788.79 881.90 775.24 893.45 760.56 904.11 C 747.18 913.82 735.67 919.10 723.04 927.52 L 720.28 931.25 L 727.84 939.24 C 719.44 944.55 700.66 958.11 697.57 967.49 C 706.07 985.01 721.21 977.12 735.77 988.67 C 664.50 984.86 639.29 1006.75 585.88 1009.67 L 579.95 1013.97 L 583.64 1020.84 L 584.54 1035.12 C 562.53 1037.91 550.49 1043.34 534.46 1045.75 L 531.42 1047.96 C 521.77 1047.72 522.75 1046.22 513.31 1039.93 C 484.55 1024.67 479.75 1010.54 464.41 1003.68 C 411.61 1021.43 318.40 942.67 273.33 987.88 C 269.63 979.69 271.50 974.93 273.31 966.25 C 279.93 960.49 286.80 959.91 289.51 952.18 C 278.41 937.44 281.60 938.23 287.55 922.06 L 290.70 922.73 L 291.92 914.95 L 286.30 908.44 C 291.57 909.13 291.63 908.88 296.58 907.71 L 288.73 896.85 C 283.15 890.86 276.61 884.87 270.42 879.51 C 217.63 833.88 187.69 762.52 183.70 694.14 L 184.20 671.79 Z" fill="#7f8da1" fill-rule="nonzero" node-id="165" stroke="none" target-height="376.17297" target-width="676.7881" target-x="183.69998" target-y="671.787"></path><path d="M 288.73 896.84 C 327.66 919.54 448.76 932.02 467.98 956.87 C 503.51 958.23 539.07 958.63 574.63 958.05 C 605.19 957.47 695.31 935.08 705.89 940.19 C 710.54 940.21 709.53 940.03 714.16 938.54 L 717.95 930.99 L 720.28 931.25 L 727.84 939.23 C 719.44 944.54 700.66 958.10 697.57 967.48 C 706.07 985.00 721.21 977.12 735.77 988.67 C 664.50 984.85 639.29 1006.75 585.88 1009.67 L 579.95 1013.97 L 583.64 1020.83 L 584.54 1035.12 C 562.53 1037.91 550.49 1043.33 534.46 1045.74 L 531.42 1047.95 C 521.77 1047.72 522.75 1046.22 513.31 1039.92 C 484.55 1024.66 479.75 1010.53 464.41 1003.67 C 411.61 1021.42 318.40 942.67 273.33 987.88 C 269.63 979.68 271.50 974.92 273.31 966.25 C 279.93 960.48 286.80 959.90 289.51 952.17 C 278.41 937.44 281.60 938.22 287.55 922.05 L 290.70 922.73 L 291.92 914.94 L 286.30 908.44 C 291.57 909.13 291.63 908.87 296.58 907.70 L 288.73 896.84 Z" fill="#1b4146" fill-rule="nonzero" node-id="167" stroke="none" target-height="151.10596" target-width="466.14197" target-x="269.627" target-y="896.844"></path><path d="M 287.55 922.05 L 290.70 922.73 C 297.20 936.57 302.50 943.75 317.96 948.78 C 343.74 957.17 423.48 972.39 446.77 968.38 C 451.12 971.25 459.53 976.44 463.26 979.47 L 464.49 979.92 C 475.79 984.25 487.54 990.82 498.09 995.54 C 508.93 1000.39 532.92 986.79 546.77 996.40 L 547.56 999.67 L 550.32 1001.42 C 543.30 1013.78 539.34 1021.98 528.98 1031.99 L 523.84 1032.78 L 519.33 1028.66 L 513.31 1039.92 C 484.55 1024.66 479.75 1010.54 464.41 1003.67 C 411.61 1021.42 318.40 942.67 273.33 987.88 C 269.63 979.68 271.50 974.92 273.31 966.25 C 279.93 960.48 286.80 959.90 289.51 952.18 C 278.41 937.44 281.60 938.22 287.55 922.05 Z" fill="#5a9593" fill-rule="nonzero" node-id="169" stroke="none" target-height="117.86902" target-width="280.69098" target-x="269.627" target-y="922.051"></path><path d="M 464.41 1003.67 C 458.56 1002.75 450.51 1000.71 444.52 999.39 C 461.48 999.45 469.74 1001.83 486.89 998.78 L 488.27 996.43 C 474.81 991.25 454.21 984.02 441.97 977.52 C 449.59 978.59 455.67 979.01 463.26 979.47 L 464.49 979.92 C 475.79 984.25 487.53 990.81 498.09 995.54 C 508.93 1000.39 532.92 986.78 546.77 996.39 L 547.56 999.67 L 550.32 1001.42 C 543.30 1013.78 539.34 1021.97 528.98 1031.98 L 523.84 1032.78 L 519.33 1028.66 L 513.31 1039.92 C 484.55 1024.66 479.75 1010.53 464.41 1003.67 Z" fill="#55a09c" fill-rule="nonzero" node-id="171" stroke="none" target-height="62.397034" target-width="108.345" target-x="441.973" target-y="977.523"></path><path d="M 547.56 999.68 L 550.32 1001.43 C 543.30 1013.79 539.34 1021.98 528.98 1031.99 L 523.84 1032.79 L 519.33 1028.66 C 514.17 1015.59 511.36 1011.84 503.18 1000.21 L 547.56 999.68 Z" fill="#b9b8c7" fill-rule="nonzero" node-id="173" stroke="none" target-height="33.114075" target-width="47.135986" target-x="503.182" target-y="999.67596"></path><path d="M 717.95 930.99 L 720.28 931.25 L 727.84 939.23 C 719.44 944.55 700.66 958.11 697.57 967.49 C 706.07 985.00 721.21 977.12 735.77 988.67 C 664.50 984.86 639.29 1006.75 585.88 1009.67 L 579.95 1013.97 L 583.64 1020.83 L 584.54 1035.12 C 562.53 1037.91 550.49 1043.33 534.46 1045.75 L 531.42 1047.96 C 521.77 1047.72 522.75 1046.22 513.31 1039.93 L 519.33 1028.66 L 523.84 1032.78 L 528.98 1031.99 C 539.34 1021.98 543.30 1013.79 550.32 1001.42 L 547.56 999.67 L 546.77 996.40 C 575.47 997.40 592.90 973.82 614.29 966.97 C 649.90 955.58 669.83 955.94 705.89 940.20 C 710.54 940.22 709.53 940.04 714.16 938.55 L 717.95 930.99 Z" fill="#55a09c" fill-rule="nonzero" node-id="175" stroke="none" target-height="116.96802" target-width="222.45496" target-x="513.314" target-y="930.99194"></path><path d="M 579.95 1013.97 L 583.64 1020.83 L 584.54 1035.12 C 562.53 1037.91 550.49 1043.33 534.46 1045.75 C 549.13 1031.80 562.78 1024.07 579.95 1013.97 Z" fill="#427275" fill-rule="nonzero" node-id="177" stroke="none" target-height="31.78003" target-width="50.08203" target-x="534.456" target-y="1013.97"></path><path d="M 288.73 896.84 C 327.66 919.54 448.76 932.02 467.98 956.87 C 431.02 952.22 388.44 940.00 352.31 929.85 C 337.68 925.74 317.93 916.80 304.07 913.96 C 316.99 938.86 414.47 953.10 446.77 968.38 C 423.48 972.39 343.74 957.17 317.96 948.78 C 302.50 943.75 297.20 936.57 290.70 922.73 L 291.92 914.94 L 286.30 908.44 C 291.57 909.13 291.63 908.87 296.58 907.70 L 288.73 896.84 Z" fill="#427275" fill-rule="nonzero" node-id="179" stroke="none" target-height="75.54199" target-width="181.68298" target-x="286.298" target-y="896.844"></path><path d="M 574.63 958.06 C 574.65 953.82 574.97 953.45 575.83 949.24 C 605.00 928.31 662.90 938.51 697.15 930.65 C 702.49 929.42 707.69 928.14 713.06 926.93 L 717.95 931.00 L 714.16 938.55 C 709.53 940.04 710.54 940.22 705.89 940.20 C 695.31 935.09 605.19 957.48 574.63 958.06 Z" fill="#468383" fill-rule="nonzero" node-id="181" stroke="none" target-height="31.125" target-width="143.32404" target-x="574.626" target-y="926.932"></path><path d="M 840.21 806.93 C 841.58 798.57 845.33 788.78 848.41 780.88 L 853.35 783.90 C 856.84 798.49 847.44 797.43 848.40 814.36 L 850.58 814.53 C 852.25 806.75 853.06 801.38 860.49 798.61 C 852.51 827.05 828.89 856.68 803.32 871.70 C 809.04 863.64 824.45 844.87 827.35 837.32 C 829.74 831.08 824.53 808.47 829.69 802.24 L 833.68 805.38 L 833.06 812.09 L 837.90 809.89 L 836.98 809.71 L 840.21 806.93 Z" fill="#adadad" fill-rule="nonzero" node-id="183" stroke="none" target-height="90.81995" target-width="57.173035" target-x="803.315" target-y="780.87506"></path><path d="M 246.29 414.85 C 262.31 403.43 271.53 406.09 283.49 397.45 L 287.65 399.41 C 223.18 461.05 185.45 530.75 182.07 621.98 C 181.68 632.39 182.19 662.31 184.20 671.78 L 183.70 694.13 L 179.58 698.51 C 178.19 694.02 177.37 682.76 176.84 677.58 C 175.11 684.62 173.22 691.62 171.19 698.59 C 170.37 679.86 172.09 659.47 171.30 639.26 C 174.90 615.50 169.78 561.61 166.56 537.78 C 176.41 529.66 179.91 525.45 185.07 514.09 C 200.73 479.61 220.25 442.89 246.29 414.85 Z" fill="#70afb2" fill-rule="nonzero" node-id="185" stroke="none" target-height="301.134" target-width="121.084015" target-x="166.564" target-y="397.45297"></path><path d="M 876.88 741.42 C 885.46 748.17 891.58 762.96 896.74 773.14 L 895.63 782.68 C 886.49 791.78 875.33 803.15 861.08 796.12 C 868.72 775.76 871.88 762.71 876.88 741.42 Z" fill="#6a6f80" fill-rule="nonzero" node-id="187" stroke="none" target-height="61.73108" target-width="35.663025" target-x="861.079" target-y="741.42194"></path><path d="M 569.80 311.94 C 578.63 305.50 597.10 306.92 606.86 310.92 C 609.35 317.22 609.39 315.55 617.00 319.85 L 569.80 311.94 Z" fill="#94bcbf" fill-rule="nonzero" node-id="189" stroke="none" target-height="14.348999" target-width="47.202026" target-x="569.798" target-y="305.498"></path><path d="M 586.54 435.53 C 643.67 423.82 717.22 447.65 765.22 478.72 C 807.37 505.99 838.84 553.62 847.25 602.73 C 849.83 617.81 860.11 664.02 852.29 676.55 L 846.08 666.46 L 843.01 667.16 C 831.55 687.25 840.31 706.99 823.35 719.81 C 785.81 838.77 670.08 850.41 563.74 851.56 C 407.21 853.25 230.10 823.40 249.32 622.18 C 266.52 473.12 395.60 436.16 523.47 434.46 C 539.38 432.10 569.85 434.19 586.54 435.53 Z" fill="#13181f" fill-rule="nonzero" node-id="191" stroke="none" target-height="429.43408" target-width="630.005" target-x="230.10199" target-y="423.82"></path><path d="M 249.32 622.18 C 266.52 473.12 395.60 436.16 523.47 434.46 C 503.79 447.29 473.79 439.37 463.49 447.22 L 466.15 450.01 C 458.32 451.56 450.06 452.81 442.33 454.72 C 421.08 459.95 418.24 453.34 415.08 476.67 C 402.82 493.14 354.46 526.04 336.23 527.62 C 304.08 530.41 311.55 504.46 283.94 558.39 L 280.80 554.73 C 265.13 574.05 269.31 602.27 260.94 615.84 L 259.25 604.35 L 256.44 604.15 C 255.37 614.15 254.43 625.06 252.72 634.89 C 251.59 630.74 250.31 626.34 249.32 622.18 Z" fill="#464c5d" fill-rule="nonzero" node-id="193" stroke="none" target-height="200.43402" target-width="274.15198" target-x="249.31999" target-y="434.461"></path><path d="M 249.32 622.18 C 266.52 473.12 395.60 436.16 523.47 434.46 C 503.79 447.29 473.79 439.37 463.49 447.22 C 391.68 457.32 313.32 483.69 280.80 554.73 C 265.13 574.05 269.31 602.27 260.94 615.84 L 259.25 604.35 L 256.44 604.15 C 255.37 614.15 254.43 625.06 252.72 634.89 C 251.59 630.74 250.31 626.34 249.32 622.18 Z" fill="#070a10" fill-rule="nonzero" node-id="195" stroke="none" target-height="200.43402" target-width="274.15198" target-x="249.31999" target-y="434.461"></path><path d="M 586.54 435.53 C 643.67 423.82 717.22 447.65 765.22 478.72 C 807.37 505.99 838.84 553.62 847.25 602.73 C 849.83 617.81 860.11 664.02 852.29 676.55 L 846.08 666.46 L 843.01 667.16 C 831.55 687.25 840.31 706.99 823.35 719.81 C 840.12 653.46 839.53 585.99 796.90 528.18 C 748.17 462.11 663.06 445.75 586.54 435.53 Z" fill="#bcc2c8" fill-rule="nonzero" node-id="197" stroke="none" target-height="295.98804" target-width="273.563" target-x="586.543" target-y="423.82"></path><path d="M 388.71 574.92 C 404.44 574.20 422.12 578.39 438.05 579.66 C 447.96 588.79 456.12 596.55 462.24 608.77 C 475.00 634.27 477.88 662.78 468.67 689.99 C 461.63 710.80 452.87 721.92 433.35 731.49 C 420.20 734.01 405.40 736.27 392.43 731.79 C 376.07 726.14 363.97 713.70 356.71 698.22 C 345.06 673.38 343.93 641.07 353.64 615.43 C 360.50 597.34 371.00 583.04 388.71 574.92 Z" fill="#1b4146" fill-rule="nonzero" node-id="199" stroke="none" target-height="162.068" target-width="133.952" target-x="343.927" target-y="574.203"></path><path d="M 396.60 586.38 C 403.89 585.75 411.51 584.86 418.71 586.60 C 432.11 589.85 442.80 599.78 449.36 611.64 C 460.30 631.44 461.10 658.83 454.45 680.14 C 448.84 698.16 440.34 707.55 423.89 716.25 C 416.51 717.63 409.48 718.85 402.00 717.30 C 389.65 714.73 379.24 706.84 372.70 696.16 C 360.71 676.56 360.52 648.84 366.14 627.20 C 371.22 607.71 379.41 596.60 396.60 586.38 Z" fill="#7cdfd7" fill-rule="nonzero" node-id="201" stroke="none" target-height="133.995" target-width="100.57797" target-x="360.51703" target-y="584.857"></path><path d="M 709.71 584.27 C 715.80 584.10 720.78 584.91 726.33 587.60 C 733.27 590.96 738.53 596.25 740.88 603.69 C 747.42 624.44 731.91 648.01 722.01 665.00 C 729.28 684.03 741.68 705.77 734.98 726.36 C 730.46 732.76 726.16 735.63 718.40 737.23 C 704.96 740.00 694.73 735.38 684.10 728.00 C 662.09 713.38 625.89 698.66 618.56 670.69 C 616.14 661.44 618.17 651.98 623.07 643.91 C 637.53 620.11 682.90 590.72 709.71 584.27 Z" fill="#1d585a" fill-rule="nonzero" node-id="203" stroke="none" target-height="155.89801" target-width="131.28003" target-x="616.138" target-y="584.104"></path><path d="M 713.86 596.26 C 714.28 596.27 714.71 596.23 715.13 596.30 C 720.77 597.22 726.39 602.97 729.87 607.21 C 730.44 610.54 731.08 614.35 730.25 617.68 C 726.37 633.24 691.41 652.22 678.02 661.54 C 691.86 670.52 717.50 682.00 725.72 695.63 C 728.50 700.23 729.42 704.26 727.91 709.38 C 726.69 713.53 722.72 718.64 718.84 720.62 C 713.81 723.19 710.12 720.51 705.21 718.77 C 684.06 706.03 652.54 691.61 637.11 672.77 C 631.69 666.15 631.78 661.87 632.39 653.81 C 645.66 629.10 690.06 609.91 713.86 596.26 Z" fill="#7cdfd7" fill-rule="nonzero" node-id="205" stroke="none" target-height="126.96393" target-width="99.38806" target-x="631.693" target-y="596.229"></path><path d="M 704.07 474.04 C 709.76 475.92 715.38 477.99 720.94 480.23 C 750.37 492.35 785.78 521.64 797.90 551.25 C 800.80 558.36 803.65 566.74 800.49 574.08 L 794.07 573.94 C 790.92 577.41 791.16 577.32 786.48 577.63 C 779.20 573.81 773.41 569.29 767.58 563.52 C 747.73 543.85 704.37 501.67 704.07 474.04 Z" fill="#53535a" fill-rule="nonzero" node-id="207" stroke="none" target-height="103.591" target-width="99.587036" target-x="704.068" target-y="474.039"></path><path d="M 504.51 725.32 C 516.38 729.98 526.03 741.35 538.22 744.70 C 559.05 750.41 569.69 730.04 587.18 732.03 L 589.49 739.76 C 575.91 750.96 565.49 755.41 547.71 756.21 C 534.52 756.80 520.67 753.92 511.03 744.27 C 505.25 738.48 504.58 733.22 504.51 725.32 Z" fill="#1d585a" fill-rule="nonzero" node-id="209" stroke="none" target-height="31.484009" target-width="84.98102" target-x="504.51" target-y="725.32"></path></g></svg>