<?xml version="1.0" standalone="no"?><!DOCTYPE svg PUBLIC "-//W3C//DTD SVG 1.1//EN" "http://www.w3.org/Graphics/SVG/1.1/DTD/svg11.dtd"><svg height="1262" node-id="1" sillyvg="true" template-height="1262" template-width="1024" version="1.1" viewBox="0 0 1024 1262" width="1024" xmlns="http://www.w3.org/2000/svg" xmlns:xlink="http://www.w3.org/1999/xlink"><defs node-id="69"><clipPath id="clip0_30102_50890" node-id="66"><path d="M 0.00 0.00 L 1024.00 0.00 L 1024.00 1262.00 L 0.00 1262.00 Z" fill="#000000" fill-rule="nonzero" node-id="72" stroke="none" target-height="1262" target-width="1024" target-x="0" target-y="0"></path></clipPath></defs><g clip-path="url(#clip0_30102_50890)" id="sillyvg_g_0" node-id="76"><path d="M 176.81 1136.72 C 59.30 1021.05 1.59 906.05 1.04 737.93 C 0.28 513.34 -19.37 325.19 152.74 150.48 C 247.55 54.27 376.96 0.07 512.02 0.01 C 646.41 -0.77 776.33 48.82 870.14 145.76 C 988.10 267.63 1023.18 390.35 1023.71 554.64 C 1024.39 774.48 1033.51 941.18 866.16 1111.66 C 860.71 1117.23 831.14 1144.78 828.16 1149.10 L 823.21 1150.86 C 814.10 1159.16 810.33 1162.41 800.01 1168.95 C 789.63 1177.22 781.78 1181.57 770.25 1188.25 C 749.84 1201.96 740.38 1204.63 720.95 1215.50 C 711.44 1219.47 691.29 1228.68 682.13 1230.11 C 633.30 1252.23 504.20 1270.93 456.77 1257.46 C 413.23 1258.51 341.75 1236.29 302.25 1217.25 C 289.92 1211.88 276.60 1204.43 264.59 1198.08 C 237.70 1183.27 207.94 1164.41 185.87 1143.05 L 176.81 1136.72 Z" fill="#aca5db" fill-rule="nonzero" node-id="78" stroke="none" target-height="1271.6951" target-width="1052.8813" target-x="-19.3713" target-y="-0.765047"></path><path d="M 482.31 427.22 C 524.61 415.35 686.44 426.95 728.06 455.42 C 748.81 469.62 762.48 476.96 772.59 501.75 C 791.37 527.29 797.00 539.76 807.78 569.67 C 811.57 591.59 815.62 614.94 815.12 637.26 C 813.07 653.84 811.54 672.91 806.09 688.49 C 768.32 854.03 520.18 839.33 392.45 815.79 C 343.04 806.69 307.91 782.94 276.99 743.08 L 272.41 730.61 C 260.27 717.01 254.16 687.72 249.58 669.76 C 249.26 659.43 247.94 648.17 246.94 637.80 C 247.31 614.36 249.52 582.71 260.30 561.94 L 268.54 563.92 C 303.20 477.56 367.96 457.67 451.21 440.23 C 463.93 437.57 472.01 435.30 482.31 427.22 Z" fill="#1d1f30" fill-rule="nonzero" node-id="80" stroke="none" target-height="438.689" target-width="568.683" target-x="246.942" target-y="415.345"></path><path d="M 532.17 738.19 C 534.69 739.11 534.98 739.26 537.70 739.31 C 585.23 740.07 633.38 752.68 681.15 754.60 C 699.16 755.33 737.96 737.60 753.60 745.09 L 754.81 750.59 C 743.20 771.54 702.75 775.45 677.07 800.50 L 677.15 804.09 C 711.20 806.36 764.08 764.58 779.44 736.17 C 784.73 726.43 801.80 690.43 806.09 688.49 C 768.32 854.04 520.18 839.34 392.45 815.80 C 343.04 806.69 307.91 782.94 276.99 743.08 L 272.41 730.62 L 275.31 729.86 L 283.60 741.87 C 292.64 698.93 336.12 751.60 359.74 750.46 C 380.76 749.44 412.36 755.44 432.35 748.32 C 449.65 742.15 463.43 724.81 483.36 718.59 C 488.45 721.33 491.24 723.04 497.03 723.46 C 512.68 732.87 515.13 734.42 532.17 738.19 Z" fill="#0b0c18" fill-rule="nonzero" node-id="82" stroke="none" target-height="165.54803" target-width="533.681" target-x="272.41" target-y="688.488"></path><path d="M 786.08 542.66 C 782.49 554.26 784.94 552.07 776.62 559.00 C 750.50 561.52 723.03 505.39 716.12 483.82 L 717.68 480.99 C 721.92 482.84 725.13 484.99 729.45 484.04 C 722.79 478.68 721.47 477.73 716.81 470.63 C 754.47 492.95 763.61 504.61 786.08 542.66 Z" fill="#6a6f80" fill-rule="nonzero" node-id="84" stroke="none" target-height="90.89102" target-width="69.95001" target-x="716.125" target-y="470.629"></path><path d="M 716.81 470.63 C 702.98 457.74 677.60 457.01 666.98 446.31 L 666.85 443.63 C 700.40 444.67 747.89 479.20 772.59 501.76 C 791.37 527.30 797.00 539.76 807.78 569.68 C 806.46 574.03 806.59 573.73 803.30 576.87 C 796.87 572.22 791.66 552.23 786.08 542.67 C 763.61 504.62 754.47 492.95 716.81 470.63 Z" fill="#070a10" fill-rule="nonzero" node-id="86" stroke="none" target-height="133.23398" target-width="140.92603" target-x="666.85" target-y="443.631"></path><path d="M 497.03 723.46 C 496.45 713.48 494.82 713.29 499.30 705.50 C 513.76 708.54 530.59 733.40 549.42 717.58 C 558.76 709.74 561.61 708.16 573.49 705.20 L 578.10 706.95 C 579.68 714.18 579.28 715.07 576.10 721.80 C 560.37 736.06 552.84 735.36 532.16 738.19 C 515.13 734.42 512.68 732.87 497.03 723.46 Z" fill="#915cdb" fill-rule="nonzero" node-id="88" stroke="none" target-height="32.99597" target-width="84.85599" target-x="494.82004" target-y="705.197"></path><path d="M 391.40 575.09 C 399.43 574.60 407.46 574.42 415.13 577.39 C 428.24 582.47 437.57 594.37 442.75 607.08 C 451.37 628.18 451.23 656.81 442.28 677.75 C 435.88 692.74 426.87 698.86 412.15 704.74 C 405.23 705.08 398.22 705.06 391.50 703.18 C 378.86 699.64 368.99 689.65 363.09 678.25 C 352.84 658.48 353.32 631.32 360.30 610.61 C 366.35 592.58 374.65 583.57 391.40 575.09 Z" fill="#c69fef" fill-rule="nonzero" node-id="90" stroke="none" target-height="130.65503" target-width="98.52399" target-x="352.842" target-y="574.422"></path><path d="M 663.22 572.44 C 669.48 572.37 676.36 573.21 682.36 575.20 C 693.87 579.03 702.56 589.04 707.75 599.66 C 718.00 620.73 717.84 649.70 709.81 671.44 C 703.80 687.69 694.35 695.42 678.94 702.36 C 671.80 702.67 664.53 702.75 657.66 700.55 C 645.99 696.83 636.64 687.09 631.27 676.37 C 621.39 656.63 622.11 629.34 629.19 608.86 C 635.85 589.54 645.20 581.28 663.22 572.44 Z" fill="#c69fef" fill-rule="nonzero" node-id="92" stroke="none" target-height="130.37903" target-width="96.60199" target-x="621.394" target-y="572.37"></path><path d="M 270.43 952.01 C 298.22 933.46 277.70 917.33 296.80 897.98 C 317.37 941.49 376.04 924.48 410.78 943.02 C 430.74 953.66 443.94 952.80 462.88 957.92 C 497.93 957.26 524.03 966.64 558.61 967.73 L 571.93 965.06 L 573.70 967.26 C 569.51 971.95 566.11 975.94 561.35 980.15 L 561.22 982.84 C 559.82 1009.74 543.36 1011.80 543.70 1021.30 C 552.05 1022.21 556.63 1021.16 564.74 1019.90 C 573.83 1017.69 588.53 1018.10 598.27 1018.00 C 600.48 1009.06 599.85 1004.83 605.62 999.34 L 609.02 1004.31 L 614.28 1010.02 C 632.85 1010.21 696.19 987.69 713.28 978.27 C 718.21 985.37 716.26 984.99 722.76 986.93 C 742.75 1007.46 757.74 1029.11 769.11 1055.33 C 784.02 1089.64 807.20 1117.17 823.21 1150.86 C 814.10 1159.15 810.33 1162.40 800.01 1168.94 C 789.63 1177.21 781.78 1181.56 770.25 1188.24 C 749.84 1201.95 740.38 1204.63 720.95 1215.50 C 711.44 1219.47 691.29 1228.68 682.12 1230.11 C 633.30 1252.23 504.20 1270.93 456.77 1257.45 C 413.23 1258.51 341.75 1236.29 302.25 1217.24 C 289.92 1211.87 276.60 1204.42 264.59 1198.07 C 237.70 1183.26 207.94 1164.40 185.87 1143.04 C 203.70 1112.74 221.00 1067.71 241.99 1035.50 C 251.42 1021.02 270.96 1001.02 275.25 990.89 L 275.65 988.30 L 272.83 988.12 L 267.93 983.30 C 264.09 973.90 265.56 968.74 266.93 958.66 L 270.43 952.01 Z" fill="#6b67c3" fill-rule="nonzero" node-id="94" stroke="none" target-height="372.94806" target-width="637.342" target-x="185.868" target-y="897.982"></path><path d="M 713.28 978.27 C 718.21 985.37 716.26 985.00 722.76 986.94 C 742.75 1007.47 757.74 1029.12 769.12 1055.33 C 784.02 1089.64 807.20 1117.17 823.21 1150.86 C 814.10 1159.15 810.33 1162.40 800.01 1168.94 C 789.63 1177.21 781.78 1181.57 770.25 1188.24 C 749.84 1201.96 740.38 1204.63 720.95 1215.50 C 711.44 1219.47 691.29 1228.68 682.13 1230.11 C 666.77 1228.19 634.69 1244.06 610.86 1245.46 C 593.71 1236.40 608.88 1158.98 592.40 1134.09 L 584.84 1132.70 C 585.79 1130.95 590.79 1124.41 592.27 1122.43 C 597.14 1115.21 597.77 1090.00 600.22 1077.01 C 598.46 1059.79 600.25 1037.94 598.27 1018.00 C 600.48 1009.06 599.85 1004.84 605.62 999.34 L 609.02 1004.31 L 614.28 1010.03 C 632.85 1010.21 696.19 987.70 713.28 978.27 Z" fill="#7676c5" fill-rule="nonzero" node-id="96" stroke="none" target-height="267.19196" target-width="238.37097" target-x="584.839" target-y="978.268"></path><path d="M 708.96 1044.23 C 719.31 1053.18 741.22 1119.84 747.91 1136.67 C 752.58 1148.37 735.09 1168.77 749.15 1190.05 C 759.11 1194.39 760.08 1185.88 770.25 1188.24 C 749.84 1201.95 740.38 1204.63 720.95 1215.50 C 720.34 1201.25 713.02 1163.85 710.67 1147.66 C 704.51 1105.33 705.96 1085.45 708.96 1044.23 Z" fill="#201f59" fill-rule="nonzero" node-id="98" stroke="none" target-height="171.27002" target-width="65.73596" target-x="704.51105" target-y="1044.23"></path><path d="M 708.96 1044.23 L 709.81 1037.90 C 725.32 1038.14 758.74 1121.05 770.72 1134.80 L 774.86 1133.87 L 777.28 1129.21 C 788.00 1129.75 807.36 1146.21 811.07 1155.16 L 799.45 1163.22 C 799.43 1165.91 799.01 1166.86 800.01 1168.94 C 789.63 1177.21 781.78 1181.56 770.25 1188.24 C 760.08 1185.88 759.11 1194.39 749.15 1190.05 C 735.09 1168.77 752.58 1148.37 747.92 1136.67 C 741.22 1119.84 719.31 1053.18 708.96 1044.23 Z" fill="#5b61b9" fill-rule="nonzero" node-id="100" stroke="none" target-height="156.48999" target-width="102.10596" target-x="708.963" target-y="1037.9"></path><path d="M 598.27 1018.01 C 600.48 1009.07 599.85 1004.84 605.62 999.35 L 609.01 1004.32 C 603.72 1021.00 608.28 1065.94 600.22 1077.02 C 598.46 1059.79 600.25 1037.95 598.27 1018.01 Z" fill="#a9a8d2" fill-rule="nonzero" node-id="102" stroke="none" target-height="77.670105" target-width="10.744995" target-x="598.27" target-y="999.3499"></path><path d="M 275.65 988.30 C 283.02 983.77 281.68 982.81 287.74 984.21 C 308.38 1020.41 324.82 1031.45 312.20 1076.05 C 304.80 1102.21 292.08 1126.98 283.63 1153.01 C 280.97 1161.25 275.41 1191.70 273.62 1194.68 L 264.59 1198.07 C 237.70 1183.26 207.94 1164.41 185.87 1143.05 C 203.70 1112.74 221.00 1067.72 241.99 1035.51 C 251.42 1021.03 270.96 1001.02 275.25 990.90 L 275.65 988.30 Z" fill="#6766c4" fill-rule="nonzero" node-id="104" stroke="none" target-height="215.255" target-width="138.951" target-x="185.868" target-y="982.81494"></path><path d="M 270.44 952.01 C 298.22 933.46 277.70 917.33 296.80 897.98 C 317.37 941.49 376.04 924.48 410.78 943.02 C 430.75 953.66 443.94 952.80 462.88 957.92 C 497.93 957.26 524.03 966.64 558.61 967.73 L 571.93 965.06 L 573.70 967.26 C 569.51 971.95 566.11 975.94 561.35 980.15 C 546.34 995.43 538.70 1010.19 525.95 1024.38 C 515.15 1018.67 504.36 1013.47 494.85 1005.76 L 493.50 1002.44 C 478.94 994.80 410.23 987.58 392.77 982.01 C 359.79 971.52 289.24 937.07 272.83 988.12 L 267.93 983.30 C 264.09 973.90 265.56 968.74 266.93 958.66 L 270.44 952.01 Z" fill="#5b61b9" fill-rule="nonzero" node-id="106" stroke="none" target-height="126.39801" target-width="309.61096" target-x="264.088" target-y="897.982"></path><path d="M 452.44 959.52 C 493.77 968.94 515.86 975.53 558.61 967.74 L 571.93 965.07 L 573.70 967.27 C 569.51 971.95 566.11 975.95 561.35 980.16 C 546.34 995.44 538.70 1010.20 525.95 1024.38 C 515.15 1018.67 504.36 1013.47 494.85 1005.76 L 493.50 1002.44 C 483.31 983.62 468.85 972.52 452.44 959.52 Z" fill="#b6b5cf" fill-rule="nonzero" node-id="108" stroke="none" target-height="64.859985" target-width="121.25299" target-x="452.445" target-y="959.52"></path><path d="M 513.76 1051.68 C 528.56 1051.00 542.12 1050.47 557.00 1050.56 L 559.29 1053.89 C 565.17 1076.05 574.12 1092.60 579.68 1116.09 L 587.18 1117.19 L 592.27 1122.42 C 590.79 1124.41 585.79 1130.95 584.84 1132.70 L 582.07 1136.85 C 551.60 1170.95 519.97 1218.05 485.44 1245.84 C 494.29 1214.14 505.04 1182.84 515.42 1151.59 L 459.79 1150.99 C 466.69 1131.07 501.38 1070.23 513.76 1051.68 Z" fill="#eac78b" fill-rule="nonzero" node-id="110" stroke="none" target-height="195.37" target-width="132.47299" target-x="459.793" target-y="1050.47"></path><path d="M 559.29 1053.90 C 565.16 1076.05 574.12 1092.61 579.68 1116.10 L 537.25 1114.87 C 544.78 1094.61 552.13 1074.28 559.29 1053.90 Z" fill="#c69fef" fill-rule="nonzero" node-id="112" stroke="none" target-height="62.19995" target-width="42.427002" target-x="537.249" target-y="1053.9"></path><path d="M 272.83 988.12 C 289.24 937.07 359.80 971.52 392.77 982.02 C 410.23 987.59 478.94 994.81 493.50 1002.44 L 494.85 1005.76 L 498.67 1019.16 C 486.34 1027.99 463.27 1020.16 446.12 1019.96 C 444.07 1011.00 446.15 1000.13 438.54 992.57 C 434.83 997.50 436.01 997.05 435.35 1004.37 L 436.43 1008.19 L 438.38 1014.97 C 424.50 1025.67 332.54 1005.33 318.02 997.67 L 313.68 986.53 L 308.78 984.79 L 304.75 987.15 L 305.51 988.30 C 316.37 1004.87 313.28 1007.46 315.55 1025.95 C 316.52 1033.79 322.42 1043.83 323.42 1054.38 C 327.06 1093.36 317.24 1183.30 302.25 1217.25 C 289.92 1211.87 276.60 1204.43 264.59 1198.08 L 273.62 1194.68 C 275.41 1191.70 280.97 1161.25 283.63 1153.01 C 292.08 1126.98 304.80 1102.21 312.20 1076.05 C 324.82 1031.45 308.39 1020.41 287.74 984.21 C 281.68 982.82 283.02 983.77 275.65 988.30 L 272.83 988.12 Z" fill="#273b7d" fill-rule="nonzero" node-id="114" stroke="none" target-height="280.17603" target-width="234.078" target-x="264.588" target-y="937.074"></path><path d="M 436.43 1008.19 C 435.25 1008.99 431.19 1010.23 429.59 1010.78 C 413.84 1008.27 334.49 988.74 323.37 982.39 C 338.44 971.08 413.42 1000.02 435.35 1004.36 L 436.43 1008.19 Z" fill="#201f59" fill-rule="nonzero" node-id="116" stroke="none" target-height="39.70105" target-width="113.06201" target-x="323.371" target-y="971.0789"></path><path d="M 584.84 1132.71 L 592.40 1134.10 C 608.88 1158.98 593.71 1236.40 610.86 1245.46 C 634.69 1244.06 666.77 1228.19 682.13 1230.11 C 633.30 1252.23 504.20 1270.93 456.77 1257.46 C 481.02 1253.80 546.12 1258.75 566.67 1251.91 C 583.76 1236.14 578.54 1167.81 582.07 1136.85 L 584.84 1132.71 Z" fill="#5b61b9" fill-rule="nonzero" node-id="118" stroke="none" target-height="138.2201" target-width="225.36093" target-x="456.76505" target-y="1132.71"></path><path d="M 598.27 1018.00 C 600.25 1037.94 598.46 1059.79 600.22 1077.02 C 597.77 1090.00 597.14 1115.21 592.26 1122.43 L 587.18 1117.19 C 574.07 1089.59 589.84 1041.00 583.84 1024.24 C 576.60 1018.48 575.65 1020.34 564.74 1019.91 C 573.83 1017.69 588.52 1018.10 598.27 1018.00 Z" fill="#5b61b9" fill-rule="nonzero" node-id="120" stroke="none" target-height="104.74005" target-width="35.500977" target-x="564.744" target-y="1017.69"></path><path d="M 435.35 1004.37 C 436.01 997.05 434.83 997.50 438.54 992.57 C 446.15 1000.14 444.07 1011.00 446.12 1019.96 C 448.76 1048.72 452.21 1106.96 446.62 1134.36 C 442.86 1124.64 440.49 1035.24 438.38 1014.98 L 436.43 1008.19 L 435.35 1004.37 Z" fill="#c69fef" fill-rule="nonzero" node-id="122" stroke="none" target-height="141.79193" target-width="17.381073" target-x="434.82697" target-y="992.56805"></path><path d="M 255.05 350.95 C 400.01 212.16 620.76 218.05 764.82 355.78 C 775.49 366.97 782.20 373.97 788.47 388.36 L 804.77 411.85 C 810.23 410.39 817.26 407.29 822.66 405.14 C 824.89 414.52 828.42 417.32 832.95 425.35 C 845.75 448.08 844.78 472.31 867.90 487.67 C 870.17 499.78 871.75 497.62 867.09 506.70 L 856.95 508.65 L 856.79 512.96 C 866.27 536.75 866.66 561.35 868.43 586.81 C 868.85 613.71 869.77 643.63 867.75 670.24 C 863.79 663.65 862.19 652.88 860.45 645.03 C 859.95 660.12 859.74 675.06 857.66 690.02 C 849.49 698.58 853.34 704.95 848.07 716.31 C 821.63 681.31 822.66 675.87 815.12 637.26 C 815.62 614.94 811.57 591.58 807.78 569.67 C 797.00 539.75 791.37 527.29 772.59 501.75 C 762.48 476.96 748.81 469.61 728.06 455.42 C 686.45 426.95 524.61 415.34 482.31 427.22 C 472.01 435.29 463.93 437.56 451.21 440.23 C 367.96 457.66 303.20 477.56 268.54 563.92 L 260.30 561.93 C 249.52 582.71 247.31 614.36 246.94 637.80 C 247.94 648.17 249.26 659.43 249.58 669.76 C 231.51 672.65 221.37 640.83 201.06 649.46 L 198.69 661.16 C 194.93 647.70 194.80 634.08 194.03 620.13 C 192.08 579.12 192.95 547.62 176.44 509.60 C 180.63 495.35 183.87 483.55 189.77 469.78 L 182.89 471.70 C 177.97 483.75 172.20 499.88 164.67 510.05 L 165.38 511.97 C 155.00 513.28 150.60 515.08 144.26 506.81 C 143.07 497.87 147.07 489.99 150.29 481.19 C 159.22 447.40 172.75 423.91 188.95 393.94 C 198.75 375.84 216.71 350.29 218.89 331.19 C 220.32 329.36 224.19 326.80 226.24 325.27 L 237.86 336.80 L 240.99 337.88 L 241.97 340.83 L 255.05 350.95 Z" fill="#e7e7ef" fill-rule="nonzero" node-id="124" stroke="none" target-height="504.148" target-width="728.67596" target-x="143.072" target-y="212.159"></path><path d="M 255.05 350.95 C 400.01 212.16 620.76 218.05 764.82 355.78 C 775.49 366.97 782.20 373.97 788.47 388.36 C 776.70 382.74 768.32 373.05 758.24 364.86 C 742.22 352.00 725.45 340.11 708.04 329.25 C 621.00 276.13 492.42 270.39 395.85 297.97 C 340.96 313.63 268.80 356.13 232.77 400.65 C 219.05 417.57 200.64 449.91 189.77 469.78 L 182.89 471.70 C 177.97 483.75 172.20 499.88 164.67 510.05 L 165.38 511.97 C 155.00 513.28 150.60 515.08 144.26 506.81 C 143.07 497.87 147.07 489.99 150.29 481.19 C 159.22 447.40 172.75 423.91 188.95 393.94 C 198.75 375.84 216.71 350.29 218.89 331.19 C 220.32 329.36 224.19 326.80 226.24 325.27 L 237.86 336.80 L 240.99 337.88 L 241.97 340.83 L 255.05 350.95 Z" fill="#a9a8d2" fill-rule="nonzero" node-id="126" stroke="none" target-height="302.92297" target-width="645.39996" target-x="143.072" target-y="212.159"></path><path d="M 218.89 331.19 C 220.32 329.36 224.19 326.80 226.24 325.28 L 237.86 336.81 C 223.74 356.41 207.20 372.83 197.67 394.81 C 188.47 416.06 178.18 437.01 169.17 458.37 C 162.64 465.77 156.32 473.39 150.29 481.20 C 159.22 447.41 172.75 423.92 188.95 393.94 C 198.75 375.85 216.71 350.30 218.89 331.19 Z" fill="#cbcdd7" fill-rule="nonzero" node-id="128" stroke="none" target-height="155.92099" target-width="87.56801" target-x="150.288" target-y="325.277"></path><path d="M 241.97 340.83 L 255.05 350.96 C 239.88 366.88 221.42 391.55 206.62 404.56 L 202.78 403.39 C 198.40 380.07 240.38 363.98 241.97 340.83 Z" fill="#8a7eb5" fill-rule="nonzero" node-id="130" stroke="none" target-height="63.728973" target-width="56.649994" target-x="198.404" target-y="340.834"></path><path d="M 150.29 481.19 C 156.32 473.38 162.64 465.77 169.17 458.37 C 165.62 470.03 156.50 495.72 158.32 506.05 C 160.06 507.21 162.88 509.30 164.67 510.05 L 165.38 511.97 C 155.00 513.28 150.60 515.08 144.26 506.81 C 143.07 497.87 147.07 489.99 150.29 481.19 Z" fill="#c7cff3" fill-rule="nonzero" node-id="132" stroke="none" target-height="56.717987" target-width="26.098999" target-x="143.072" target-y="458.36502"></path><path d="M 260.30 561.94 C 292.71 467.73 391.16 432.52 482.31 427.22 C 472.01 435.30 463.93 437.57 451.21 440.23 C 367.96 457.67 303.20 477.57 268.54 563.93 L 260.30 561.94 Z" fill="#0b0c18" fill-rule="nonzero" node-id="134" stroke="none" target-height="136.70804" target-width="222.01599" target-x="260.295" target-y="427.22098"></path><path d="M 804.77 411.85 C 810.23 410.39 817.26 407.29 822.66 405.14 C 824.90 414.52 828.42 417.32 832.96 425.35 C 845.75 448.08 844.78 472.31 867.90 487.67 C 870.17 499.78 871.75 497.62 867.09 506.70 L 856.95 508.65 L 856.79 512.97 L 850.68 517.29 C 843.30 474.00 827.74 448.13 804.77 411.85 Z" fill="#a9a8d2" fill-rule="nonzero" node-id="136" stroke="none" target-height="112.14603" target-width="66.974" target-x="804.774" target-y="405.14096"></path><path d="M 856.79 512.97 C 866.27 536.75 866.66 561.35 868.43 586.82 C 868.85 613.72 869.77 643.64 867.75 670.24 C 863.79 663.66 862.19 652.88 860.45 645.04 C 855.58 595.99 862.22 576.53 850.68 517.29 L 856.79 512.97 Z" fill="#8a7eb5" fill-rule="nonzero" node-id="138" stroke="none" target-height="157.27399" target-width="19.093994" target-x="850.679" target-y="512.969"></path><path d="M 194.03 620.14 C 200.56 627.47 230.85 649.29 241.91 658.30 C 246.76 653.71 245.94 646.10 246.94 637.80 C 247.94 648.17 249.26 659.43 249.58 669.76 C 231.51 672.65 221.37 640.83 201.06 649.46 L 198.69 661.16 C 194.93 647.70 194.80 634.08 194.03 620.14 Z" fill="#b1b9d0" fill-rule="nonzero" node-id="140" stroke="none" target-height="52.511047" target-width="55.543" target-x="194.033" target-y="620.139"></path><path d="M 815.12 637.26 C 822.66 675.87 821.63 681.31 848.07 716.31 C 853.34 704.95 849.49 698.58 857.66 690.02 C 856.66 699.26 855.76 711.98 853.08 720.51 C 842.91 731.99 850.15 740.07 842.17 747.38 C 838.51 734.60 835.06 707.22 821.87 704.76 C 815.99 710.42 816.41 712.09 815.02 720.66 L 820.60 716.31 C 843.04 733.39 830.95 774.88 816.68 794.79 L 816.65 798.82 C 805.17 807.59 806.46 816.58 798.06 827.59 C 775.25 857.40 741.65 881.64 708.78 898.69 C 708.99 902.93 708.75 905.05 710.04 909.05 L 716.65 914.55 C 703.25 925.41 697.29 948.40 704.35 963.16 C 713.76 964.32 728.95 964.87 734.98 971.34 C 732.69 979.04 734.56 976.50 728.43 981.23 C 723.82 979.84 716.92 976.81 713.28 978.27 C 696.19 987.69 632.85 1010.21 614.28 1010.03 L 609.02 1004.31 L 605.62 999.34 C 599.85 1004.84 600.48 1009.06 598.27 1018.00 C 588.53 1018.10 573.83 1017.69 564.74 1019.90 C 556.63 1021.16 552.05 1022.21 543.70 1021.30 C 543.36 1011.80 559.82 1009.74 561.22 982.84 L 561.35 980.15 C 566.11 975.94 569.51 971.95 573.70 967.26 L 571.93 965.06 L 558.61 967.73 C 524.03 966.64 497.93 957.27 462.88 957.92 C 443.94 952.80 430.75 953.67 410.78 943.02 C 376.04 924.48 317.37 941.49 296.80 897.98 L 301.38 897.38 C 296.69 889.95 255.21 858.17 244.91 849.33 C 222.95 830.32 203.88 808.19 188.32 783.65 C 192.66 780.41 192.66 778.67 194.22 773.49 C 198.72 734.66 195.61 698.96 198.69 661.16 L 201.06 649.46 C 221.37 640.83 231.51 672.65 249.58 669.76 C 254.16 687.72 260.27 717.01 272.41 730.61 L 276.99 743.07 C 307.91 782.94 343.04 806.69 392.45 815.79 C 520.18 839.33 768.32 854.03 806.09 688.49 C 811.54 672.90 813.07 653.84 815.12 637.26 Z" fill="#8488ae" fill-rule="nonzero" node-id="142" stroke="none" target-height="384.95" target-width="669.34" target-x="188.31801" target-y="637.26"></path><path d="M 710.04 909.05 L 716.65 914.55 C 703.25 925.41 697.30 948.40 704.35 963.16 C 713.76 964.32 728.95 964.88 734.98 971.35 C 732.69 979.04 734.56 976.50 728.43 981.23 C 723.82 979.84 716.92 976.81 713.28 978.27 C 696.19 987.70 632.85 1010.21 614.28 1010.03 L 609.02 1004.31 L 605.62 999.34 C 599.85 1004.84 600.48 1009.06 598.27 1018.00 C 588.53 1018.10 573.83 1017.69 564.75 1019.90 C 556.63 1021.16 552.05 1022.21 543.70 1021.30 C 543.36 1011.80 559.82 1009.74 561.22 982.84 L 561.35 980.15 C 566.11 975.94 569.51 971.95 573.70 967.27 L 571.93 965.06 L 558.61 967.74 C 524.03 966.64 497.93 957.27 462.88 957.92 C 486.61 938.68 547.86 941.57 574.01 958.77 C 582.23 953.36 591.63 945.94 600.98 944.73 C 603.38 946.54 605.64 948.40 607.78 950.52 L 617.68 946.49 C 660.27 939.69 680.68 947.90 710.04 909.05 Z" fill="#4252a9" fill-rule="nonzero" node-id="144" stroke="none" target-height="113.15704" target-width="272.10797" target-x="462.875" target-y="909.053"></path><path d="M 815.12 637.26 C 822.66 675.87 821.63 681.31 848.07 716.31 C 853.34 704.95 849.49 698.58 857.66 690.02 C 856.66 699.26 855.76 711.98 853.08 720.51 C 842.91 731.99 850.15 740.07 842.17 747.38 C 838.51 734.60 835.06 707.22 821.87 704.76 C 815.99 710.42 816.41 712.09 815.02 720.66 C 808.54 750.03 771.72 784.30 746.62 800.36 C 716.57 819.59 681.02 827.63 646.65 833.41 C 587.13 843.44 524.11 846.62 464.35 840.96 C 396.11 834.50 320.50 820.94 274.89 764.84 C 273.41 763.02 273.04 760.30 272.65 758.13 C 274.49 754.90 275.57 753.06 277.10 749.62 L 274.96 745.53 L 276.99 743.07 C 307.91 782.94 343.05 806.69 392.45 815.79 C 520.18 839.33 768.32 854.03 806.09 688.49 C 811.54 672.90 813.07 653.84 815.12 637.26 Z" fill="#dbdbe7" fill-rule="nonzero" node-id="146" stroke="none" target-height="216.77301" target-width="585.011" target-x="272.647" target-y="637.26"></path><path d="M 301.38 897.38 C 315.00 898.49 382.55 921.84 406.07 925.67 C 492.53 939.71 588.26 938.09 672.59 912.94 C 680.89 910.47 694.06 909.25 700.96 906.50 C 689.21 927.04 645.94 927.11 617.68 946.49 L 607.78 950.52 C 605.64 948.40 603.38 946.54 600.98 944.73 C 591.63 945.94 582.23 953.37 574.01 958.77 C 547.86 941.58 486.61 938.68 462.88 957.92 C 443.94 952.80 430.75 953.67 410.78 943.02 C 376.04 924.49 317.37 941.49 296.80 897.99 L 301.38 897.38 Z" fill="#201f59" fill-rule="nonzero" node-id="148" stroke="none" target-height="61.390015" target-width="404.15897" target-x="296.798" target-y="897.385"></path><path d="M 218.90 331.19 C 216.71 350.30 198.75 375.85 188.95 393.94 C 172.75 423.92 159.22 447.41 150.29 481.20 C 147.07 489.99 143.07 497.88 144.26 506.82 C 150.60 515.09 155.00 513.29 165.38 511.97 L 164.67 510.06 C 172.20 499.89 177.97 483.75 182.89 471.71 L 189.77 469.79 C 183.87 483.55 180.63 495.36 176.44 509.60 C 192.95 547.63 192.08 579.12 194.03 620.14 C 194.80 634.09 194.93 647.71 198.69 661.17 C 195.61 698.96 198.72 734.67 194.22 773.50 C 192.66 778.67 192.66 780.41 188.32 783.66 L 184.18 778.87 C 168.01 781.49 156.69 788.45 144.10 775.75 C 136.88 765.80 137.67 779.98 116.23 763.65 C 115.81 753.59 116.23 736.18 111.57 728.18 C 107.04 711.40 112.34 679.85 112.15 658.84 L 112.47 650.18 C 109.57 627.65 115.97 563.88 87.29 563.55 L 83.58 562.83 C 95.72 539.14 102.75 529.32 125.22 516.04 C 133.99 508.06 137.99 490.61 141.04 479.21 C 156.11 422.87 182.34 376.94 218.90 331.19 Z" fill="#8a7eb5" fill-rule="nonzero" node-id="150" stroke="none" target-height="457.2591" target-width="135.3169" target-x="83.5781" target-y="331.193"></path><path d="M 218.89 331.19 C 216.71 350.30 198.75 375.85 188.95 393.94 C 172.75 423.92 159.22 447.41 150.29 481.20 C 147.07 489.99 143.07 497.88 144.26 506.82 C 150.60 515.09 155.00 513.29 165.38 511.97 C 178.52 523.95 189.63 595.88 179.97 610.41 C 145.41 611.10 148.34 541.42 138.07 520.33 L 136.01 521.56 C 134.09 530.58 134.49 531.77 137.25 540.62 C 130.32 534.55 128.19 524.91 125.22 516.04 C 133.99 508.06 137.99 490.61 141.04 479.21 C 156.11 422.87 182.34 376.94 218.89 331.19 Z" fill="#e5e5e9" fill-rule="nonzero" node-id="152" stroke="none" target-height="279.91003" target-width="93.678986" target-x="125.215" target-y="331.193"></path><path d="M 125.22 516.03 C 128.19 524.91 130.32 534.54 137.25 540.61 C 144.92 557.42 145.60 598.75 144.52 617.31 C 139.09 623.80 141.49 637.29 142.70 645.29 C 134.59 653.67 123.58 650.94 112.47 650.17 C 109.57 627.64 115.97 563.87 87.29 563.54 L 83.58 562.83 C 95.72 539.13 102.75 529.31 125.22 516.03 Z" fill="#dbdceb" fill-rule="nonzero" node-id="154" stroke="none" target-height="137.63605" target-width="62.021904" target-x="83.5781" target-y="516.035"></path><path d="M 144.52 617.32 C 149.50 625.34 148.18 643.93 148.29 654.42 C 148.81 668.65 148.21 702.96 149.47 714.00 L 151.84 728.04 C 150.81 742.54 150.42 763.00 144.10 775.75 C 136.88 765.79 137.67 779.98 116.23 763.65 C 115.81 753.59 116.23 736.18 111.57 728.18 C 107.04 711.40 112.34 679.84 112.15 658.83 L 112.47 650.18 C 123.58 650.95 134.59 653.68 142.70 645.29 C 141.49 637.29 139.09 623.81 144.52 617.32 Z" fill="#a6aacb" fill-rule="nonzero" node-id="156" stroke="none" target-height="162.65607" target-width="44.798004" target-x="107.04399" target-y="617.32"></path><path d="M 116.23 763.65 C 146.31 755.60 116.95 733.23 149.47 714.01 L 151.84 728.05 C 150.81 742.54 150.42 763.01 144.10 775.75 C 136.88 765.80 137.67 779.98 116.23 763.65 Z" fill="#7676c5" fill-rule="nonzero" node-id="158" stroke="none" target-height="65.97302" target-width="35.606995" target-x="116.235" target-y="714.006"></path><path d="M 148.29 654.42 C 149.16 639.26 149.76 633.47 154.76 618.64 C 163.27 616.57 170.36 625.02 185.13 629.46 C 193.51 657.28 183.58 696.00 183.18 720.49 C 174.28 718.89 158.27 721.71 151.84 728.04 L 149.47 714.00 C 148.21 702.96 148.81 668.65 148.29 654.42 Z" fill="#897fc9" fill-rule="nonzero" node-id="160" stroke="none" target-height="111.47302" target-width="45.298996" target-x="148.207" target-y="616.571"></path><path d="M 183.18 720.49 L 187.05 718.08 C 191.90 733.76 176.91 762.88 188.03 772.76 L 194.22 773.50 C 192.66 778.67 192.66 780.41 188.32 783.66 L 184.18 778.87 C 168.01 781.49 156.69 788.45 144.10 775.75 C 150.42 763.00 150.81 742.54 151.84 728.05 C 158.27 721.72 174.28 718.89 183.18 720.49 Z" fill="#4252a9" fill-rule="nonzero" node-id="162" stroke="none" target-height="70.37207" target-width="50.117996" target-x="144.099" target-y="718.08"></path><path d="M 226.24 325.28 C 233.96 320.37 250.02 303.59 258.14 296.51 C 368.67 200.27 548.41 188.83 677.73 247.85 C 686.15 257.68 694.79 262.26 705.64 268.86 L 704.77 270.71 L 693.58 268.85 C 730.72 291.81 749.89 305.64 779.28 338.36 L 778.44 340.28 L 772.77 346.79 L 764.82 355.79 C 620.76 218.06 400.01 212.16 255.05 350.96 L 241.97 340.83 L 240.99 337.88 L 237.86 336.80 L 226.24 325.28 Z" fill="#474a6c" fill-rule="nonzero" node-id="164" stroke="none" target-height="166.96298" target-width="553.03906" target-x="226.242" target-y="188.82501"></path><path d="M 226.24 325.28 C 233.96 320.37 250.02 303.59 258.14 296.51 C 368.67 200.27 548.41 188.83 677.73 247.85 C 686.15 257.68 694.79 262.26 705.64 268.86 L 704.77 270.71 L 693.58 268.85 C 583.52 219.12 489.71 211.16 372.99 250.89 C 339.59 262.25 260.93 310.57 240.99 337.88 L 237.86 336.80 L 226.24 325.28 Z" fill="#787b98" fill-rule="nonzero" node-id="166" stroke="none" target-height="149.05399" target-width="479.40198" target-x="226.242" target-y="188.82501"></path><path d="M 677.73 247.84 C 682.28 250.16 704.20 261.55 708.25 262.36 C 739.99 265.87 777.52 305.63 796.35 330.27 C 842.23 390.31 864.95 436.40 883.31 508.09 C 893.40 513.61 900.03 516.21 906.46 525.73 C 903.61 533.22 908.62 579.62 910.57 590.26 L 910.28 625.17 C 886.18 608.42 888.29 622.36 870.70 612.54 C 871.83 601.01 870.83 598.02 868.43 586.81 C 866.66 561.35 866.27 536.74 856.79 512.96 L 856.95 508.65 L 867.09 506.69 C 871.75 497.62 870.17 499.77 867.90 487.67 C 844.78 472.31 845.75 448.08 832.96 425.34 C 828.42 417.31 824.90 414.51 822.66 405.14 C 817.26 407.29 810.23 410.39 804.77 411.85 L 788.47 388.35 C 782.20 373.96 775.49 366.97 764.82 355.78 L 772.78 346.78 L 778.44 340.28 L 779.28 338.36 C 749.89 305.63 730.72 291.80 693.58 268.84 L 704.77 270.70 L 705.64 268.85 C 694.79 262.26 686.15 257.67 677.73 247.84 Z" fill="#e4e0f1" fill-rule="nonzero" node-id="168" stroke="none" target-height="377.33002" target-width="232.83997" target-x="677.728" target-y="247.842"></path><path d="M 778.44 340.28 C 782.55 365.49 809.49 365.97 822.87 384.00 C 843.36 411.62 857.13 454.99 867.90 487.67 C 844.78 472.31 845.75 448.08 832.96 425.35 C 828.42 417.32 824.90 414.52 822.66 405.14 C 817.26 407.29 810.23 410.39 804.77 411.85 L 788.47 388.36 C 782.20 373.97 775.49 366.97 764.82 355.79 L 772.78 346.78 L 778.44 340.28 Z" fill="#cbcdd7" fill-rule="nonzero" node-id="170" stroke="none" target-height="147.392" target-width="103.08099" target-x="764.822" target-y="340.279"></path><path d="M 764.82 355.78 L 772.78 346.78 C 779.57 365.89 830.45 383.62 822.66 405.14 C 817.26 407.29 810.23 410.39 804.77 411.85 L 788.47 388.36 C 782.20 373.97 775.49 366.97 764.82 355.78 Z" fill="#7676c5" fill-rule="nonzero" node-id="172" stroke="none" target-height="65.06998" target-width="65.63098" target-x="764.822" target-y="346.781"></path><path d="M 677.73 247.84 C 682.28 250.16 704.20 261.55 708.25 262.36 C 729.82 277.87 773.96 307.80 783.63 331.59 C 781.89 337.04 783.42 334.94 779.28 338.36 C 749.89 305.63 730.72 291.80 693.58 268.84 L 704.77 270.70 L 705.64 268.85 C 694.79 262.26 686.15 257.67 677.73 247.84 Z" fill="#8f98b3" fill-rule="nonzero" node-id="174" stroke="none" target-height="90.51399" target-width="105.89795" target-x="677.728" target-y="247.842"></path><path d="M 111.57 728.18 L 102.99 735.28 C 102.64 742.29 105.33 745.12 108.68 752.07 L 105.99 755.53 C 93.93 749.75 83.50 720.87 80.00 708.79 C 67.78 666.63 62.64 601.98 83.58 562.83 L 87.29 563.54 C 115.97 563.88 109.57 627.65 112.47 650.17 L 112.15 658.83 C 112.34 679.84 107.04 711.40 111.57 728.18 Z" fill="#a9a8d2" fill-rule="nonzero" node-id="176" stroke="none" target-height="192.69897" target-width="53.331505" target-x="62.640495" target-y="562.83"></path><path d="M 87.29 563.54 C 115.97 563.87 109.57 627.64 112.47 650.17 L 112.15 658.83 L 108.33 655.29 L 108.28 669.92 L 105.70 672.35 L 103.17 670.10 C 103.30 661.25 104.17 655.63 99.88 647.73 C 96.35 655.10 94.32 657.11 89.27 663.27 L 87.77 663.02 L 83.47 668.08 L 81.08 665.23 C 79.94 638.19 82.29 598.86 90.00 572.87 C 88.58 569.79 88.11 566.86 87.29 563.54 Z" fill="#c69fef" fill-rule="nonzero" node-id="178" stroke="none" target-height="108.80701" target-width="36.0288" target-x="79.9432" target-y="563.539"></path><path d="M 868.43 586.81 C 870.83 598.02 871.83 601.01 870.70 612.54 C 872.01 641.59 893.66 629.41 908.14 647.94 C 909.15 666.23 905.38 659.38 916.41 672.04 C 911.83 673.01 905.80 673.13 904.99 676.39 C 900.22 695.32 898.82 718.33 894.05 737.99 C 886.58 728.98 876.09 731.31 867.17 722.98 C 864.37 710.47 866.96 684.08 867.75 670.24 C 869.77 643.63 868.85 613.71 868.43 586.81 Z" fill="#9283c6" fill-rule="nonzero" node-id="180" stroke="none" target-height="151.17993" target-width="52.040955" target-x="864.374" target-y="586.812"></path><path d="M 870.69 612.54 C 888.29 622.36 886.18 608.42 910.28 625.17 C 913.20 638.69 916.68 640.69 928.21 648.13 C 929.37 648.87 930.53 649.60 931.69 650.32 C 929.42 658.52 931.11 661.94 933.51 669.91 L 937.64 673.31 L 941.78 671.25 C 940.91 695.77 936.61 686.10 927.03 703.44 C 921.08 726.52 920.31 731.59 903.09 747.22 C 899.74 750.20 896.85 753.38 892.71 754.86 L 894.05 737.99 C 898.82 718.33 900.22 695.32 904.98 676.39 C 905.80 673.13 911.83 673.01 916.41 672.05 C 905.38 659.38 909.14 666.23 908.14 647.94 C 893.66 629.41 872.01 641.59 870.69 612.54 Z" fill="#8f98b3" fill-rule="nonzero" node-id="182" stroke="none" target-height="146.44104" target-width="71.08209" target-x="870.6939" target-y="608.42"></path><path d="M 903.09 747.22 C 899.51 731.82 899.35 702.65 917.65 697.32 L 927.03 703.44 C 921.08 726.53 920.31 731.60 903.09 747.22 Z" fill="#787b98" fill-rule="nonzero" node-id="184" stroke="none" target-height="49.906006" target-width="27.680054" target-x="899.34796" target-y="697.316"></path><path d="M 906.46 525.74 C 946.28 569.10 943.01 615.48 941.78 671.25 L 937.64 673.31 L 933.51 669.91 C 931.11 661.94 929.42 658.52 931.69 650.32 C 930.53 649.60 929.37 648.87 928.21 648.13 C 916.68 640.69 913.20 638.69 910.28 625.18 L 910.57 590.26 C 908.62 579.62 903.61 533.22 906.46 525.74 Z" fill="#e8e7f0" fill-rule="nonzero" node-id="186" stroke="none" target-height="147.57104" target-width="42.6651" target-x="903.6149" target-y="525.738"></path><path d="M 910.57 590.26 C 912.04 614.59 913.99 618.22 930.61 635.96 C 931.95 642.68 932.32 643.61 931.69 650.32 C 930.53 649.60 929.37 648.87 928.21 648.13 C 916.68 640.69 913.20 638.69 910.28 625.18 L 910.57 590.26 Z" fill="#cbcdd7" fill-rule="nonzero" node-id="188" stroke="none" target-height="60.057007" target-width="22.044006" target-x="910.278" target-y="590.26"></path><path d="M 860.45 645.04 C 862.19 652.88 863.79 663.66 867.74 670.24 C 866.95 684.08 864.37 710.48 867.16 722.98 C 876.09 731.31 886.58 728.98 894.05 738.00 L 892.71 754.87 C 882.36 770.49 861.63 786.94 841.99 778.41 L 839.30 775.58 C 845.17 758.67 851.47 738.16 853.08 720.52 C 855.76 711.98 856.66 699.26 857.66 690.03 C 859.74 675.07 859.95 660.13 860.45 645.04 Z" fill="#575294" fill-rule="nonzero" node-id="190" stroke="none" target-height="141.89801" target-width="54.75299" target-x="839.301" target-y="645.039"></path><path d="M 722.76 986.94 C 757.29 979.39 818.97 1112.26 827.19 1141.69 C 827.66 1143.46 828.03 1147.12 828.16 1149.10 L 823.21 1150.86 C 807.20 1117.18 784.02 1089.64 769.11 1055.33 C 757.74 1029.12 742.75 1007.47 722.76 986.94 Z" fill="#c7cff3" fill-rule="nonzero" node-id="192" stroke="none" target-height="171.466" target-width="105.398926" target-x="722.7621" target-y="979.394"></path><path d="M 815.02 720.67 C 816.41 712.09 815.99 710.43 821.87 704.77 C 835.06 707.22 838.51 734.60 842.17 747.39 C 850.15 740.08 842.91 732.00 853.08 720.52 C 851.47 738.16 845.17 758.67 839.30 775.58 C 835.77 800.63 816.15 819.90 799.06 837.47 C 802.88 829.37 815.31 805.57 816.65 798.82 L 816.68 794.80 C 830.95 774.89 843.04 733.39 820.60 716.32 L 815.02 720.67 Z" fill="#b9b8c7" fill-rule="nonzero" node-id="194" stroke="none" target-height="132.6991" target-width="54.015015" target-x="799.06" target-y="704.7659"></path><path d="M 275.25 990.90 C 270.96 1001.03 251.42 1021.03 241.99 1035.51 C 221.00 1067.72 203.70 1112.75 185.87 1143.05 L 176.81 1136.72 C 191.58 1108.29 244.62 998.76 275.25 990.90 Z" fill="#a9a8d2" fill-rule="nonzero" node-id="196" stroke="none" target-height="152.14813" target-width="98.44499" target-x="176.809" target-y="990.9019"></path><path d="M 708.78 898.69 C 724.24 905.28 745.36 954.48 752.34 971.32 C 739.91 959.17 716.79 945.88 716.07 929.52 C 715.86 924.21 718.29 920.73 716.65 914.55 L 710.04 909.05 C 708.75 905.05 708.99 902.93 708.78 898.69 Z" fill="#a9a8d2" fill-rule="nonzero" node-id="198" stroke="none" target-height="72.630066" target-width="43.587036" target-x="708.752" target-y="898.691"></path><path d="M 266.93 958.67 C 263.88 959.52 263.85 959.13 260.53 958.95 L 259.45 953.36 C 262.59 942.64 273.09 926.21 281.65 919.06 C 284.34 929.95 275.96 941.52 270.43 952.02 L 266.93 958.67 Z" fill="#a9a8d2" fill-rule="nonzero" node-id="200" stroke="none" target-height="40.455994" target-width="24.888" target-x="259.452" target-y="919.064"></path></g></svg>