<?xml version="1.0" standalone="no"?><!DOCTYPE svg PUBLIC "-//W3C//DTD SVG 1.1//EN" "http://www.w3.org/Graphics/SVG/1.1/DTD/svg11.dtd"><svg height="1291" node-id="1" sillyvg="true" template-height="1291" template-width="1024" version="1.1" viewBox="0 0 1024 1291" width="1024" xmlns="http://www.w3.org/2000/svg" xmlns:xlink="http://www.w3.org/1999/xlink"><defs node-id="88"><clipPath id="clip0_30102_50641" node-id="85"><path d="M 0.00 0.00 L 1024.00 0.00 L 1024.00 1291.00 L 0.00 1291.00 Z" fill="#000000" fill-rule="nonzero" node-id="91" stroke="none" target-height="1291" target-width="1024" target-x="0" target-y="0"></path></clipPath></defs><g clip-path="url(#clip0_30102_50641)" id="sillyvg_g_0" node-id="95"><path d="M 174.93 1161.25 C 69.51 1061.72 5.17 926.50 0.93 780.80 C -0.69 725.43 0.48 669.69 0.37 614.29 C 0.27 565.45 -1.44 515.98 3.47 467.34 C 15.66 350.00 66.46 240.02 147.88 154.67 C 238.89 59.00 364.17 3.42 496.15 0.13 C 630.85 -2.78 758.08 42.48 856.04 136.28 C 961.65 237.63 1021.97 377.29 1023.35 523.68 C 1024.26 571.75 1023.52 619.93 1023.65 668.01 C 1023.77 714.25 1025.25 760.95 1021.03 807.03 C 1010.39 932.59 957.15 1050.73 870.14 1141.85 C 853.99 1158.63 836.22 1173.55 818.46 1188.58 L 805.70 1198.10 L 797.59 1204.91 C 779.15 1215.80 760.29 1228.98 740.73 1237.51 L 725.24 1245.70 C 599.18 1300.09 478.32 1304.04 346.98 1265.37 L 320.82 1254.71 C 301.82 1245.86 283.23 1236.88 265.10 1226.33 C 247.73 1221.63 220.03 1200.24 206.97 1187.62 C 195.84 1179.46 185.47 1170.13 174.93 1161.25 Z" fill="#d59dbc" fill-rule="nonzero" node-id="97" stroke="none" target-height="1306.821" target-width="1026.688" target-x="-1.43797" target-y="-2.78101"></path><path d="M 278.26 618.52 C 292.35 597.71 301.51 577.10 321.66 560.09 C 399.87 494.10 549.76 485.33 647.10 496.32 L 659.98 499.40 L 653.22 502.83 C 658.49 512.31 686.34 515.40 697.94 520.81 C 743.95 534.06 771.84 556.39 797.64 596.45 C 812.65 613.02 808.44 629.00 816.74 646.14 C 819.11 646.17 818.88 646.59 820.80 644.54 C 823.18 642.00 824.44 638.05 826.65 635.26 C 839.95 693.24 838.69 741.72 813.49 796.37 C 782.10 848.16 736.32 874.36 678.91 888.49 C 594.42 909.29 424.82 921.05 347.35 874.70 C 331.09 864.97 316.10 852.64 302.24 839.79 C 291.94 824.62 282.53 809.76 275.24 792.88 C 250.56 735.76 255.87 675.14 278.26 618.52 Z" fill="#15161e" fill-rule="nonzero" node-id="99" stroke="none" target-height="435.718" target-width="589.38" target-x="250.565" target-y="485.332"></path><path d="M 697.94 520.81 C 743.95 534.05 771.84 556.38 797.64 596.45 L 795.11 601.15 C 789.18 600.12 784.82 611.72 776.74 611.67 C 748.68 611.50 691.30 553.23 688.54 529.27 L 691.63 527.86 L 703.62 532.58 L 706.17 529.92 C 701.32 524.18 698.36 523.97 691.20 521.93 L 697.94 520.81 Z" fill="#53535a" fill-rule="nonzero" node-id="101" stroke="none" target-height="90.90399" target-width="109.10596" target-x="688.5361" target-y="520.812"></path><path d="M 386.96 643.24 C 402.21 643.03 420.51 644.05 435.78 645.48 C 448.70 646.69 459.42 654.54 467.17 664.57 C 481.54 683.21 486.73 711.53 483.75 734.50 C 480.81 757.05 470.68 776.98 452.75 791.02 C 430.83 800.61 412.14 798.07 389.22 795.20 C 370.48 774.08 358.93 747.36 359.86 718.92 C 360.73 692.12 366.97 661.88 386.96 643.24 Z" fill="#452135" fill-rule="nonzero" node-id="103" stroke="none" target-height="157.58704" target-width="127.80206" target-x="358.93198" target-y="643.027"></path><path d="M 409.21 649.78 C 415.60 649.62 421.95 649.48 428.17 651.25 C 442.11 655.23 452.49 665.91 458.98 678.54 C 469.60 699.21 470.74 727.24 463.61 749.16 C 458.04 766.27 448.69 774.38 432.96 782.21 C 424.91 782.58 416.80 783.06 409.00 780.59 C 396.09 776.51 385.70 765.57 379.99 753.54 C 370.07 732.66 369.85 704.21 377.52 682.62 C 383.70 665.25 392.90 657.51 409.21 649.78 Z" fill="#e59ab9" fill-rule="nonzero" node-id="105" stroke="none" target-height="133.58002" target-width="100.89203" target-x="369.848" target-y="649.479"></path><path d="M 665.21 629.58 C 674.04 627.86 683.90 626.93 692.86 627.89 C 708.98 629.62 723.01 638.17 733.09 650.76 C 747.33 668.55 755.19 694.15 752.32 716.85 C 749.11 742.33 734.08 768.55 713.66 783.96 C 704.86 785.73 696.15 787.47 687.15 786.41 C 671.40 784.58 657.09 775.57 647.37 763.24 C 633.62 745.79 628.23 723.03 630.88 701.15 C 633.85 676.62 645.39 645.15 665.21 629.58 Z" fill="#452135" fill-rule="nonzero" node-id="107" stroke="none" target-height="160.53705" target-width="126.95691" target-x="628.231" target-y="626.928"></path><path d="M 681.86 636.66 C 688.64 636.58 696.63 637.57 703.00 640.11 C 714.74 644.79 723.13 655.55 728.32 666.72 C 738.27 688.14 738.22 717.33 729.65 739.16 C 723.31 755.34 714.51 763.11 698.94 770.07 C 692.13 770.10 685.23 770.06 678.65 768.00 C 666.20 764.11 656.96 753.60 651.33 742.22 C 641.09 721.55 641.00 693.16 648.63 671.66 C 655.10 653.44 664.77 644.77 681.86 636.66 Z" fill="#e59ab9" fill-rule="nonzero" node-id="109" stroke="none" target-height="133.518" target-width="97.26697" target-x="640.999" target-y="636.584"></path><path d="M 519.82 809.24 C 517.21 798.98 513.88 788.97 515.55 778.31 C 517.75 774.61 518.86 770.92 523.29 769.56 C 537.26 765.25 557.13 773.34 571.99 771.84 C 581.51 770.88 589.25 765.21 598.63 767.20 C 603.71 774.28 603.84 779.34 602.46 787.98 C 601.21 795.81 599.69 803.67 596.93 811.12 C 592.82 818.52 588.02 825.85 580.94 830.70 C 572.64 836.38 562.42 838.96 552.49 836.64 C 536.96 833.01 528.05 822.06 519.82 809.24 Z" fill="#ab4d75" fill-rule="nonzero" node-id="111" stroke="none" target-height="73.745056" target-width="89.958984" target-x="513.878" target-y="765.213"></path><path d="M 519.82 809.24 C 534.80 799.08 555.95 793.41 573.95 796.75 C 583.89 798.60 590.06 804.30 596.93 811.13 C 592.82 818.52 588.02 825.86 580.94 830.70 C 572.64 836.38 562.42 838.96 552.49 836.64 C 536.96 833.02 528.05 822.07 519.82 809.24 Z" fill="#cd83a5" fill-rule="nonzero" node-id="113" stroke="none" target-height="45.554993" target-width="77.11304" target-x="519.821" target-y="793.406"></path><path d="M 424.89 523.61 L 425.05 526.29 C 386.27 536.14 403.65 545.55 380.08 559.39 C 366.36 567.46 348.41 568.47 334.35 575.97 C 326.85 579.97 323.42 593.18 320.79 600.67 C 299.93 613.97 293.00 618.67 283.93 643.12 L 283.36 644.73 C 281.67 635.19 286.95 626.60 291.32 618.41 C 321.35 562.18 366.61 541.45 424.89 523.61 Z" fill="#464c5d" fill-rule="nonzero" node-id="115" stroke="none" target-height="121.11902" target-width="143.38602" target-x="281.667" target-y="523.607"></path><path d="M 418.73 339.29 C 431.67 339.75 452.86 335.40 466.78 334.02 C 509.53 329.75 549.92 327.31 592.17 336.22 C 607.89 346.03 624.89 350.13 643.01 353.26 C 672.56 360.77 694.54 372.33 721.64 386.22 C 730.02 394.31 749.74 403.94 760.68 409.86 C 805.10 440.82 858.42 509.30 868.13 562.00 L 871.70 574.72 C 876.14 595.28 879.54 615.84 882.62 636.65 C 883.55 654.43 883.36 673.47 886.42 690.94 C 885.88 710.80 885.92 730.92 884.20 750.70 L 880.74 776.41 C 876.98 791.82 873.11 806.95 867.95 821.98 C 862.86 834.75 857.55 846.04 849.86 857.45 C 843.31 874.19 807.08 902.28 793.02 916.21 C 760.98 944.07 729.14 961.71 689.82 977.71 C 676.52 983.12 658.42 987.24 647.02 995.79 C 634.00 997.39 618.79 997.75 606.38 1001.83 C 605.36 1006.35 605.48 1011.03 601.79 1013.97 C 572.18 1017.87 541.33 1023.51 511.47 1023.31 C 500.07 1027.25 487.62 1031.26 477.16 1037.29 L 465.86 1031.80 L 463.63 1030.37 C 453.14 1024.63 442.64 1018.09 430.90 1015.37 L 426.17 1003.73 C 414.20 999.24 401.34 997.68 388.65 999.18 C 353.35 979.24 313.29 978.97 279.31 952.79 L 279.94 949.31 C 277.31 947.55 251.63 912.09 249.94 907.71 C 248.37 903.65 249.22 903.25 250.94 899.24 C 268.60 889.15 301.65 899.57 322.59 898.82 C 332.54 898.46 342.79 895.36 352.90 894.44 C 333.70 885.13 311.31 874.81 300.28 855.65 L 303.02 858.25 C 302.54 854.07 302.44 849.23 300.60 845.41 C 300.37 844.92 300.04 844.48 299.75 844.02 L 302.24 839.79 C 316.10 852.64 331.09 864.97 347.35 874.70 C 424.82 921.05 594.42 909.28 678.91 888.49 C 736.32 874.36 782.10 848.16 813.49 796.37 C 838.70 741.71 839.95 693.24 826.65 635.26 C 824.44 638.05 823.18 642.00 820.80 644.53 C 818.88 646.59 819.11 646.17 816.74 646.13 C 808.44 628.99 812.65 613.02 797.64 596.45 C 771.84 556.38 743.95 534.05 697.94 520.81 C 686.34 515.39 658.49 512.31 653.22 502.82 L 659.98 499.40 L 647.10 496.31 C 549.76 485.33 399.87 494.10 321.66 560.09 C 301.51 577.09 292.35 597.71 278.26 618.52 C 269.92 622.23 265.23 624.55 261.96 633.67 C 258.74 642.67 253.39 699.57 254.86 709.53 L 252.90 712.02 C 230.65 711.16 211.33 723.98 190.65 721.64 C 187.09 711.34 191.14 677.94 182.31 674.18 C 182.09 674.08 181.83 674.09 181.60 674.05 C 177.72 648.25 174.40 624.53 162.34 600.96 C 171.46 595.11 173.92 586.63 170.43 576.44 L 166.74 577.59 L 160.71 590.06 L 158.42 589.71 C 154.09 560.62 187.37 524.42 185.10 503.18 C 190.90 484.60 237.14 428.60 256.63 423.11 L 258.58 426.13 C 269.00 426.92 289.60 406.89 297.86 399.57 C 321.88 383.89 345.58 373.83 371.44 361.64 L 375.69 361.11 L 401.00 351.96 C 409.80 346.24 406.96 342.64 418.73 339.29 Z" fill="#e9e9ee" fill-rule="nonzero" node-id="117" stroke="none" target-height="709.98303" target-width="732.337" target-x="154.085" target-y="327.307"></path><path d="M 352.90 894.45 C 466.33 936.23 633.72 929.29 744.92 883.01 C 759.79 883.91 778.00 887.61 787.75 900.16 C 791.18 904.58 792.24 910.80 793.02 916.21 C 760.98 944.07 729.14 961.71 689.82 977.71 C 676.52 983.12 658.42 987.25 647.02 995.79 C 634.00 997.40 618.79 997.75 606.38 1001.83 C 605.36 1006.35 605.47 1011.03 601.79 1013.97 C 572.18 1017.88 541.33 1023.51 511.47 1023.32 C 500.07 1027.25 487.62 1031.27 477.16 1037.30 L 465.86 1031.81 L 463.63 1030.38 C 453.14 1024.63 442.64 1018.09 430.90 1015.38 L 426.17 1003.73 C 414.20 999.25 401.34 997.69 388.65 999.18 C 353.35 979.24 313.29 978.98 279.31 952.79 L 279.94 949.32 C 277.31 947.56 251.63 912.09 249.94 907.71 C 248.37 903.65 249.22 903.26 250.94 899.25 C 268.60 889.16 301.65 899.57 322.59 898.82 C 332.54 898.47 342.79 895.36 352.90 894.45 Z" fill="#89829f" fill-rule="nonzero" node-id="119" stroke="none" target-height="154.294" target-width="544.65295" target-x="248.36801" target-y="883.00604"></path><path d="M 426.17 1003.74 C 485.26 1011.47 547.34 1008.71 606.38 1001.83 C 605.36 1006.35 605.47 1011.04 601.79 1013.97 C 572.18 1017.88 541.33 1023.51 511.47 1023.32 C 500.07 1027.25 487.62 1031.27 477.16 1037.30 L 465.86 1031.81 L 463.63 1030.38 C 453.14 1024.63 442.64 1018.09 430.90 1015.38 L 426.17 1003.74 Z" fill="#464361" fill-rule="nonzero" node-id="121" stroke="none" target-height="35.47003" target-width="180.20401" target-x="426.171" target-y="1001.83"></path><path d="M 463.62 1030.38 C 463.80 1029.63 464.47 1026.86 464.50 1026.18 C 464.54 1025.35 464.36 1024.53 464.29 1023.71 C 465.27 1022.90 466.76 1021.54 468.00 1020.91 C 480.21 1014.67 508.09 1015.59 521.55 1018.94 L 511.47 1023.31 C 500.07 1027.25 487.62 1031.27 477.16 1037.30 L 465.86 1031.80 L 463.62 1030.38 Z" fill="#474a6c" fill-rule="nonzero" node-id="123" stroke="none" target-height="22.630066" target-width="57.927002" target-x="463.625" target-y="1014.67"></path><path d="M 647.10 496.32 C 661.90 488.33 687.47 494.14 703.27 498.60 C 803.74 526.88 854.74 611.67 856.06 711.97 C 856.22 724.23 861.70 741.21 850.59 749.00 C 846.75 742.66 846.57 738.32 845.31 731.06 C 835.40 750.05 832.78 783.10 813.49 796.38 C 838.70 741.72 839.95 693.24 826.65 635.26 C 824.44 638.05 823.18 642.00 820.80 644.54 C 818.88 646.59 819.11 646.17 816.74 646.14 C 808.44 629.00 812.65 613.02 797.64 596.45 C 771.84 556.39 743.95 534.06 697.94 520.82 C 686.34 515.40 658.49 512.31 653.22 502.83 L 659.98 499.41 L 647.10 496.32 Z" fill="#b9b8c7" fill-rule="nonzero" node-id="125" stroke="none" target-height="308.04907" target-width="214.6001" target-x="647.102" target-y="488.326"></path><path d="M 659.98 499.40 C 742.74 520.85 797.03 547.21 826.65 635.25 C 824.44 638.05 823.18 641.99 820.80 644.53 C 818.88 646.58 819.11 646.16 816.74 646.13 C 808.44 628.99 812.65 613.02 797.64 596.45 C 771.84 556.38 743.95 534.05 697.94 520.81 C 686.34 515.39 658.49 512.30 653.22 502.82 L 659.98 499.40 Z" fill="#070a10" fill-rule="nonzero" node-id="127" stroke="none" target-height="147.18396" target-width="173.42902" target-x="653.22" target-y="499.398"></path><path d="M 744.92 883.00 C 755.46 877.39 766.36 871.67 775.98 864.56 C 797.14 848.92 831.15 817.46 835.20 790.21 C 835.98 784.97 837.33 779.87 838.53 774.72 C 843.73 770.86 844.35 770.54 850.80 770.38 L 854.99 775.45 C 859.75 792.56 859.12 831.38 851.34 847.81 C 850.08 850.47 848.87 852.29 849.40 855.33 C 849.52 856.04 849.70 856.75 849.86 857.45 C 843.31 874.19 807.08 902.28 793.02 916.21 C 792.24 910.80 791.18 904.57 787.75 900.16 C 778.00 887.61 759.79 883.91 744.92 883.00 Z" fill="#a8a5b6" fill-rule="nonzero" node-id="129" stroke="none" target-height="145.823" target-width="114.82703" target-x="744.92004" target-y="770.383"></path><path d="M 647.02 995.78 C 655.77 998.88 663.84 1001.69 671.55 1006.99 L 674.00 1012.70 C 658.94 1044.53 640.78 1012.04 643.64 1078.02 L 638.88 1108.24 C 654.41 1108.29 680.54 1105.13 692.17 1116.43 L 693.44 1121.49 L 695.11 1121.60 C 688.37 1125.47 685.61 1128.83 681.96 1135.64 C 688.71 1139.73 694.68 1143.49 702.53 1145.16 L 707.90 1146.59 C 711.24 1156.29 711.45 1166.26 712.78 1176.36 C 728.55 1190.67 735.54 1217.26 740.73 1237.51 L 725.24 1245.70 C 599.18 1300.09 478.32 1304.04 346.98 1265.37 L 320.83 1254.71 C 324.99 1239.23 328.75 1222.88 329.90 1206.84 L 328.53 1203.66 C 330.50 1189.32 342.95 1171.46 348.53 1157.57 L 338.35 1161.94 C 350.11 1135.75 350.85 1113.96 350.82 1085.71 C 347.62 1082.44 345.15 1079.21 343.11 1075.10 C 336.23 1061.27 330.49 1049.41 335.74 1034.24 C 339.83 1031.94 343.60 1028.95 347.42 1026.20 C 353.95 1023.99 358.80 1021.27 364.39 1017.25 C 364.61 1015.59 364.49 1015.72 365.33 1013.93 C 368.47 1007.26 377.40 1005.25 383.79 1003.11 L 388.65 999.17 C 401.34 997.68 414.20 999.24 426.17 1003.73 L 430.90 1015.37 C 442.64 1018.09 453.14 1024.63 463.63 1030.37 L 465.86 1031.80 L 477.16 1037.29 C 487.62 1031.26 500.07 1027.25 511.47 1023.31 C 541.33 1023.51 572.18 1017.87 601.79 1013.97 C 605.48 1011.03 605.36 1006.35 606.38 1001.83 C 618.79 997.74 634.00 997.39 647.02 995.78 Z" fill="#cb729b" fill-rule="nonzero" node-id="131" stroke="none" target-height="308.25507" target-width="419.90802" target-x="320.826" target-y="995.785"></path><path d="M 647.02 995.78 C 655.77 998.88 663.84 1001.69 671.55 1006.99 L 674.00 1012.70 C 658.94 1044.53 640.78 1012.04 643.64 1078.02 L 638.88 1108.24 C 654.41 1108.29 680.54 1105.13 692.17 1116.43 L 693.44 1121.49 L 695.11 1121.60 C 688.37 1125.47 685.61 1128.83 681.96 1135.64 L 679.57 1137.26 C 672.72 1136.07 665.89 1133.58 659.50 1137.69 C 656.84 1139.38 654.47 1142.22 652.33 1144.52 C 650.02 1148.18 648.68 1150.25 644.95 1152.64 L 639.03 1140.95 L 645.18 1136.39 C 641.89 1127.27 637.92 1127.77 637.41 1116.77 L 632.72 1109.30 C 632.01 1116.88 632.45 1124.96 626.91 1130.69 C 597.10 1140.92 493.25 1140.60 460.05 1135.70 C 458.50 1133.89 456.98 1132.54 456.20 1130.29 C 455.08 1123.66 453.30 1117.70 451.05 1111.36 L 450.37 1107.52 C 453.47 1091.96 447.22 1077.86 442.93 1063.07 C 440.23 1053.75 438.91 1046.78 443.85 1037.84 C 450.49 1032.91 457.93 1032.69 465.86 1031.80 L 477.16 1037.29 C 487.62 1031.26 500.07 1027.25 511.47 1023.31 C 541.33 1023.51 572.18 1017.87 601.79 1013.97 C 605.47 1011.03 605.36 1006.35 606.38 1001.83 C 618.79 997.74 634.00 997.39 647.02 995.78 Z" fill="#9e7e99" fill-rule="nonzero" node-id="133" stroke="none" target-height="156.85504" target-width="256.193" target-x="438.914" target-y="995.785"></path><path d="M 456.20 1130.29 C 455.96 1127.80 455.76 1125.31 455.59 1122.79 C 454.68 1109.48 455.00 1093.60 465.03 1083.37 C 475.41 1072.80 493.03 1074.52 506.55 1075.18 C 518.18 1075.74 531.18 1077.52 542.69 1075.66 C 579.58 1069.77 587.44 1055.91 633.49 1056.60 C 634.13 1074.33 633.90 1091.59 632.72 1109.30 C 632.01 1116.88 632.45 1124.96 626.91 1130.69 C 597.10 1140.92 493.25 1140.60 460.05 1135.70 C 458.50 1133.90 456.98 1132.54 456.20 1130.29 Z" fill="#cbcdd7" fill-rule="nonzero" node-id="135" stroke="none" target-height="85.01001" target-width="179.45398" target-x="454.68" target-y="1055.91"></path><path d="M 511.47 1023.31 C 541.33 1023.50 572.18 1017.87 601.79 1013.97 C 598.55 1018.55 595.38 1023.11 592.42 1027.87 L 598.08 1030.03 C 574.79 1049.19 543.57 1048.41 514.95 1045.63 C 501.82 1044.35 489.55 1041.93 477.16 1037.29 C 487.62 1031.26 500.07 1027.25 511.47 1023.31 Z" fill="#616075" fill-rule="nonzero" node-id="137" stroke="none" target-height="35.21997" target-width="124.62302" target-x="477.163" target-y="1013.97"></path><path d="M 637.41 1116.78 C 654.94 1119.93 675.67 1122.47 693.44 1121.49 L 695.11 1121.60 C 688.37 1125.47 685.61 1128.84 681.96 1135.65 L 679.57 1137.27 C 672.72 1136.07 665.89 1133.58 659.50 1137.69 C 656.84 1139.39 654.47 1142.22 652.33 1144.53 C 650.02 1148.19 648.68 1150.25 644.95 1152.64 L 639.03 1140.95 L 645.17 1136.39 C 641.89 1127.27 637.92 1127.78 637.41 1116.78 Z" fill="#cf9f96" fill-rule="nonzero" node-id="139" stroke="none" target-height="35.859985" target-width="57.70099" target-x="637.406" target-y="1116.78"></path><path d="M 388.65 999.17 C 401.34 997.68 414.20 999.24 426.17 1003.73 L 430.90 1015.37 C 442.64 1018.08 453.14 1024.63 463.62 1030.37 L 465.86 1031.80 C 457.93 1032.69 450.49 1032.91 443.85 1037.84 C 438.91 1046.78 440.23 1053.75 442.93 1063.07 C 447.22 1077.86 453.47 1091.96 450.37 1107.52 L 451.05 1111.36 C 436.67 1121.94 413.79 1112.58 401.19 1123.40 C 396.81 1127.13 397.49 1132.28 395.15 1136.81 L 385.39 1124.01 C 383.12 1103.81 379.21 1083.69 375.79 1063.62 C 362.13 1053.45 355.24 1040.92 347.42 1026.20 C 353.95 1023.99 358.80 1021.27 364.39 1017.25 C 364.61 1015.59 364.49 1015.72 365.33 1013.93 C 368.47 1007.26 377.40 1005.25 383.79 1003.10 L 388.65 999.17 Z" fill="#ba6f96" fill-rule="nonzero" node-id="141" stroke="none" target-height="139.13104" target-width="118.44098" target-x="347.41602" target-y="997.679"></path><path d="M 388.65 999.17 C 401.34 997.68 414.20 999.24 426.17 1003.73 L 430.90 1015.37 L 434.24 1034.26 C 433.99 1034.16 433.76 1034.02 433.50 1033.95 C 419.90 1030.32 406.76 1026.20 394.49 1019.07 C 386.85 1014.62 386.04 1011.11 383.79 1003.10 L 388.65 999.17 Z" fill="#652949" fill-rule="nonzero" node-id="143" stroke="none" target-height="36.580994" target-width="50.447998" target-x="383.792" target-y="997.679"></path><path d="M 364.39 1017.25 C 370.69 1032.31 373.06 1047.65 375.79 1063.63 C 362.13 1053.46 355.24 1040.92 347.42 1026.20 C 353.95 1024.00 358.80 1021.27 364.39 1017.25 Z" fill="#787b98" fill-rule="nonzero" node-id="145" stroke="none" target-height="46.379944" target-width="28.37799" target-x="347.41602" target-y="1017.25006"></path><path d="M 385.39 1124.01 C 402.38 1107.78 428.19 1108.31 450.37 1107.52 L 451.05 1111.36 C 436.67 1121.94 413.80 1112.58 401.19 1123.40 C 396.81 1127.13 397.49 1132.28 395.15 1136.81 L 385.39 1124.01 Z" fill="#ab4d75" fill-rule="nonzero" node-id="147" stroke="none" target-height="29.29004" target-width="65.663025" target-x="385.387" target-y="1107.52"></path><path d="M 335.74 1034.24 C 339.83 1031.94 343.60 1028.95 347.42 1026.20 C 355.24 1040.92 362.13 1053.46 375.80 1063.62 C 379.21 1083.69 383.12 1103.81 385.39 1124.01 L 395.15 1136.81 L 401.87 1139.78 L 402.08 1143.14 C 392.53 1147.04 387.54 1147.31 383.16 1157.30 C 368.33 1191.15 359.93 1230.35 346.98 1265.37 L 320.83 1254.71 C 324.99 1239.23 328.75 1222.88 329.90 1206.84 L 328.53 1203.66 C 330.50 1189.32 342.95 1171.45 348.53 1157.56 L 338.35 1161.94 C 350.11 1135.75 350.85 1113.96 350.82 1085.70 C 347.62 1082.44 345.15 1079.21 343.11 1075.10 C 336.23 1061.26 330.49 1049.41 335.74 1034.24 Z" fill="#a4a1ba" fill-rule="nonzero" node-id="149" stroke="none" target-height="239.17004" target-width="81.259" target-x="320.826" target-y="1026.2"></path><path d="M 350.82 1085.70 C 349.14 1075.37 340.99 1054.36 343.33 1045.64 C 360.21 1064.13 362.10 1095.88 361.07 1120.00 C 360.60 1131.22 360.69 1149.98 354.65 1159.29 L 348.53 1157.56 L 338.35 1161.94 C 350.11 1135.75 350.85 1113.96 350.82 1085.70 Z" fill="#787b98" fill-rule="nonzero" node-id="151" stroke="none" target-height="116.29993" target-width="23.751984" target-x="338.351" target-y="1045.64"></path><path d="M 348.53 1157.57 L 354.65 1159.30 C 351.01 1171.89 345.36 1203.85 333.81 1210.51 L 329.90 1206.85 L 328.53 1203.67 C 330.50 1189.33 342.95 1171.46 348.53 1157.57 Z" fill="#616075" fill-rule="nonzero" node-id="153" stroke="none" target-height="52.940063" target-width="26.123993" target-x="328.526" target-y="1157.57"></path><path d="M 652.33 1144.52 C 654.47 1142.22 656.84 1139.38 659.50 1137.68 C 665.89 1133.58 672.72 1136.07 679.57 1137.26 C 682.38 1146.14 683.69 1153.69 684.00 1163.00 L 681.22 1177.29 C 672.59 1176.76 662.84 1176.60 655.37 1171.69 C 648.54 1167.19 646.85 1160.03 644.95 1152.63 C 648.68 1150.25 650.02 1148.18 652.33 1144.52 Z" fill="#a9a8d2" fill-rule="nonzero" node-id="155" stroke="none" target-height="43.710083" target-width="39.054993" target-x="644.945" target-y="1133.58"></path><path d="M 652.33 1144.52 C 654.47 1142.22 656.84 1139.38 659.50 1137.68 C 665.89 1133.58 672.72 1136.07 679.57 1137.26 C 682.38 1146.14 683.69 1153.69 684.00 1163.00 C 679.79 1162.52 675.59 1162.02 671.43 1161.17 C 661.44 1159.15 657.55 1152.42 652.33 1144.52 Z" fill="#ece2cf" fill-rule="nonzero" node-id="157" stroke="none" target-height="29.420044" target-width="31.672974" target-x="652.327" target-y="1133.58"></path><path d="M 712.78 1176.37 C 728.55 1190.68 735.54 1217.27 740.73 1237.52 L 725.24 1245.71 C 719.96 1222.81 715.80 1199.66 712.78 1176.37 Z" fill="#9b618c" fill-rule="nonzero" node-id="159" stroke="none" target-height="69.339966" target-width="27.948975" target-x="712.78406" target-y="1176.37"></path><path d="M 639.03 1140.94 L 644.95 1152.63 C 646.85 1160.03 648.54 1167.19 655.37 1171.69 C 662.84 1176.60 672.59 1176.75 681.22 1177.28 C 675.47 1183.46 674.14 1184.02 665.97 1186.22 C 659.06 1185.18 654.13 1183.09 648.86 1178.56 C 641.63 1172.33 634.56 1161.51 634.42 1151.81 C 634.34 1145.93 635.08 1145.24 639.03 1140.94 Z" fill="#ab4d75" fill-rule="nonzero" node-id="161" stroke="none" target-height="45.28003" target-width="46.875977" target-x="634.341" target-y="1140.94"></path><path d="M 405.80 1168.07 C 411.18 1155.45 410.25 1147.28 422.48 1137.85 C 426.27 1137.08 428.44 1135.94 432.07 1137.66 C 441.60 1142.19 445.44 1152.69 448.77 1161.97 L 452.38 1162.71 C 451.82 1171.46 448.01 1177.08 441.45 1182.99 C 436.40 1187.52 430.52 1191.44 423.44 1191.34 C 416.75 1191.26 410.22 1186.41 406.00 1181.56 C 402.00 1176.94 400.79 1172.39 399.89 1166.50 L 401.81 1164.49 L 405.80 1168.07 Z" fill="#bcc2c8" fill-rule="nonzero" node-id="163" stroke="none" target-height="55.5" target-width="52.49405" target-x="399.88596" target-y="1135.94"></path><path d="M 448.77 1161.97 L 452.38 1162.71 C 451.82 1171.46 448.01 1177.08 441.45 1182.99 C 436.40 1187.53 430.52 1191.45 423.44 1191.34 C 416.75 1191.26 410.22 1186.41 406.00 1181.56 C 402.00 1176.95 400.79 1172.39 399.89 1166.51 L 401.81 1164.49 L 405.80 1168.07 C 411.04 1173.48 417.69 1178.27 425.60 1177.98 C 436.24 1177.61 442.44 1169.37 448.77 1161.97 Z" fill="#ab4d75" fill-rule="nonzero" node-id="165" stroke="none" target-height="29.47998" target-width="52.49405" target-x="399.88596" target-y="1161.97"></path><path d="M 471.03 1195.07 L 474.22 1198.68 C 475.87 1222.99 477.99 1252.78 472.57 1276.40 C 472.13 1275.50 471.65 1274.60 471.27 1273.64 C 463.56 1254.26 463.60 1214.40 471.03 1195.07 Z" fill="#b1678e" fill-rule="nonzero" node-id="167" stroke="none" target-height="81.33008" target-width="14.424957" target-x="463.562" target-y="1195.07"></path><path d="M 256.63 423.10 C 253.59 414.80 241.01 399.66 235.01 391.10 C 195.84 335.19 154.22 239.89 194.47 174.81 C 205.14 157.30 222.46 144.87 242.47 140.40 C 348.33 116.25 400.52 260.92 418.73 339.29 C 406.96 342.64 409.80 346.24 401.00 351.95 L 375.69 361.11 L 371.44 361.64 C 345.58 373.82 321.88 383.88 297.86 399.57 C 289.60 406.88 269.00 426.91 258.58 426.13 L 256.63 423.10 Z" fill="#dedee5" fill-rule="nonzero" node-id="169" stroke="none" target-height="310.65802" target-width="264.515" target-x="154.219" target-y="116.255"></path><path d="M 259.72 214.98 L 264.51 217.95 C 269.47 216.04 281.53 210.87 286.02 212.91 C 316.34 226.67 333.64 258.50 343.67 288.52 C 350.92 310.23 360.98 335.22 364.75 356.80 C 368.52 360.77 366.79 360.08 371.44 361.65 C 345.58 373.83 321.88 383.89 297.86 399.57 C 262.88 356.88 243.92 292.49 242.63 237.48 C 249.21 226.86 251.09 223.89 259.72 214.98 Z" fill="#e59ab9" fill-rule="nonzero" node-id="171" stroke="none" target-height="188.704" target-width="128.818" target-x="242.626" target-y="210.869"></path><path d="M 242.63 237.48 C 236.21 198.54 266.26 199.82 294.39 189.40 C 304.45 185.67 316.59 195.96 324.18 201.05 C 360.83 225.68 380.45 331.94 401.00 351.95 L 375.69 361.11 L 371.44 361.64 C 366.79 360.08 368.52 360.77 364.75 356.79 C 360.98 335.21 350.92 310.23 343.67 288.51 C 333.64 258.49 316.34 226.66 286.02 212.90 C 281.53 210.86 269.47 216.03 264.51 217.95 L 259.72 214.97 C 251.09 223.89 249.21 226.86 242.63 237.48 Z" fill="#cbcdd7" fill-rule="nonzero" node-id="173" stroke="none" target-height="175.96701" target-width="164.79099" target-x="236.20798" target-y="185.673"></path><path d="M 259.72 214.97 C 308.47 172.59 350.85 279.55 362.69 314.41 C 365.33 322.18 376.36 354.67 375.69 361.11 L 371.44 361.64 C 366.79 360.08 368.52 360.77 364.75 356.79 C 360.98 335.22 350.92 310.23 343.67 288.52 C 333.64 258.50 316.34 226.66 286.02 212.90 C 281.53 210.87 269.47 216.04 264.51 217.95 L 259.72 214.97 Z" fill="#cd83a5" fill-rule="nonzero" node-id="175" stroke="none" target-height="189.056" target-width="116.64404" target-x="259.72" target-y="172.587"></path><path d="M 592.17 336.23 C 592.81 335.54 593.46 334.85 594.10 334.16 C 599.29 321.85 603.33 307.44 605.87 293.62 C 621.11 210.47 687.25 81.38 789.00 142.87 C 806.03 153.16 824.90 196.59 825.89 216.64 C 828.55 266.51 807.07 318.81 784.39 362.21 C 777.61 375.19 764.60 397.97 760.68 409.86 C 749.74 403.95 730.02 394.31 721.64 386.23 C 694.54 372.33 672.56 360.78 643.00 353.26 C 624.89 350.13 607.89 346.03 592.17 336.23 Z" fill="#e5e5e9" fill-rule="nonzero" node-id="177" stroke="none" target-height="328.48053" target-width="236.37604" target-x="592.17" target-y="81.3835"></path><path d="M 665.06 280.61 C 679.69 277.83 694.56 221.28 710.83 211.40 C 742.63 192.08 758.90 230.56 772.81 249.35 C 770.42 275.19 740.94 371.03 721.64 386.22 C 694.54 372.32 672.56 360.77 643.00 353.26 C 647.71 333.89 656.30 297.68 665.06 280.61 Z" fill="#e59ab9" fill-rule="nonzero" node-id="179" stroke="none" target-height="194.14299" target-width="129.80103" target-x="643.005" target-y="192.07701"></path><path d="M 665.06 280.62 C 684.36 206.80 768.45 153.91 772.81 249.36 C 758.90 230.57 742.63 192.09 710.83 211.41 C 694.56 221.29 679.69 277.84 665.06 280.62 Z" fill="#cd83a5" fill-rule="nonzero" node-id="181" stroke="none" target-height="126.70401" target-width="107.742004" target-x="665.064" target-y="153.914"></path><path d="M 261.50 1027.74 C 266.68 1043.67 271.74 1060.68 283.34 1073.27 C 294.52 1055.43 312.04 1046.27 329.69 1035.96 C 331.83 1034.59 333.25 1034.57 335.74 1034.24 C 330.49 1049.41 336.23 1061.26 343.10 1075.10 C 345.15 1079.21 347.62 1082.44 350.82 1085.70 C 350.85 1113.96 350.11 1135.75 338.35 1161.94 L 348.53 1157.56 C 342.94 1171.45 330.50 1189.32 328.53 1203.66 L 329.89 1206.84 C 328.75 1222.88 324.99 1239.23 320.82 1254.71 C 301.82 1245.86 283.23 1236.87 265.10 1226.32 C 247.73 1221.63 220.03 1200.24 206.97 1187.62 C 207.89 1175.40 173.51 1119.61 166.20 1100.31 C 165.13 1098.53 164.14 1096.78 163.11 1095.01 C 158.46 1087.00 158.03 1082.47 158.46 1073.56 C 166.73 1081.04 173.10 1087.53 185.06 1087.14 C 192.94 1086.87 201.02 1083.72 208.45 1081.25 C 234.59 1066.99 247.90 1053.94 261.50 1027.74 Z" fill="#acaabb" fill-rule="nonzero" node-id="183" stroke="none" target-height="226.96997" target-width="192.81801" target-x="158.032" target-y="1027.74"></path><path d="M 166.20 1100.31 C 176.21 1096.57 189.53 1098.24 200.21 1098.45 C 232.97 1120.56 241.32 1158.17 271.68 1176.17 C 280.85 1183.49 290.16 1191.23 302.78 1189.27 C 316.93 1187.09 330.12 1172.91 338.35 1161.94 L 348.53 1157.57 C 342.94 1171.45 330.50 1189.32 328.52 1203.66 L 329.89 1206.84 C 328.75 1222.88 324.99 1239.23 320.82 1254.71 C 301.82 1245.86 283.23 1236.87 265.10 1226.32 C 247.73 1221.63 220.03 1200.24 206.96 1187.62 C 207.89 1175.40 173.51 1119.61 166.20 1100.31 Z" fill="#7a7996" fill-rule="nonzero" node-id="185" stroke="none" target-height="158.14001" target-width="182.331" target-x="166.203" target-y="1096.57"></path><path d="M 328.53 1203.66 L 329.90 1206.84 C 328.75 1222.88 324.99 1239.23 320.83 1254.71 C 301.82 1245.86 283.23 1236.87 265.10 1226.32 C 291.56 1223.01 306.39 1219.43 328.53 1203.66 Z" fill="#cd83a5" fill-rule="nonzero" node-id="187" stroke="none" target-height="51.049927" target-width="64.79401" target-x="265.102" target-y="1203.66"></path><path d="M 329.69 1035.97 C 331.83 1034.59 333.25 1034.57 335.74 1034.24 C 330.49 1049.41 336.23 1061.27 343.10 1075.11 C 345.15 1079.21 347.62 1082.45 350.82 1085.71 C 350.85 1113.96 350.11 1135.75 338.35 1161.94 C 330.12 1172.92 316.93 1187.10 302.78 1189.27 C 290.16 1191.23 280.85 1183.49 271.68 1176.18 C 271.77 1172.63 272.83 1169.97 274.00 1166.69 C 283.32 1164.83 291.54 1171.91 301.24 1171.86 C 307.10 1171.83 312.79 1168.83 316.78 1164.67 C 341.46 1138.86 284.47 1102.30 284.69 1079.11 C 284.70 1078.63 284.75 1078.18 284.79 1077.70 L 283.34 1073.28 C 294.52 1055.44 312.04 1046.28 329.69 1035.97 Z" fill="#9e9cb3" fill-rule="nonzero" node-id="189" stroke="none" target-height="156.98999" target-width="79.17502" target-x="271.675" target-y="1034.24"></path><path d="M 329.69 1035.96 C 317.59 1049.37 300.45 1069.03 284.79 1077.70 L 283.34 1073.27 C 294.52 1055.43 312.04 1046.27 329.69 1035.96 Z" fill="#b9b8c7" fill-rule="nonzero" node-id="191" stroke="none" target-height="41.73999" target-width="46.343994" target-x="283.342" target-y="1035.96"></path><path d="M 176.82 693.58 C 174.75 673.04 172.43 649.49 167.57 629.49 C 165.08 619.27 160.32 610.11 159.00 599.58 L 162.34 600.96 C 174.40 624.53 177.72 648.25 181.60 674.05 C 181.83 674.10 182.09 674.08 182.31 674.18 C 191.14 677.94 187.09 711.34 190.65 721.64 C 211.33 723.99 230.65 711.17 252.90 712.02 L 254.86 709.54 C 253.39 699.57 258.74 642.67 261.96 633.67 C 265.23 624.55 269.92 622.24 278.26 618.52 C 255.87 675.14 250.56 735.76 275.24 792.88 C 282.53 809.76 291.94 824.62 302.24 839.79 L 299.75 844.03 C 300.04 844.49 300.37 844.92 300.60 845.41 C 302.44 849.24 302.54 854.07 303.02 858.26 L 300.28 855.65 C 311.31 874.81 333.70 885.13 352.90 894.45 C 342.79 895.36 332.54 898.46 322.59 898.82 C 301.65 899.57 268.60 889.16 250.94 899.25 C 249.22 903.26 248.37 903.65 249.94 907.71 C 251.63 912.09 277.31 947.56 279.94 949.32 L 279.31 952.79 C 274.13 951.13 268.78 946.67 264.17 943.69 C 248.86 930.39 233.93 918.23 220.70 902.69 C 208.73 888.64 197.00 865.75 182.68 854.80 C 181.54 853.93 177.78 853.29 176.25 852.82 L 184.03 844.07 C 182.92 842.99 180.28 841.03 179.62 839.76 C 174.64 830.13 182.75 748.76 180.00 729.13 C 179.28 717.24 178.09 705.43 176.82 693.58 Z" fill="#a8aac3" fill-rule="nonzero" node-id="193" stroke="none" target-height="353.21503" target-width="193.89702" target-x="159.003" target-y="599.578"></path><path d="M 176.82 693.58 C 174.75 673.04 172.43 649.49 167.57 629.49 C 165.08 619.27 160.32 610.11 159.00 599.58 L 162.34 600.96 C 174.40 624.53 177.72 648.25 181.60 674.05 C 184.34 709.78 198.73 815.95 184.03 844.07 C 182.92 842.99 180.28 841.03 179.62 839.76 C 174.64 830.13 182.75 748.76 180.00 729.13 C 179.28 717.24 178.09 705.43 176.82 693.58 Z" fill="#9e7e99" fill-rule="nonzero" node-id="195" stroke="none" target-height="244.49298" target-width="39.724" target-x="159.003" target-y="599.578"></path><path d="M 688.19 1025.89 L 689.14 1022.65 C 702.01 1032.76 726.57 1047.67 735.44 1060.69 C 772.21 1098.83 792.16 1143.44 818.46 1188.58 L 805.70 1198.10 L 797.59 1204.91 C 779.15 1215.81 760.29 1228.98 740.73 1237.52 C 735.54 1217.26 728.55 1190.68 712.78 1176.36 C 711.45 1166.26 711.24 1156.30 707.90 1146.60 L 702.53 1145.16 C 694.68 1143.49 688.71 1139.73 681.96 1135.65 C 685.61 1128.84 688.37 1125.47 695.11 1121.60 L 693.44 1121.49 L 692.17 1116.43 C 680.54 1105.14 654.42 1108.29 638.88 1108.24 L 643.64 1078.02 C 650.58 1031.57 673.09 1058.22 688.19 1025.89 Z" fill="#b9b8c7" fill-rule="nonzero" node-id="197" stroke="none" target-height="214.87" target-width="179.58191" target-x="638.877" target-y="1022.65"></path><path d="M 688.19 1025.88 C 688.11 1035.53 688.14 1048.24 690.93 1057.40 C 692.35 1078.76 694.35 1100.23 695.11 1121.60 L 693.44 1121.49 L 692.17 1116.43 C 680.54 1105.14 654.42 1108.29 638.88 1108.24 L 643.64 1078.02 C 650.58 1031.57 673.09 1058.22 688.19 1025.88 Z" fill="#e59ab9" fill-rule="nonzero" node-id="199" stroke="none" target-height="95.71997" target-width="56.230957" target-x="638.877" target-y="1025.88"></path><path d="M 781.50 1154.73 C 766.07 1131.17 740.51 1105.85 733.44 1078.23 C 731.35 1070.10 731.18 1067.97 735.44 1060.69 C 772.21 1098.83 792.16 1143.44 818.46 1188.58 L 805.69 1198.10 C 796.19 1185.77 789.56 1168.33 781.50 1154.73 Z" fill="#e5e5e9" fill-rule="nonzero" node-id="201" stroke="none" target-height="137.41003" target-width="87.27692" target-x="731.181" target-y="1060.69"></path><path d="M 690.93 1057.39 C 692.08 1049.72 692.82 1048.10 697.56 1041.91 L 701.12 1040.89 C 712.87 1053.78 706.17 1111.95 705.36 1130.77 C 705.13 1136.07 704.55 1140.20 702.53 1145.16 C 694.68 1143.49 688.71 1139.73 681.96 1135.64 C 685.61 1128.83 688.37 1125.46 695.11 1121.59 C 694.35 1100.23 692.35 1078.76 690.93 1057.39 Z" fill="#cbcdd7" fill-rule="nonzero" node-id="203" stroke="none" target-height="104.27002" target-width="30.907043" target-x="681.959" target-y="1040.89"></path><path d="M 781.50 1154.73 C 789.56 1168.33 796.19 1185.77 805.69 1198.10 L 797.59 1204.91 C 788.31 1197.25 779.94 1185.85 773.50 1175.68 C 769.64 1169.58 768.05 1163.93 769.57 1156.88 L 781.50 1154.73 Z" fill="#cbcdd7" fill-rule="nonzero" node-id="205" stroke="none" target-height="50.180054" target-width="37.64691" target-x="768.047" target-y="1154.73"></path><path d="M 94.11 987.25 L 89.22 983.35 C 90.70 971.65 107.33 959.42 113.90 948.26 C 120.58 960.39 126.89 972.65 137.22 982.15 C 142.29 986.83 148.21 990.26 152.65 995.59 L 154.95 996.57 C 168.46 993.16 176.08 980.91 188.62 976.13 C 197.92 972.58 203.56 976.62 212.17 979.98 L 225.41 990.45 C 234.01 994.94 240.02 998.26 243.45 1008.04 C 246.00 1015.30 245.39 1020.78 241.89 1027.53 C 234.34 1042.10 213.78 1056.10 198.13 1060.16 C 190.42 1062.17 186.70 1060.95 180.25 1056.92 C 167.18 1048.73 136.48 1024.66 130.94 1010.03 C 128.00 1002.30 124.12 1001.26 117.30 997.42 C 110.42 996.32 100.66 990.29 94.11 987.25 Z" fill="#c9c7d3" fill-rule="nonzero" node-id="207" stroke="none" target-height="113.90997" target-width="156.7793" target-x="89.2197" target-y="948.2601"></path><path d="M 187.11 1001.29 C 190.01 998.52 194.57 998.50 197.51 1001.24 C 200.44 1003.99 200.73 1008.54 198.16 1011.63 C 196.37 1013.80 193.52 1014.79 190.76 1014.20 C 188.01 1013.62 185.81 1011.56 185.04 1008.85 C 184.27 1006.14 185.07 1003.23 187.11 1001.29 Z" fill="#b9b8c7" fill-rule="nonzero" node-id="209" stroke="none" target-height="16.28595" target-width="16.457" target-x="184.271" target-y="998.504"></path><path d="M 261.38 967.29 C 270.11 987.68 258.50 1007.69 261.50 1027.74 C 247.91 1053.94 234.59 1066.99 208.45 1081.25 C 201.02 1083.72 192.94 1086.87 185.06 1087.14 C 173.10 1087.54 166.73 1081.04 158.46 1073.57 C 158.03 1082.47 158.46 1087.00 163.11 1095.01 C 164.14 1096.79 165.13 1098.54 166.20 1100.31 C 173.51 1119.61 207.89 1175.41 206.97 1187.63 C 195.84 1179.46 185.47 1170.13 174.93 1161.25 C 174.96 1148.34 171.16 1137.61 167.06 1125.57 C 161.94 1110.49 156.64 1094.74 148.43 1081.04 C 132.79 1054.96 110.56 1033.64 98.48 1005.09 C 97.70 999.14 95.63 993.07 94.11 987.25 C 100.66 990.29 110.42 996.32 117.30 997.42 C 124.12 1001.26 128.00 1002.29 130.94 1010.03 C 136.48 1024.65 167.18 1048.73 180.25 1056.92 C 186.70 1060.95 190.42 1062.17 198.13 1060.15 C 213.78 1056.10 234.34 1042.09 241.89 1027.53 C 245.39 1020.77 246.00 1015.30 243.45 1008.03 C 240.02 998.26 234.01 994.94 225.41 990.45 L 228.11 983.38 L 232.32 985.78 C 242.65 985.41 254.03 973.84 261.38 967.29 Z" fill="#b9b8c7" fill-rule="nonzero" node-id="211" stroke="none" target-height="220.33899" target-width="176.00398" target-x="94.106" target-y="967.291"></path><path d="M 158.46 1073.56 C 152.04 1067.47 141.41 1059.62 139.38 1050.99 C 150.66 1049.40 170.32 1065.88 179.91 1072.48 C 188.41 1072.13 198.60 1070.25 205.98 1075.02 L 208.45 1081.25 C 201.02 1083.72 192.94 1086.87 185.06 1087.14 C 173.10 1087.53 166.73 1081.04 158.46 1073.56 Z" fill="#8f98b3" fill-rule="nonzero" node-id="213" stroke="none" target-height="38.130005" target-width="69.07399" target-x="139.378" target-y="1049.4"></path><path d="M 94.11 987.25 C 100.66 990.29 110.42 996.32 117.30 997.42 C 120.85 1002.25 124.99 1005.67 124.47 1011.81 C 114.88 1012.22 107.55 1007.11 98.48 1005.10 C 97.70 999.14 95.63 993.08 94.11 987.25 Z" fill="#a8a0a6" fill-rule="nonzero" node-id="215" stroke="none" target-height="24.965942" target-width="30.886993" target-x="94.106" target-y="987.254"></path><path d="M 185.10 503.18 C 187.37 524.42 154.08 560.62 158.42 589.71 L 160.71 590.06 L 166.74 577.59 L 170.43 576.44 C 173.92 586.62 171.46 595.10 162.34 600.95 L 159.00 599.57 C 160.32 610.10 165.08 619.27 167.57 629.48 C 172.43 649.48 174.75 673.04 176.82 693.57 C 166.43 695.81 153.84 699.96 143.34 698.41 L 140.30 698.39 L 134.45 701.23 C 119.68 690.84 120.49 664.92 107.62 651.60 L 101.82 652.96 L 93.50 649.85 L 97.07 641.75 C 103.02 628.82 109.61 618.13 118.64 607.10 C 134.41 589.43 148.21 596.64 155.44 573.15 C 163.19 547.98 171.42 525.86 185.10 503.18 Z" fill="#e5e5e9" fill-rule="nonzero" node-id="217" stroke="none" target-height="198.05496" target-width="93.866104" target-x="93.5049" target-y="503.178"></path><path d="M 97.07 641.75 C 103.02 628.82 109.61 618.13 118.64 607.11 L 123.90 612.43 C 137.73 637.61 139.48 670.24 143.34 698.41 L 140.30 698.39 L 134.45 701.23 C 119.68 690.84 120.49 664.92 107.62 651.60 L 101.82 652.97 L 93.50 649.85 L 97.07 641.75 Z" fill="#e59ab9" fill-rule="nonzero" node-id="219" stroke="none" target-height="94.129944" target-width="49.836105" target-x="93.5049" target-y="607.105"></path><path d="M 97.07 641.75 C 103.02 628.82 109.61 618.13 118.64 607.11 L 123.90 612.43 L 122.65 614.22 C 116.43 623.21 113.16 635.84 104.49 642.32 C 101.88 642.31 99.59 642.50 97.07 641.75 Z" fill="#d0b5cc" fill-rule="nonzero" node-id="221" stroke="none" target-height="35.393005" target-width="26.8292" target-x="97.0688" target-y="607.105"></path><path d="M 176.82 693.57 C 178.09 705.43 179.28 717.24 180.00 729.13 C 182.75 748.76 174.64 830.13 179.62 839.76 C 180.28 841.02 182.92 842.98 184.03 844.07 L 176.25 852.82 C 173.11 853.19 169.96 853.52 166.80 853.58 C 159.17 853.72 151.75 852.58 146.01 847.20 C 142.30 839.00 143.09 836.24 144.33 827.62 L 144.95 825.78 C 143.85 823.22 143.74 823.82 143.75 821.60 C 143.87 790.70 141.29 760.03 140.00 729.14 L 143.51 725.80 C 141.29 716.75 140.89 707.65 140.30 698.39 L 143.34 698.41 C 153.84 699.96 166.43 695.81 176.82 693.57 Z" fill="#a0739c" fill-rule="nonzero" node-id="223" stroke="none" target-height="160.14496" target-width="44.027985" target-x="140.004" target-y="693.574"></path><path d="M 176.82 693.57 C 178.09 705.43 179.28 717.24 180.00 729.13 C 178.12 730.68 176.41 731.67 174.03 732.30 C 162.42 735.42 153.26 731.51 143.51 725.80 C 141.29 716.75 140.89 707.65 140.30 698.39 L 143.34 698.41 C 153.84 699.96 166.43 695.81 176.82 693.57 Z" fill="#d0b5cc" fill-rule="nonzero" node-id="225" stroke="none" target-height="41.84204" target-width="39.700012" target-x="140.301" target-y="693.574"></path><path d="M 889.69 631.27 C 890.71 636.61 891.58 643.25 894.61 647.85 C 901.65 658.52 911.82 667.31 919.07 678.39 C 925.38 688.04 927.74 702.69 935.86 710.17 L 939.11 711.23 C 941.58 730.21 937.02 753.66 925.11 769.06 C 922.47 772.48 919.55 773.51 915.42 774.41 L 911.97 774.09 C 910.54 782.88 907.88 789.69 904.19 797.71 C 898.83 786.89 890.88 782.02 880.74 776.41 L 884.20 750.70 C 885.92 730.92 885.88 710.80 886.42 690.94 C 883.36 673.47 883.55 654.42 882.62 636.65 L 889.69 631.27 Z" fill="#d0b5cc" fill-rule="nonzero" node-id="227" stroke="none" target-height="166.43805" target-width="60.844055" target-x="880.738" target-y="631.271"></path><path d="M 886.42 690.95 C 886.97 687.07 888.49 666.51 890.24 664.96 C 891.47 687.62 892.76 698.42 910.81 714.64 C 913.59 717.15 916.45 719.57 919.39 721.89 C 925.59 737.57 916.99 758.22 915.42 774.42 L 911.97 774.10 C 910.54 782.89 907.88 789.70 904.19 797.72 C 898.83 786.89 890.88 782.02 880.74 776.41 L 884.20 750.70 C 885.92 730.92 885.88 710.80 886.42 690.95 Z" fill="#cd83a5" fill-rule="nonzero" node-id="229" stroke="none" target-height="132.76099" target-width="44.850037" target-x="880.738" target-y="664.955"></path><path d="M 884.20 750.70 L 887.74 750.30 L 888.46 752.61 C 890.72 759.67 893.29 765.39 900.12 769.26 C 902.63 770.69 905.45 771.54 908.22 772.29 L 910.43 769.47 L 911.51 769.89 L 911.97 774.09 C 910.54 782.89 907.88 789.69 904.19 797.71 C 898.83 786.89 890.88 782.02 880.74 776.41 L 884.20 750.70 Z" fill="#b1678e" fill-rule="nonzero" node-id="231" stroke="none" target-height="47.40808" target-width="31.233093" target-x="880.738" target-y="750.30493"></path><path d="M 868.13 561.99 C 896.03 571.97 909.52 586.43 922.06 613.45 C 936.39 644.32 941.67 677.42 939.11 711.22 L 935.86 710.17 C 927.74 702.68 925.38 688.04 919.07 678.39 C 911.82 667.31 901.65 658.52 894.61 647.84 C 891.58 643.25 890.71 636.61 889.69 631.27 L 882.62 636.64 C 879.54 615.84 876.14 595.27 871.70 574.71 L 868.13 561.99 Z" fill="#e5e5e9" fill-rule="nonzero" node-id="233" stroke="none" target-height="149.232" target-width="73.54401" target-x="868.131" target-y="561.99"></path><path d="M 871.70 574.71 L 876.90 573.97 C 885.57 584.60 891.05 617.26 889.69 631.27 L 882.62 636.65 C 879.54 615.84 876.14 595.28 871.70 574.71 Z" fill="#d0b5cc" fill-rule="nonzero" node-id="235" stroke="none" target-height="62.675964" target-width="19.351013" target-x="871.7" target-y="573.971"></path><path d="M 119.67 724.06 L 125.62 718.66 C 132.46 719.62 134.66 720.95 138.87 727.04 C 139.32 727.70 139.62 728.44 140.00 729.14 C 141.29 760.02 143.87 790.70 143.75 821.60 C 143.74 823.81 143.85 823.22 144.95 825.77 L 144.33 827.61 C 139.16 830.12 135.84 832.08 130.02 831.11 L 127.06 824.83 C 123.93 824.10 120.54 823.30 117.71 821.72 C 104.31 814.26 100.53 792.14 96.97 778.41 C 99.01 773.13 100.04 769.47 99.06 763.79 C 98.17 758.66 97.93 754.27 97.98 749.10 L 98.01 747.02 C 104.51 738.16 110.09 729.81 119.67 724.06 Z" fill="#b1678e" fill-rule="nonzero" node-id="237" stroke="none" target-height="113.42102" target-width="47.9793" target-x="96.972694" target-y="718.662"></path><path d="M 98.01 747.03 C 104.51 738.16 110.09 729.81 119.67 724.07 C 123.08 752.52 116.41 780.65 118.53 808.76 L 126.67 813.23 C 127.53 817.60 127.69 820.44 127.06 824.84 C 123.93 824.10 120.54 823.30 117.71 821.73 C 104.31 814.26 100.53 792.15 96.97 778.41 C 99.01 773.13 100.04 769.48 99.06 763.80 C 98.17 758.67 97.93 754.28 97.98 749.11 L 98.01 747.03 Z" fill="#b9b8c7" fill-rule="nonzero" node-id="239" stroke="none" target-height="100.77197" target-width="30.719307" target-x="96.972694" target-y="724.066"></path><path d="M 152.65 995.58 C 170.21 967.47 121.67 949.59 116.91 926.23 L 120.01 922.36 C 123.03 921.67 126.17 921.03 129.29 921.09 C 144.32 921.37 153.19 933.14 162.55 943.28 C 164.25 953.00 169.67 961.63 174.23 970.25 C 176.36 970.07 177.74 969.75 179.49 968.46 C 188.62 961.76 194.67 957.52 205.79 954.68 L 212.17 979.98 C 203.56 976.62 197.92 972.57 188.62 976.12 C 176.09 980.90 168.46 993.15 154.95 996.56 L 152.65 995.58 Z" fill="#cbcdd7" fill-rule="nonzero" node-id="241" stroke="none" target-height="75.5271" target-width="95.261" target-x="116.909" target-y="921.035"></path><path d="M 101.82 652.97 L 107.62 651.61 C 120.49 664.93 119.68 690.84 134.45 701.24 L 140.30 698.39 C 140.89 707.65 141.29 716.75 143.51 725.80 L 140.00 729.15 C 139.62 728.45 139.32 727.70 138.87 727.05 C 134.66 720.96 132.46 719.63 125.62 718.67 L 119.67 724.07 C 110.09 729.82 104.51 738.16 98.01 747.03 C 103.38 717.65 98.57 683.42 101.82 652.97 Z" fill="#cd83a5" fill-rule="nonzero" node-id="243" stroke="none" target-height="95.425964" target-width="45.503204" target-x="98.0078" target-y="651.607"></path><path d="M 194.00 921.62 C 200.56 932.03 202.96 942.82 205.79 954.69 C 194.67 957.53 188.62 961.77 179.49 968.47 C 177.74 969.75 176.36 970.08 174.23 970.25 C 169.67 961.63 164.25 953.01 162.55 943.29 C 165.84 937.10 164.77 931.65 164.70 924.75 L 167.31 933.29 C 177.22 927.84 185.55 929.98 194.00 921.62 Z" fill="#b9b8c7" fill-rule="nonzero" node-id="245" stroke="none" target-height="48.63495" target-width="43.234985" target-x="162.552" target-y="921.61707"></path><path d="M 162.55 943.29 C 165.84 937.09 164.77 931.65 164.70 924.74 L 167.31 933.28 C 171.56 942.62 177.81 953.16 177.21 963.61 L 174.23 970.25 C 169.67 961.63 164.25 953.01 162.55 943.29 Z" fill="#d0b5cc" fill-rule="nonzero" node-id="247" stroke="none" target-height="45.507996" target-width="15.259003" target-x="162.552" target-y="924.744"></path><path d="M 93.50 649.85 L 101.82 652.96 C 98.57 683.41 103.38 717.64 98.01 747.02 L 97.98 749.10 C 97.93 754.27 98.17 758.66 99.06 763.79 C 100.04 769.47 99.01 773.13 96.97 778.41 C 84.87 733.88 82.85 695.03 93.50 649.85 Z" fill="#d0b5cc" fill-rule="nonzero" node-id="249" stroke="none" target-height="128.55896" target-width="20.534302" target-x="82.8497" target-y="649.848"></path><path d="M 176.25 852.81 C 177.78 853.28 181.54 853.93 182.68 854.80 C 197.00 865.75 208.73 888.64 220.70 902.69 C 233.93 918.22 248.86 930.38 264.17 943.69 L 263.62 945.73 C 255.80 943.71 248.69 939.32 242.48 934.24 C 221.37 916.97 179.28 880.61 176.25 852.81 Z" fill="#d0b5cc" fill-rule="nonzero" node-id="251" stroke="none" target-height="92.912964" target-width="87.92502" target-x="176.249" target-y="852.812"></path><path d="M 880.74 776.41 C 890.88 782.02 898.83 786.89 904.19 797.71 C 898.46 807.67 891.54 819.20 879.79 822.71 C 875.81 823.89 871.82 823.19 867.95 821.98 C 873.11 806.95 876.98 791.82 880.74 776.41 Z" fill="#9b618c" fill-rule="nonzero" node-id="253" stroke="none" target-height="47.484985" target-width="36.237976" target-x="867.95" target-y="776.408"></path><path d="M 228.11 983.38 C 232.07 975.54 235.55 965.79 243.58 961.42 C 252.36 961.04 254.22 962.77 261.38 967.29 C 254.03 973.84 242.65 985.41 232.32 985.78 L 228.11 983.38 Z" fill="#cbcdd7" fill-rule="nonzero" node-id="255" stroke="none" target-height="24.744019" target-width="33.270004" target-x="228.114" target-y="961.039"></path><path d="M 164.70 924.75 C 168.09 922.47 172.22 919.21 176.06 917.82 C 184.02 914.93 187.06 917.88 194.00 921.62 C 185.55 929.98 177.22 927.84 167.31 933.29 L 164.70 924.75 Z" fill="#cbcdd7" fill-rule="nonzero" node-id="257" stroke="none" target-height="18.350952" target-width="29.296997" target-x="164.698" target-y="914.935"></path></g></svg>