<?xml version="1.0" standalone="no"?><!DOCTYPE svg PUBLIC "-//W3C//DTD SVG 1.1//EN" "http://www.w3.org/Graphics/SVG/1.1/DTD/svg11.dtd"><svg height="1294" node-id="1" sillyvg="true" template-height="1294" template-width="1024" version="1.1" viewBox="0 0 1024 1294" width="1024" xmlns="http://www.w3.org/2000/svg" xmlns:xlink="http://www.w3.org/1999/xlink"><defs node-id="101"><clipPath id="clip0_30102_50723" node-id="98"><path d="M 0.00 0.00 L 1024.00 0.00 L 1024.00 1294.00 L 0.00 1294.00 Z" fill="#000000" fill-rule="nonzero" node-id="104" stroke="none" target-height="1294" target-width="1024" target-x="0" target-y="0"></path></clipPath></defs><g clip-path="url(#clip0_30102_50723)" id="sillyvg_g_0" node-id="108"><path d="M 113.71 1100.96 C 57.10 1020.73 19.14 939.06 5.88 841.08 C -2.40 779.89 0.49 716.92 0.48 655.25 C 0.48 481.20 -4.55 346.85 108.32 199.50 C 190.60 91.24 313.08 20.77 448.00 4.04 C 576.51 -12.50 714.90 22.05 817.77 101.69 C 929.61 189.75 1001.95 318.59 1018.94 459.94 C 1026.08 517.01 1023.56 575.16 1023.61 632.58 C 1023.69 752.79 1026.77 862.22 978.85 975.35 C 967.04 1003.24 953.63 1031.40 935.02 1055.43 C 927.62 1067.95 920.26 1080.16 911.69 1091.93 C 906.11 1099.29 900.67 1107.49 894.12 1113.97 C 885.30 1124.33 876.36 1134.15 866.56 1143.58 C 850.58 1159.99 833.99 1177.79 814.50 1190.14 C 807.09 1196.62 799.79 1202.03 791.38 1207.13 C 753.55 1231.62 715.11 1253.32 672.16 1267.55 L 657.26 1273.42 C 617.31 1280.96 578.13 1292.78 537.22 1293.79 L 516.51 1293.74 C 469.98 1295.33 423.47 1289.59 378.70 1276.77 L 352.36 1268.96 C 333.06 1262.80 314.72 1254.99 296.16 1246.92 L 266.08 1230.74 L 260.78 1226.79 C 236.78 1214.54 215.73 1200.65 195.35 1182.99 L 180.58 1170.19 C 172.78 1165.73 164.93 1156.46 158.24 1150.22 C 142.56 1134.39 127.99 1118.06 113.71 1100.96 Z" fill="#9db6de" fill-rule="nonzero" node-id="110" stroke="none" target-height="1307.8328" target-width="1031.3168" target-x="-4.54675" target-y="-12.502799"></path><path d="M 361.45 362.30 C 391.33 389.83 487.20 415.21 529.60 432.09 C 557.00 443.00 581.21 458.05 607.73 470.55 L 824.06 573.86 C 837.54 580.26 856.98 577.36 869.00 584.35 L 878.43 588.15 C 872.03 606.74 864.60 626.79 866.77 646.73 C 864.30 671.68 851.83 733.03 869.29 752.59 C 875.19 759.18 886.60 760.37 894.46 763.77 C 894.59 763.82 894.75 763.76 894.88 763.76 C 893.96 776.09 890.45 794.96 897.22 805.79 C 895.12 811.03 893.16 813.49 888.94 817.20 C 881.85 827.33 875.29 837.35 861.86 838.95 C 856.31 839.62 850.29 838.61 844.76 837.88 C 835.61 865.49 804.94 902.95 779.33 916.84 C 776.67 918.28 774.04 919.28 771.12 920.02 L 769.32 919.71 C 766.64 915.97 763.64 911.65 759.84 908.92 C 756.84 906.75 705.26 885.20 702.82 884.88 C 698.01 884.26 697.48 886.89 691.93 884.52 C 685.72 886.85 679.46 889.02 673.14 891.03 C 574.09 922.02 322.68 917.37 248.16 831.29 C 238.56 820.19 230.42 807.26 224.07 794.04 C 217.70 780.76 213.44 751.58 200.34 744.76 L 195.36 748.16 C 185.58 767.42 184.25 791.70 182.25 812.95 C 179.82 815.38 181.31 814.54 177.68 815.29 C 164.34 790.73 169.89 756.73 160.35 730.12 C 158.61 711.50 157.69 693.66 158.55 674.97 L 149.77 664.88 C 152.84 633.77 153.80 597.55 165.31 568.43 L 160.84 559.90 C 168.71 557.23 169.41 557.36 173.17 549.70 C 182.83 530.06 189.58 509.05 200.54 489.98 C 235.63 428.89 297.25 387.56 361.45 362.30 Z" fill="#dcdfea" fill-rule="nonzero" node-id="112" stroke="none" target-height="559.725" target-width="747.453" target-x="149.768" target-y="362.29703"></path><path d="M 691.93 884.52 C 720.61 871.16 749.38 857.14 767.06 829.54 C 774.81 817.45 781.42 803.93 790.08 792.54 C 798.76 796.16 806.83 800.26 815.01 804.88 L 836.08 838.54 C 823.87 861.43 811.50 880.50 793.11 899.02 C 786.15 906.01 776.94 912.24 771.12 920.02 L 769.32 919.71 C 766.64 915.97 763.64 911.65 759.84 908.92 C 756.84 906.75 705.26 885.20 702.82 884.88 C 698.01 884.26 697.48 886.89 691.93 884.52 Z" fill="#a1a1b5" fill-rule="nonzero" node-id="114" stroke="none" target-height="127.48401" target-width="144.14899" target-x="691.935" target-y="792.541"></path><path d="M 869.00 584.35 L 878.43 588.15 C 872.03 606.74 864.60 626.79 866.77 646.74 C 864.30 671.68 851.83 733.03 869.29 752.59 C 875.19 759.18 886.60 760.37 894.46 763.77 C 894.59 763.83 894.75 763.76 894.88 763.76 C 893.96 776.09 890.45 794.96 897.22 805.79 C 895.12 811.03 893.16 813.49 888.94 817.20 C 882.78 771.95 866.21 794.43 854.93 769.16 C 854.67 768.57 854.48 767.95 854.24 767.35 L 848.59 766.38 C 847.07 731.67 860.29 619.36 869.00 584.35 Z" fill="#a9a8d2" fill-rule="nonzero" node-id="116" stroke="none" target-height="232.8471" target-width="50.147095" target-x="847.0739" target-y="584.35"></path><path d="M 848.59 766.38 L 854.24 767.35 C 854.48 767.95 854.67 768.57 854.93 769.16 C 866.22 794.43 882.78 771.95 888.94 817.19 C 881.85 827.32 875.29 837.35 861.86 838.95 C 856.31 839.61 850.29 838.60 844.76 837.88 C 840.01 817.41 846.46 787.60 848.59 766.38 Z" fill="#5270b6" fill-rule="nonzero" node-id="118" stroke="none" target-height="73.2359" target-width="48.925964" target-x="840.013" target-y="766.379"></path><path d="M 165.31 568.44 C 166.45 571.32 167.17 571.93 166.57 575.06 C 160.37 607.74 164.87 642.76 158.55 674.98 L 149.77 664.88 C 152.84 633.77 153.80 597.55 165.31 568.44 Z" fill="#b1b9d0" fill-rule="nonzero" node-id="120" stroke="none" target-height="106.539" target-width="17.401001" target-x="149.768" target-y="568.436"></path><path d="M 442.87 493.62 C 443.34 493.50 443.80 493.37 444.27 493.25 C 568.23 484.39 753.87 504.63 786.52 652.27 C 797.96 703.99 790.85 764.17 762.07 808.75 C 736.59 849.63 685.83 877.80 637.86 884.98 C 532.25 900.76 385.92 901.78 292.32 844.82 C 204.56 791.41 197.34 654.60 253.96 576.42 C 276.35 545.50 295.18 518.31 336.34 513.94 C 370.44 500.18 406.31 495.30 442.87 493.62 Z" fill="#0f131d" fill-rule="nonzero" node-id="122" stroke="none" target-height="417.38397" target-width="600.6229" target-x="197.34" target-y="484.393"></path><path d="M 422.08 505.25 L 449.24 502.91 C 435.51 510.50 435.58 524.28 423.80 534.67 C 410.72 546.19 395.05 551.47 380.90 560.73 C 354.04 578.31 299.07 621.45 265.21 600.13 C 250.30 570.17 320.30 534.02 341.80 525.38 C 363.55 516.64 386.03 513.78 407.43 506.96 L 422.08 505.25 Z" fill="#464c5d" fill-rule="nonzero" node-id="124" stroke="none" target-height="118.53198" target-width="198.94398" target-x="250.296" target-y="502.914"></path><path d="M 336.34 513.94 C 370.44 500.18 406.31 495.30 442.87 493.63 L 444.84 496.28 C 430.41 499.07 431.53 496.64 422.08 505.25 L 407.43 506.96 L 404.76 502.57 C 380.97 500.32 347.40 520.87 336.34 513.94 Z" fill="#201f59" fill-rule="nonzero" node-id="126" stroke="none" target-height="27.245026" target-width="108.502014" target-x="336.339" target-y="493.629"></path><path d="M 641.28 630.44 C 649.51 630.65 658.64 633.74 665.44 638.39 C 683.20 650.56 692.97 670.87 696.66 691.60 C 701.38 717.98 695.94 747.11 680.01 768.94 C 666.77 787.12 654.13 790.00 632.76 793.36 C 625.78 792.96 618.43 792.77 612.29 788.98 C 593.02 777.04 580.14 755.82 575.66 733.98 C 570.67 709.55 576.14 682.34 590.39 661.83 C 603.90 642.36 618.32 634.44 641.28 630.44 Z" fill="#273b7d" fill-rule="nonzero" node-id="128" stroke="none" target-height="162.92499" target-width="130.71594" target-x="570.668" target-y="630.439"></path><path d="M 625.57 646.09 C 632.31 645.46 639.74 645.04 646.38 646.67 C 657.66 649.44 667.27 658.49 672.95 668.33 C 683.97 687.37 684.39 714.14 678.40 734.83 C 672.77 754.18 664.11 764.35 646.70 773.90 C 639.90 774.44 631.75 774.57 625.09 772.87 C 613.59 769.92 604.04 761.39 598.17 751.25 C 587.68 733.12 587.52 707.97 592.86 688.21 C 598.44 667.54 607.30 656.73 625.57 646.09 Z" fill="#74d1f0" fill-rule="nonzero" node-id="130" stroke="none" target-height="129.53204" target-width="96.869995" target-x="587.525" target-y="645.04"></path><path d="M 357.53 635.11 C 364.52 634.73 371.42 634.88 378.23 636.71 C 389.61 639.77 399.25 649.09 405.00 659.14 C 415.79 677.97 416.42 703.60 410.55 724.09 C 404.97 743.54 396.25 753.85 378.70 763.39 C 372.63 763.71 365.68 763.86 359.67 762.67 C 348.28 760.43 337.99 751.36 331.95 741.80 C 321.01 724.50 320.18 700.82 324.64 681.35 C 329.65 659.51 338.69 646.77 357.53 635.11 Z" fill="#74d1f0" fill-rule="nonzero" node-id="132" stroke="none" target-height="129.12598" target-width="96.23999" target-x="320.183" target-y="634.734"></path><path d="M 704.44 553.57 C 726.21 562.38 742.93 582.26 754.85 601.91 C 760.08 610.53 770.64 629.78 768.07 640.02 C 764.43 630.76 759.44 624.71 752.83 617.39 L 751.64 616.29 C 744.92 619.62 751.72 642.81 747.68 651.49 C 743.06 650.24 742.59 650.22 739.51 646.53 C 721.90 625.34 701.73 580.97 704.44 553.57 Z" fill="#53535a" fill-rule="nonzero" node-id="134" stroke="none" target-height="97.91901" target-width="68.916016" target-x="701.729" target-y="553.57"></path><path d="M 455.87 774.58 C 470.90 776.81 482.90 790.19 499.31 791.56 C 515.93 792.95 527.11 778.01 541.76 778.54 L 545.18 786.19 C 534.35 795.23 524.85 800.89 510.81 803.54 C 496.10 806.33 480.28 805.89 467.77 796.67 C 459.14 790.30 457.10 784.71 455.87 774.58 Z" fill="#3e7dd9" fill-rule="nonzero" node-id="136" stroke="none" target-height="31.746033" target-width="89.30899" target-x="455.874" target-y="774.584"></path><path d="M 182.25 812.95 C 184.25 791.70 185.58 767.43 195.36 748.16 L 200.34 744.76 C 213.44 751.58 217.70 780.76 224.07 794.04 C 230.42 807.26 238.56 820.20 248.16 831.29 C 322.68 917.37 574.09 922.02 673.14 891.03 C 679.46 889.02 685.72 886.85 691.93 884.52 C 697.48 886.89 698.01 884.26 702.82 884.88 C 705.26 885.20 756.84 906.75 759.84 908.92 C 763.64 911.65 766.64 915.97 769.32 919.71 C 747.42 943.76 706.67 963.53 676.35 973.47 L 651.05 982.42 L 646.03 985.68 C 650.49 992.04 656.31 995.84 657.72 1003.85 C 655.41 1007.12 653.20 1010.11 651.74 1013.87 C 656.79 1011.93 658.11 1012.38 660.45 1007.12 C 661.56 1004.59 662.28 1002.00 663.02 999.35 C 673.27 998.45 695.39 1013.73 703.51 1020.07 C 707.36 1023.09 710.70 1027.15 713.38 1031.22 C 762.73 1005.70 818.14 995.48 872.24 1013.02 C 897.22 1021.13 918.86 1034.53 935.02 1055.44 C 927.62 1067.95 920.26 1080.17 911.69 1091.93 C 906.11 1099.29 900.67 1107.49 894.12 1113.97 C 885.30 1124.33 876.36 1134.16 866.56 1143.59 C 850.58 1160.00 833.99 1177.79 814.50 1190.14 C 807.09 1196.62 799.79 1202.04 791.38 1207.14 C 753.55 1231.62 715.11 1253.32 672.16 1267.55 L 657.26 1273.42 C 617.31 1280.97 578.13 1292.78 537.22 1293.79 L 516.51 1293.74 C 469.98 1295.33 423.47 1289.60 378.70 1276.77 L 352.36 1268.96 C 333.06 1262.80 314.72 1254.99 296.16 1246.92 L 297.14 1244.64 C 300.83 1236.19 305.24 1230.64 314.42 1227.56 C 315.18 1227.29 315.95 1227.08 316.72 1226.87 L 317.28 1219.54 C 314.62 1218.90 311.42 1218.32 309.01 1216.99 C 299.25 1211.68 301.28 1177.53 298.34 1165.92 C 295.74 1159.55 294.07 1152.96 292.28 1146.32 C 290.42 1139.15 288.47 1132.03 286.45 1124.92 C 282.34 1119.82 278.30 1114.90 273.67 1110.26 C 269.97 1103.86 265.35 1098.41 260.67 1092.76 L 255.69 1085.08 C 260.91 1068.75 290.26 1045.86 302.79 1033.69 L 315.78 1026.15 L 324.51 1021.48 C 332.89 1015.48 340.62 1007.41 348.31 1000.49 C 347.73 990.88 359.46 983.51 362.40 973.48 C 313.29 956.29 277.69 933.13 239.21 897.96 C 224.37 881.03 204.04 858.98 194.63 838.53 C 191.13 830.94 190.68 821.61 187.47 813.47 L 182.25 812.95 Z" fill="#8589a9" fill-rule="nonzero" node-id="138" stroke="none" target-height="550.56995" target-width="752.77" target-x="182.25302" target-y="744.76"></path><path d="M 651.74 1013.86 C 656.79 1011.93 658.11 1012.37 660.45 1007.11 C 661.57 1004.58 662.28 1002.00 663.02 999.34 C 673.27 998.45 695.39 1013.72 703.51 1020.07 C 707.36 1023.08 710.70 1027.15 713.38 1031.22 C 762.74 1005.70 818.14 995.47 872.24 1013.01 C 897.22 1021.12 918.86 1034.53 935.02 1055.43 C 927.62 1067.95 920.26 1080.16 911.69 1091.93 C 906.11 1099.28 900.67 1107.49 894.12 1113.97 C 885.30 1124.33 876.36 1134.15 866.56 1143.58 C 850.58 1159.99 833.99 1177.79 814.50 1190.13 C 807.09 1196.61 799.79 1202.03 791.38 1207.13 C 753.55 1231.62 715.11 1253.31 672.16 1267.55 L 657.26 1273.42 C 617.31 1280.96 578.13 1292.78 537.22 1293.79 L 516.51 1293.73 C 523.73 1292.43 530.08 1292.17 535.31 1286.51 C 535.97 1282.07 536.90 1278.01 535.60 1273.60 C 534.83 1271.00 534.62 1270.50 534.94 1267.89 C 535.04 1267.02 535.20 1266.17 535.31 1265.29 C 528.86 1253.10 532.68 1241.26 534.17 1227.77 L 529.39 1224.02 C 524.05 1224.42 519.06 1221.31 517.10 1216.32 C 515.13 1211.35 516.65 1205.67 520.84 1202.32 L 519.22 1198.66 C 524.26 1186.89 558.09 1144.59 568.44 1135.82 C 574.70 1130.54 583.07 1126.66 589.97 1122.02 C 584.82 1119.33 537.09 1125.44 520.79 1121.96 L 518.03 1121.35 C 543.17 1120.50 568.41 1117.34 593.47 1114.95 C 601.81 1105.39 602.10 1089.24 603.77 1077.08 L 614.50 1030.23 C 625.75 1023.27 639.48 1018.87 651.74 1013.86 Z" fill="#d4a983" fill-rule="nonzero" node-id="140" stroke="none" target-height="298.31903" target-width="419.89197" target-x="515.132" target-y="995.471"></path><path d="M 651.74 1013.86 C 656.79 1011.93 658.11 1012.37 660.45 1007.11 C 661.56 1004.58 662.28 1002.00 663.02 999.34 C 673.27 998.45 695.39 1013.72 703.51 1020.07 C 707.36 1023.08 710.70 1027.15 713.38 1031.22 L 704.14 1033.74 C 688.48 1038.87 677.31 1047.86 663.95 1057.13 C 634.83 1080.40 611.47 1103.88 589.94 1134.34 C 576.43 1143.69 561.93 1149.95 550.41 1161.98 C 546.32 1178.53 537.83 1187.40 523.63 1196.06 C 522.17 1196.96 520.71 1197.81 519.22 1198.66 C 524.26 1186.89 558.09 1144.59 568.44 1135.82 C 574.70 1130.54 583.07 1126.66 589.97 1122.02 C 584.82 1119.33 537.09 1125.44 520.79 1121.96 L 518.02 1121.35 C 543.16 1120.50 568.41 1117.34 593.47 1114.95 C 601.81 1105.39 602.10 1089.24 603.77 1077.08 L 614.50 1030.23 C 625.75 1023.27 639.48 1018.87 651.74 1013.86 Z" fill="#b9b8c7" fill-rule="nonzero" node-id="142" stroke="none" target-height="200.21204" target-width="195.35889" target-x="518.025" target-y="998.448"></path><path d="M 651.74 1013.86 C 656.79 1011.93 658.11 1012.37 660.45 1007.11 C 661.57 1004.58 662.28 1002.00 663.02 999.34 C 673.27 998.45 695.39 1013.72 703.51 1020.07 C 707.36 1023.08 710.70 1027.15 713.38 1031.22 L 704.15 1033.74 C 688.48 1038.87 677.31 1047.86 663.95 1057.13 C 667.11 1046.51 667.80 1035.65 668.78 1024.66 C 647.47 1031.33 621.72 1045.94 610.81 1066.38 C 610.06 1067.79 609.40 1069.19 608.71 1070.60 C 607.30 1073.44 606.03 1074.93 603.77 1077.08 L 614.50 1030.23 C 625.75 1023.27 639.48 1018.87 651.74 1013.86 Z" fill="#b1b9d0" fill-rule="nonzero" node-id="144" stroke="none" target-height="78.63196" target-width="109.61194" target-x="603.772" target-y="998.448"></path><path d="M 668.78 1024.66 L 671.31 1013.57 C 673.35 1012.73 675.29 1011.17 677.44 1012.04 C 687.63 1016.15 695.84 1026.67 704.15 1033.74 C 688.48 1038.87 677.31 1047.87 663.95 1057.13 C 667.11 1046.51 667.80 1035.65 668.78 1024.66 Z" fill="#5270b6" fill-rule="nonzero" node-id="146" stroke="none" target-height="45.95996" target-width="40.192017" target-x="663.954" target-y="1011.17004"></path><path d="M 550.41 1161.99 C 561.93 1149.96 576.43 1143.69 589.94 1134.34 C 578.85 1155.48 573.85 1171.12 574.84 1195.13 C 567.72 1207.93 565.31 1223.47 560.45 1237.28 C 553.68 1256.50 545.58 1275.20 537.22 1293.79 L 516.51 1293.74 C 523.73 1292.43 530.08 1292.17 535.31 1286.51 C 535.97 1282.08 536.90 1278.01 535.60 1273.60 C 534.83 1271.00 534.62 1270.50 534.94 1267.90 C 535.04 1267.02 535.20 1266.17 535.31 1265.29 C 528.86 1253.10 532.68 1241.26 534.17 1227.77 L 529.39 1224.02 C 524.05 1224.42 519.06 1221.31 517.10 1216.32 C 515.13 1211.36 516.65 1205.67 520.84 1202.33 L 519.22 1198.66 C 520.71 1197.81 522.17 1196.96 523.63 1196.06 C 537.83 1187.40 546.33 1178.53 550.41 1161.99 Z" fill="#9e7e99" fill-rule="nonzero" node-id="148" stroke="none" target-height="159.45007" target-width="74.80896" target-x="515.132" target-y="1134.34"></path><path d="M 519.22 1198.66 C 520.71 1197.81 522.17 1196.96 523.63 1196.06 C 537.83 1187.40 546.33 1178.53 550.41 1161.99 C 560.32 1178.45 557.53 1190.93 553.17 1208.83 C 549.06 1225.72 544.12 1250.82 535.31 1265.29 C 528.86 1253.10 532.68 1241.26 534.17 1227.77 L 529.39 1224.02 C 524.05 1224.42 519.06 1221.31 517.10 1216.32 C 515.13 1211.36 516.65 1205.67 520.84 1202.33 L 519.22 1198.66 Z" fill="#b9b8c7" fill-rule="nonzero" node-id="150" stroke="none" target-height="103.30005" target-width="45.182983" target-x="515.132" target-y="1161.99"></path><path d="M 520.84 1202.33 C 524.93 1199.04 530.66 1198.75 535.07 1201.59 C 539.48 1204.43 541.57 1209.77 540.30 1214.87 C 539.00 1219.94 534.62 1223.63 529.39 1224.03 C 524.05 1224.43 519.06 1221.32 517.10 1216.33 C 515.13 1211.36 516.65 1205.68 520.84 1202.33 Z" fill="#cd83a5" fill-rule="nonzero" node-id="152" stroke="none" target-height="25.680054" target-width="26.440979" target-x="515.132" target-y="1198.75"></path><path d="M 574.84 1195.13 C 582.27 1222.46 592.09 1247.77 618.19 1262.27 C 630.08 1268.88 643.86 1271.93 657.26 1273.42 C 617.31 1280.96 578.13 1292.78 537.22 1293.79 C 545.58 1275.20 553.68 1256.50 560.45 1237.28 C 565.30 1223.47 567.72 1207.93 574.84 1195.13 Z" fill="#7b7b9d" fill-rule="nonzero" node-id="154" stroke="none" target-height="98.660034" target-width="120.04498" target-x="537.219" target-y="1195.13"></path><path d="M 811.37 1071.88 C 831.94 1071.59 851.96 1077.59 872.59 1078.76 C 859.58 1086.46 846.46 1094.00 833.27 1101.36 C 848.59 1097.05 891.25 1079.98 904.95 1086.35 C 907.63 1087.60 909.67 1089.80 911.69 1091.93 C 906.11 1099.28 900.67 1107.49 894.12 1113.97 C 885.30 1124.33 876.36 1134.15 866.56 1143.58 C 859.20 1140.26 852.44 1135.30 845.67 1130.91 C 847.23 1124.09 850.10 1119.41 853.76 1113.60 C 843.65 1097.98 828.49 1096.97 814.61 1087.31 C 809.46 1083.72 808.82 1082.00 807.68 1075.97 L 811.37 1071.88 Z" fill="#c38788" fill-rule="nonzero" node-id="156" stroke="none" target-height="71.98999" target-width="104.01099" target-x="807.678" target-y="1071.59"></path><path d="M 853.76 1113.59 C 867.94 1114.21 879.99 1110.51 894.12 1113.97 C 885.30 1124.32 876.36 1134.15 866.56 1143.58 C 859.20 1140.26 852.44 1135.29 845.67 1130.91 C 847.23 1124.08 850.10 1119.41 853.76 1113.59 Z" fill="#c4bab1" fill-rule="nonzero" node-id="158" stroke="none" target-height="33.069946" target-width="48.44812" target-x="845.66693" target-y="1110.51"></path><path d="M 811.37 1071.88 C 823.42 1057.21 832.18 1044.53 852.67 1042.63 C 862.21 1041.75 871.39 1043.75 878.56 1050.41 C 882.57 1054.15 884.11 1058.41 885.59 1063.54 C 884.00 1071.00 882.65 1072.67 875.90 1077.11 C 874.55 1078.01 873.94 1078.20 872.59 1078.76 C 851.96 1077.59 831.94 1071.59 811.37 1071.88 Z" fill="#cd83a5" fill-rule="nonzero" node-id="160" stroke="none" target-height="37.01001" target-width="74.22504" target-x="811.368" target-y="1041.75"></path><path d="M 725.84 1211.57 C 724.56 1221.69 720.82 1230.40 712.56 1236.85 C 700.70 1246.12 683.94 1247.74 669.53 1250.00 C 665.44 1248.57 660.72 1247.21 656.92 1245.11 C 650.81 1241.71 650.41 1239.88 648.69 1233.54 C 655.54 1226.87 661.96 1221.08 670.09 1216.01 C 686.78 1219.62 704.01 1218.66 721.00 1218.53 L 725.84 1211.57 Z" fill="#6a6f80" fill-rule="nonzero" node-id="162" stroke="none" target-height="38.430054" target-width="77.145996" target-x="648.689" target-y="1211.57"></path><path d="M 670.09 1216.00 C 686.78 1219.61 704.01 1218.66 721.00 1218.52 C 699.31 1234.33 678.45 1238.52 651.80 1234.11 C 650.76 1233.95 649.73 1233.74 648.69 1233.53 C 655.54 1226.86 661.96 1221.07 670.09 1216.00 Z" fill="#8ba793" fill-rule="nonzero" node-id="164" stroke="none" target-height="22.52002" target-width="72.313965" target-x="648.689" target-y="1216"></path><path d="M 726.68 1208.92 C 727.72 1210.80 728.60 1212.39 729.13 1214.49 C 730.96 1221.74 725.25 1229.26 721.75 1235.21 C 720.29 1237.68 719.84 1238.13 719.65 1241.08 L 725.09 1240.65 C 742.08 1226.68 765.28 1221.32 781.00 1204.29 C 776.94 1199.94 767.75 1201.32 761.65 1199.09 L 765.31 1196.78 L 761.38 1198.21 C 764.01 1197.39 766.50 1196.91 769.26 1196.94 C 778.29 1197.02 785.11 1201.08 791.38 1207.14 C 753.55 1231.62 715.11 1253.32 672.16 1267.55 C 674.57 1263.62 676.22 1262.11 680.28 1259.83 C 683.23 1258.15 685.56 1256.82 688.03 1254.43 L 669.53 1250.00 C 683.94 1247.74 700.70 1246.12 712.56 1236.85 C 720.82 1230.40 724.56 1221.69 725.83 1211.57 L 726.68 1208.92 Z" fill="#cf9f96" fill-rule="nonzero" node-id="166" stroke="none" target-height="70.77002" target-width="121.849976" target-x="669.528" target-y="1196.78"></path><path d="M 845.67 1130.92 C 852.44 1135.30 859.20 1140.26 866.56 1143.58 C 850.58 1160.00 833.99 1177.79 814.50 1190.14 C 813.15 1166.74 831.46 1147.62 845.67 1130.92 Z" fill="#c38788" fill-rule="nonzero" node-id="168" stroke="none" target-height="59.21997" target-width="53.411987" target-x="813.14703" target-y="1130.92"></path><path d="M 670.09 1216.00 C 681.24 1207.72 690.13 1198.77 699.39 1188.49 C 708.92 1194.81 717.79 1201.77 726.68 1208.91 L 725.84 1211.57 L 721.00 1218.53 C 704.01 1218.66 686.78 1219.62 670.09 1216.00 Z" fill="#b6c594" fill-rule="nonzero" node-id="170" stroke="none" target-height="31.130005" target-width="56.598083" target-x="670.086" target-y="1188.49"></path><path d="M 659.04 1121.33 C 665.15 1120.72 672.13 1119.66 678.13 1121.41 C 685.06 1123.43 690.24 1126.67 693.66 1133.12 C 695.89 1137.35 694.72 1143.53 693.15 1147.81 C 685.54 1168.71 670.09 1175.08 651.32 1183.50 C 644.81 1184.80 636.72 1186.50 630.16 1184.93 C 623.58 1183.34 621.64 1180.31 618.11 1175.14 C 617.44 1170.65 617.52 1166.88 619.12 1162.52 C 625.67 1144.44 642.03 1129.43 659.04 1121.33 Z" fill="#94bcbf" fill-rule="nonzero" node-id="172" stroke="none" target-height="66.839966" target-width="78.446045" target-x="617.444" target-y="1119.66"></path><path d="M 742.72 1041.19 C 743.22 1041.15 743.73 1041.09 744.26 1041.06 C 745.11 1041.01 745.96 1041.01 746.83 1040.97 C 751.13 1040.74 755.27 1040.41 759.36 1042.02 C 766.69 1044.89 774.95 1049.82 777.76 1057.53 C 779.83 1063.16 778.45 1069.35 775.93 1074.61 C 768.63 1089.83 752.62 1093.52 738.05 1098.72 C 737.73 1098.72 737.41 1098.75 737.09 1098.75 C 717.52 1098.88 711.07 1092.59 697.38 1079.36 C 710.94 1060.56 721.93 1051.36 742.72 1041.19 Z" fill="#8a7eb5" fill-rule="nonzero" node-id="174" stroke="none" target-height="58.46997" target-width="82.45502" target-x="697.376" target-y="1040.41"></path><path d="M 777.76 1035.32 C 782.01 1035.52 786.31 1035.68 790.53 1036.28 C 798.79 1037.44 802.34 1040.59 807.04 1046.95 C 808.87 1055.49 805.40 1061.13 801.76 1068.54 C 799.95 1069.09 798.97 1069.49 796.98 1069.62 C 794.54 1069.78 790.79 1068.93 789.02 1067.42 C 779.09 1058.82 778.72 1047.49 777.76 1035.32 Z" fill="#dcac6d" fill-rule="nonzero" node-id="176" stroke="none" target-height="34.460083" target-width="31.112976" target-x="777.76" target-y="1035.32"></path><path d="M 348.31 1000.49 C 357.05 1015.83 348.00 1057.96 349.36 1076.69 C 352.35 1065.11 352.30 1052.20 353.15 1040.28 C 366.25 1043.82 379.06 1047.61 391.85 1052.15 C 392.03 1070.07 390.78 1089.67 394.85 1107.20 C 396.57 1111.26 396.20 1112.27 400.35 1113.81 C 425.00 1122.98 489.70 1121.38 518.03 1121.36 L 520.79 1121.97 C 537.09 1125.45 584.82 1119.34 589.97 1122.02 C 583.07 1126.67 574.70 1130.54 568.44 1135.83 C 558.09 1144.59 524.26 1186.90 519.22 1198.66 L 520.84 1202.33 C 516.65 1205.67 515.13 1211.36 517.10 1216.32 C 519.06 1221.32 524.05 1224.42 529.39 1224.03 L 534.17 1227.77 C 532.68 1241.26 528.86 1253.11 535.31 1265.29 C 535.20 1266.17 535.04 1267.02 534.94 1267.90 C 534.62 1270.50 534.83 1271.00 535.60 1273.61 C 536.90 1278.02 535.97 1282.08 535.31 1286.51 C 530.08 1292.17 523.73 1292.44 516.51 1293.74 C 469.98 1295.33 423.47 1289.59 378.70 1276.77 L 352.36 1268.96 C 333.06 1262.80 314.72 1254.99 296.16 1246.92 L 297.14 1244.63 C 300.83 1236.19 305.25 1230.64 314.42 1227.56 C 315.18 1227.29 315.95 1227.08 316.72 1226.87 L 317.28 1219.54 C 314.62 1218.90 311.42 1218.32 309.01 1216.99 C 299.25 1211.68 301.28 1177.52 298.34 1165.92 C 295.74 1159.54 294.07 1152.96 292.29 1146.32 C 290.42 1139.15 288.47 1132.03 286.45 1124.91 C 282.34 1119.82 278.30 1114.90 273.67 1110.25 C 269.97 1103.85 265.35 1098.41 260.67 1092.75 L 255.69 1085.08 C 260.91 1068.75 290.26 1045.86 302.79 1033.69 L 315.78 1026.15 L 324.52 1021.48 C 332.89 1015.48 340.62 1007.41 348.31 1000.49 Z" fill="#b4b5cc" fill-rule="nonzero" node-id="178" stroke="none" target-height="294.8399" target-width="334.28003" target-x="255.688" target-y="1000.49005"></path><path d="M 348.31 1000.49 C 357.05 1015.83 348.00 1057.96 349.36 1076.69 C 347.24 1113.28 341.98 1152.85 328.06 1186.98 C 323.09 1197.52 320.21 1208.28 317.28 1219.54 C 314.62 1218.90 311.42 1218.32 309.01 1216.99 C 299.25 1211.68 301.28 1177.52 298.34 1165.92 C 295.74 1159.54 294.07 1152.96 292.29 1146.32 C 290.42 1139.15 288.47 1132.03 286.45 1124.91 C 282.34 1119.82 278.30 1114.90 273.67 1110.25 C 269.97 1103.85 265.35 1098.41 260.67 1092.75 L 255.69 1085.08 C 260.91 1068.75 290.26 1045.86 302.79 1033.69 L 315.78 1026.15 L 324.52 1021.48 C 332.89 1015.48 340.62 1007.41 348.31 1000.49 Z" fill="#27397e" fill-rule="nonzero" node-id="180" stroke="none" target-height="219.04999" target-width="101.36598" target-x="255.688" target-y="1000.49005"></path><path d="M 324.52 1021.48 C 333.15 1033.88 332.94 1053.19 333.25 1067.85 C 312.09 1098.60 330.77 1119.69 292.29 1146.32 C 290.42 1139.15 288.47 1132.03 286.45 1124.92 C 282.34 1119.82 278.30 1114.91 273.67 1110.26 C 269.97 1103.86 265.35 1098.41 260.67 1092.76 L 255.69 1085.08 C 260.91 1068.75 290.26 1045.86 302.79 1033.69 L 315.78 1026.15 L 324.52 1021.48 Z" fill="#6290d7" fill-rule="nonzero" node-id="182" stroke="none" target-height="124.839966" target-width="77.567" target-x="255.688" target-y="1021.48"></path><path d="M 324.51 1021.48 C 333.14 1033.88 332.94 1053.19 333.25 1067.85 C 312.09 1098.60 330.77 1119.69 292.28 1146.32 C 290.42 1139.15 288.47 1132.03 286.45 1124.92 L 287.46 1121.25 L 290.92 1127.15 C 293.47 1120.48 295.27 1116.63 300.25 1111.48 C 329.09 1081.52 316.62 1063.86 315.82 1028.61 L 315.78 1026.15 L 324.51 1021.48 Z" fill="#5b61b9" fill-rule="nonzero" node-id="184" stroke="none" target-height="124.839966" target-width="46.802002" target-x="286.452" target-y="1021.48"></path><path d="M 348.31 1000.49 C 357.05 1015.83 348.00 1057.96 349.36 1076.69 C 347.24 1113.28 341.98 1152.85 328.06 1186.98 C 326.92 1147.49 334.33 1107.84 333.25 1067.84 C 332.94 1053.18 333.14 1033.88 324.51 1021.48 C 332.89 1015.48 340.62 1007.41 348.31 1000.49 Z" fill="#5270b6" fill-rule="nonzero" node-id="186" stroke="none" target-height="186.48993" target-width="32.537964" target-x="324.515" target-y="1000.49005"></path><path d="M 352.36 1268.96 C 352.91 1268.27 353.48 1267.58 354.01 1266.89 C 359.52 1259.35 359.96 1226.39 374.36 1209.26 C 376.90 1217.25 373.57 1224.69 369.86 1231.99 C 373.93 1236.88 377.55 1240.78 382.94 1244.24 C 384.62 1255.31 380.06 1265.91 378.70 1276.77 L 352.36 1268.96 Z" fill="#8a7eb5" fill-rule="nonzero" node-id="188" stroke="none" target-height="67.51001" target-width="32.26001" target-x="352.358" target-y="1209.26"></path><path d="M 503.77 1149.59 C 504.91 1150.68 505.44 1151.05 506.32 1152.59 C 512.48 1163.53 515.11 1177.13 512.32 1189.29 C 506.96 1195.72 505.71 1196.04 497.61 1198.45 C 496.26 1197.68 494.90 1196.91 493.60 1196.06 C 486.25 1191.31 485.11 1189.45 483.38 1181.19 C 485.85 1169.27 496.28 1158.91 503.77 1149.59 Z" fill="#ece2cf" fill-rule="nonzero" node-id="190" stroke="none" target-height="48.859985" target-width="31.72403" target-x="483.382" target-y="1149.59"></path><path d="M 454.10 1258.81 L 450.61 1258.31 C 444.91 1252.22 437.42 1250.13 430.71 1245.50 C 425.62 1242.00 422.71 1238.81 421.57 1232.73 C 425.88 1232.01 431.16 1231.43 434.86 1228.99 C 439.65 1225.83 439.28 1224.29 440.04 1218.97 C 435.66 1206.15 416.34 1196.93 405.34 1189.71 C 400.88 1191.14 397.10 1191.99 392.41 1192.28 C 393.96 1188.22 397.09 1187.37 400.69 1185.14 C 417.59 1187.66 421.16 1203.60 436.16 1207.98 C 436.66 1208.14 437.17 1208.25 437.68 1208.35 C 445.16 1216.13 447.33 1237.11 450.16 1247.74 C 450.54 1253.34 451.17 1254.30 454.10 1258.81 Z" fill="#a9a8d2" fill-rule="nonzero" node-id="192" stroke="none" target-height="73.670044" target-width="61.68399" target-x="392.414" target-y="1185.14"></path><path d="M 450.16 1247.74 C 460.50 1243.15 472.74 1235.93 484.23 1237.28 L 490.52 1241.02 C 491.77 1246.76 491.72 1247.29 488.43 1252.20 C 485.27 1256.85 478.42 1262.64 472.52 1263.07 C 466.82 1263.46 459.55 1260.54 454.10 1258.82 C 451.17 1254.30 450.54 1253.35 450.16 1247.74 Z" fill="#8a7eb5" fill-rule="nonzero" node-id="194" stroke="none" target-height="27.529907" target-width="41.612" target-x="450.159" target-y="1235.93"></path><path d="M 369.05 1117.74 C 375.96 1118.06 379.98 1117.34 385.81 1121.59 C 388.38 1133.89 383.34 1143.37 377.38 1154.10 C 374.14 1152.64 370.30 1151.04 367.46 1148.84 C 361.83 1144.46 358.81 1140.08 357.88 1133.04 C 360.72 1124.65 362.19 1123.48 369.05 1117.74 Z" fill="#cd83a5" fill-rule="nonzero" node-id="196" stroke="none" target-height="36.76001" target-width="30.50299" target-x="357.876" target-y="1117.34"></path><path d="M 390.16 982.94 C 401.35 983.97 412.23 986.31 423.22 988.56 C 438.48 991.17 453.40 993.32 468.86 994.34 C 493.76 996.49 518.93 995.88 543.91 995.91 C 572.05 995.53 600.00 988.07 627.88 989.26 L 629.23 991.15 C 622.41 1004.24 617.42 1015.58 614.50 1030.23 L 603.77 1077.08 C 602.10 1089.24 601.81 1105.39 593.47 1114.95 C 568.41 1117.34 543.16 1120.50 518.03 1121.35 C 489.70 1121.38 425.00 1122.97 400.35 1113.81 C 396.20 1112.27 396.57 1111.26 394.85 1107.20 C 390.78 1089.67 392.03 1070.07 391.85 1052.15 L 391.64 1022.52 L 390.16 982.94 Z" fill="#273b7d" fill-rule="nonzero" node-id="198" stroke="none" target-height="140.02698" target-width="239.07297" target-x="390.157" target-y="982.943"></path><path d="M 402.45 1041.29 C 417.13 1055.09 438.48 1079.97 460.86 1078.57 C 467.40 1078.14 474.04 1074.72 479.93 1072.03 C 487.12 1073.89 488.21 1074.93 493.44 1080.29 C 497.88 1091.82 493.60 1107.59 499.76 1116.89 L 503.21 1116.41 C 506.03 1101.38 500.90 1082.39 513.91 1071.87 C 526.63 1067.52 533.40 1070.76 544.84 1076.39 C 546.67 1077.29 548.50 1078.19 550.31 1079.15 C 559.97 1073.92 575.55 1062.53 586.76 1065.00 C 591.48 1069.86 593.39 1075.17 593.47 1081.97 C 593.61 1092.99 590.71 1104.11 593.47 1114.95 C 568.41 1117.34 543.17 1120.50 518.03 1121.35 C 489.70 1121.38 425.00 1122.97 400.35 1113.81 C 396.20 1112.27 396.57 1111.26 394.85 1107.19 C 403.40 1090.81 401.69 1059.79 402.45 1041.29 Z" fill="#6290d7" fill-rule="nonzero" node-id="200" stroke="none" target-height="81.67993" target-width="198.75397" target-x="394.851" target-y="1041.29"></path><path d="M 445.91 1071.26 C 441.65 1067.70 437.44 1064.12 433.28 1060.45 C 421.50 1050.03 401.96 1032.02 400.91 1015.45 C 402.70 1012.35 402.89 1010.96 406.21 1009.20 C 423.32 1000.14 444.43 1011.57 460.39 1016.98 C 469.66 1022.69 476.59 1025.94 487.39 1027.51 L 445.91 1071.26 Z" fill="#7676c5" fill-rule="nonzero" node-id="202" stroke="none" target-height="71.120056" target-width="86.48102" target-x="400.909" target-y="1000.13995"></path><path d="M 460.39 1016.99 L 465.78 1014.82 C 461.18 1012.42 456.87 1010.00 452.62 1007.00 C 453.67 1004.75 453.55 1003.13 456.19 1002.47 C 481.74 996.03 520.04 1018.35 548.93 1000.29 C 554.98 1002.19 555.22 1002.26 558.03 1007.90 C 559.47 1010.83 559.60 1012.91 559.68 1016.12 C 538.31 1020.62 508.39 1038.24 487.39 1027.52 C 476.59 1025.94 469.66 1022.70 460.39 1016.99 Z" fill="#474a6c" fill-rule="nonzero" node-id="204" stroke="none" target-height="42.207947" target-width="107.05499" target-x="452.622" target-y="996.03204"></path><path d="M 533.77 1038.26 C 544.57 1038.66 562.86 1039.50 572.50 1044.57 C 577.78 1047.34 578.02 1048.23 579.59 1053.87 L 573.64 1062.48 C 570.70 1064.04 567.38 1065.87 564.06 1066.38 C 559.33 1067.07 554.18 1064.41 550.41 1061.84 C 543.06 1056.83 535.23 1047.10 533.77 1038.26 Z" fill="#7d8eba" fill-rule="nonzero" node-id="206" stroke="none" target-height="28.809937" target-width="45.820007" target-x="533.768" target-y="1038.26"></path><path d="M 362.40 973.47 C 367.91 975.26 375.76 976.24 379.04 981.02 C 371.54 985.41 366.92 986.82 362.84 994.62 C 363.76 1001.43 365.93 1006.91 371.74 1010.98 C 378.04 1015.39 385.35 1018.20 391.64 1022.52 L 391.85 1052.15 C 379.06 1047.60 366.25 1043.81 353.15 1040.28 C 352.30 1052.20 352.35 1065.10 349.36 1076.68 C 348.00 1057.96 357.05 1015.82 348.31 1000.48 C 347.73 990.88 359.46 983.50 362.40 973.47 Z" fill="#7d8eba" fill-rule="nonzero" node-id="208" stroke="none" target-height="103.20697" target-width="44.11801" target-x="347.731" target-y="973.4731"></path><path d="M 489.67 981.75 C 509.58 982.24 527.93 982.05 543.91 995.91 C 518.93 995.89 493.76 996.49 468.86 994.34 L 489.67 981.75 Z" fill="#5270b6" fill-rule="nonzero" node-id="210" stroke="none" target-height="14.742004" target-width="75.048035" target-x="468.86" target-y="981.75"></path><path d="M 423.22 988.57 C 442.48 981.56 468.86 984.36 489.67 981.75 L 468.86 994.34 C 453.40 993.32 438.48 991.17 423.22 988.57 Z" fill="#7676c5" fill-rule="nonzero" node-id="212" stroke="none" target-height="12.776978" target-width="66.45203" target-x="423.222" target-y="981.564"></path><path d="M 651.05 982.42 C 649.01 978.79 649.09 978.37 649.46 974.20 C 656.12 970.76 668.76 973.01 676.35 973.47 L 651.05 982.42 Z" fill="#9e7e99" fill-rule="nonzero" node-id="214" stroke="none" target-height="11.667053" target-width="27.343018" target-x="649.008" target-y="970.757"></path><path d="M 236.12 1114.47 C 236.49 1113.86 236.97 1113.30 237.23 1112.67 C 239.78 1106.16 233.14 1091.55 231.20 1084.62 L 233.93 1080.93 L 242.78 1079.81 C 249.94 1084.09 254.19 1090.46 259.14 1096.97 L 260.67 1092.75 C 265.35 1098.40 269.97 1103.85 273.67 1110.25 C 278.30 1114.90 282.34 1119.81 286.45 1124.91 C 288.47 1132.03 290.42 1139.14 292.29 1146.31 C 294.07 1152.95 295.74 1159.54 298.34 1165.91 C 301.28 1177.52 299.25 1211.67 309.01 1216.98 C 311.42 1218.31 314.62 1218.89 317.28 1219.53 L 316.72 1226.86 C 315.95 1227.07 315.18 1227.29 314.42 1227.55 C 305.25 1230.63 300.83 1236.18 297.14 1244.63 L 296.16 1246.91 L 266.09 1230.74 L 260.78 1226.78 C 236.79 1214.54 215.73 1200.65 195.35 1182.99 L 180.58 1170.19 C 172.78 1165.73 164.93 1156.46 158.24 1150.22 C 178.51 1140.31 201.28 1137.31 222.35 1129.18 L 225.04 1129.72 L 228.95 1123.55 C 226.54 1115.67 222.97 1113.94 216.73 1108.87 C 215.52 1106.50 215.38 1103.16 214.94 1100.53 L 225.67 1092.51 C 230.94 1099.04 233.33 1106.66 236.12 1114.47 Z" fill="#7d85b1" fill-rule="nonzero" node-id="216" stroke="none" target-height="167.09998" target-width="159.045" target-x="158.239" target-y="1079.81"></path><path d="M 222.35 1129.18 L 225.04 1129.71 C 229.35 1142.22 236.60 1154.07 238.67 1167.11 C 244.46 1181.47 265.10 1213.40 260.78 1226.78 C 236.79 1214.54 215.73 1200.65 195.35 1182.99 L 180.58 1170.19 C 172.78 1165.73 164.93 1156.46 158.24 1150.22 C 178.51 1140.31 201.28 1137.31 222.35 1129.18 Z" fill="#787b98" fill-rule="nonzero" node-id="218" stroke="none" target-height="97.599976" target-width="106.85899" target-x="158.239" target-y="1129.18"></path><path d="M 180.58 1170.19 C 191.57 1165.46 204.65 1158.00 216.68 1157.68 L 218.47 1160.76 C 213.82 1170.93 204.12 1176.61 195.35 1182.99 L 180.58 1170.19 Z" fill="#474a6c" fill-rule="nonzero" node-id="220" stroke="none" target-height="25.309937" target-width="37.89299" target-x="180.578" target-y="1157.68"></path><path d="M 236.12 1114.47 C 236.49 1113.86 236.97 1113.30 237.23 1112.67 C 239.78 1106.16 233.13 1091.55 231.20 1084.62 L 233.93 1080.93 L 242.78 1079.81 C 249.94 1084.09 254.19 1090.46 259.14 1096.97 L 260.67 1092.75 C 265.35 1098.40 269.97 1103.85 273.67 1110.25 C 273.72 1111.18 273.75 1112.11 273.82 1113.04 C 274.19 1117.66 276.38 1121.64 278.38 1125.76 C 277.80 1129.77 277.74 1133.41 275.51 1136.86 C 268.26 1138.98 265.84 1138.27 258.96 1134.42 C 248.67 1128.68 250.58 1122.65 237.81 1121.67 L 236.12 1114.47 Z" fill="#a9a8d2" fill-rule="nonzero" node-id="222" stroke="none" target-height="59.16992" target-width="47.18199" target-x="231.2" target-y="1079.81"></path><path d="M 298.34 1165.92 C 301.28 1177.52 299.25 1211.68 309.01 1216.99 C 311.42 1218.32 314.62 1218.90 317.28 1219.54 L 316.72 1226.87 C 315.95 1227.08 315.18 1227.29 314.42 1227.56 C 305.25 1230.64 300.83 1236.19 297.14 1244.63 L 296.16 1246.92 L 266.08 1230.74 L 270.41 1226.28 C 275.89 1224.74 281.71 1223.23 286.07 1219.35 C 298.60 1208.25 297.25 1181.83 298.34 1165.92 Z" fill="#5270b6" fill-rule="nonzero" node-id="224" stroke="none" target-height="81" target-width="51.199005" target-x="266.085" target-y="1165.92"></path><path d="M 225.67 1092.51 C 230.94 1099.04 233.33 1106.67 236.12 1114.47 L 237.81 1121.67 C 242.64 1132.69 248.28 1143.50 248.33 1155.77 C 248.34 1156.59 248.37 1157.44 248.35 1158.27 C 248.35 1158.77 248.29 1159.28 248.26 1159.75 L 238.67 1167.11 C 236.60 1154.07 229.35 1142.23 225.04 1129.72 L 228.95 1123.56 C 226.54 1115.67 222.97 1113.94 216.73 1108.87 C 215.52 1106.51 215.38 1103.16 214.94 1100.53 L 225.67 1092.51 Z" fill="#6d605e" fill-rule="nonzero" node-id="226" stroke="none" target-height="74.599976" target-width="33.431" target-x="214.94" target-y="1092.51"></path><path d="M 238.67 1167.11 L 248.26 1159.76 C 256.17 1181.29 267.58 1203.39 270.41 1226.28 L 266.08 1230.74 L 260.78 1226.79 C 265.10 1213.40 244.46 1181.48 238.67 1167.11 Z" fill="#73594e" fill-rule="nonzero" node-id="228" stroke="none" target-height="70.97998" target-width="31.744995" target-x="238.668" target-y="1159.76"></path><path d="M 200.62 1070.89 L 206.87 1078.38 C 211.86 1080.05 217.00 1081.54 221.78 1083.72 L 225.67 1092.51 L 214.94 1100.53 C 215.38 1103.16 215.52 1106.51 216.73 1108.87 C 222.97 1113.94 226.54 1115.67 228.95 1123.56 L 225.04 1129.72 L 222.34 1129.19 C 201.28 1137.31 178.51 1140.31 158.24 1150.22 C 142.56 1134.39 127.99 1118.06 113.71 1100.96 L 118.69 1082.87 C 130.67 1082.84 143.53 1076.81 155.73 1075.04 C 170.57 1072.88 186.26 1075.04 200.62 1070.89 Z" fill="#b1b9d0" fill-rule="nonzero" node-id="230" stroke="none" target-height="79.329956" target-width="115.245" target-x="113.70899" target-y="1070.89"></path><path d="M 206.87 1078.38 C 211.86 1080.06 217.00 1081.54 221.78 1083.72 L 225.67 1092.51 L 214.94 1100.53 C 198.12 1096.04 171.69 1100.32 153.86 1100.98 C 170.89 1091.63 188.70 1085.13 206.87 1078.38 Z" fill="#cbcdd7" fill-rule="nonzero" node-id="232" stroke="none" target-height="22.599976" target-width="71.812" target-x="153.856" target-y="1078.38"></path><path d="M 216.73 1108.87 C 222.97 1113.94 226.54 1115.67 228.95 1123.56 L 225.04 1129.72 L 222.35 1129.19 C 216.31 1128.47 209.52 1128.07 203.85 1125.76 C 198.65 1123.64 197.29 1123.66 195.18 1118.51 C 200.11 1111.98 209.16 1110.94 216.73 1108.87 Z" fill="#b9b8c7" fill-rule="nonzero" node-id="234" stroke="none" target-height="20.849976" target-width="33.770004" target-x="195.18498" target-y="1108.87"></path><path d="M 160.84 559.90 L 165.31 568.43 C 153.80 597.55 152.84 633.76 149.77 664.87 C 149.69 685.04 149.72 708.06 139.38 726.02 L 132.01 726.02 C 122.21 710.50 125.69 696.59 123.16 679.59 L 123.24 653.68 C 126.91 632.08 129.71 609.80 126.31 588.02 C 137.51 577.19 146.59 566.88 160.84 559.90 Z" fill="#d4d8eb" fill-rule="nonzero" node-id="236" stroke="none" target-height="166.12299" target-width="43.10601" target-x="122.20699" target-y="559.898"></path><path d="M 866.77 646.73 C 870.12 659.18 873.89 675.43 885.80 682.51 C 887.72 683.63 889.58 684.36 891.70 684.84 L 893.11 681.18 L 896.03 680.03 L 899.48 686.13 C 897.11 711.95 895.58 737.84 894.88 763.75 C 894.75 763.76 894.59 763.82 894.46 763.76 C 886.60 760.36 875.19 759.18 869.29 752.59 C 851.83 733.02 864.30 671.68 866.77 646.73 Z" fill="#b6c0d8" fill-rule="nonzero" node-id="238" stroke="none" target-height="117.09003" target-width="47.651917" target-x="851.8251" target-y="646.727"></path><path d="M 878.43 588.16 C 892.71 593.34 899.37 600.06 907.12 612.94 C 902.96 634.91 901.58 658.59 896.03 680.04 L 893.11 681.19 L 891.70 684.85 C 889.58 684.37 887.72 683.64 885.81 682.52 C 873.89 675.44 870.12 659.19 866.77 646.74 C 864.60 626.79 872.03 606.74 878.43 588.16 Z" fill="#e5e5e9" fill-rule="nonzero" node-id="240" stroke="none" target-height="96.69702" target-width="42.528015" target-x="864.595" target-y="588.156"></path><path d="M 149.77 664.87 L 158.55 674.97 C 157.69 693.65 158.61 711.50 160.35 730.11 C 160.62 739.69 160.49 749.47 161.32 759.00 C 155.54 764.73 139.90 790.24 139.41 790.58 C 138.44 791.27 137.04 790.67 135.86 790.71 C 134.79 786.69 134.03 781.81 130.65 779.04 C 127.92 776.79 125.72 777.99 122.40 778.43 L 126.61 768.36 L 123.58 746.38 C 122.28 724.25 119.96 701.61 123.16 679.58 C 125.69 696.59 122.21 710.50 132.01 726.02 L 139.38 726.02 C 149.73 708.05 149.69 685.04 149.77 664.87 Z" fill="#828ebc" fill-rule="nonzero" node-id="242" stroke="none" target-height="126.39606" target-width="41.354996" target-x="119.961" target-y="664.871"></path><path d="M 123.58 746.38 C 129.59 748.78 131.51 748.70 134.93 754.39 C 133.19 760.32 130.67 763.77 126.61 768.36 L 123.58 746.38 Z" fill="#7d8eba" fill-rule="nonzero" node-id="244" stroke="none" target-height="21.980957" target-width="11.346001" target-x="123.579" target-y="746.379"></path><path d="M 160.35 730.11 C 169.89 756.73 164.34 790.72 177.68 815.29 C 181.31 814.54 179.82 815.38 182.25 812.95 L 187.47 813.47 C 190.68 821.60 191.13 830.94 194.63 838.52 C 204.04 858.98 224.37 881.03 239.21 897.95 L 236.01 901.27 C 235.05 901.16 233.68 901.08 232.71 900.74 C 207.88 891.93 182.98 837.50 172.01 815.36 C 167.40 814.37 162.85 813.05 158.42 811.43 C 146.81 807.21 141.07 801.91 135.86 790.72 C 137.04 790.67 138.44 791.27 139.41 790.59 C 139.90 790.24 155.54 764.73 161.31 759.01 C 160.48 749.47 160.62 739.69 160.35 730.11 Z" fill="#b1b9d0" fill-rule="nonzero" node-id="246" stroke="none" target-height="171.16095" target-width="103.35301" target-x="135.859" target-y="730.111"></path><path d="M 161.31 759.01 C 164.43 777.93 167.54 796.71 172.01 815.37 C 167.40 814.37 162.85 813.06 158.42 811.43 C 146.81 807.22 141.07 801.91 135.86 790.72 C 137.04 790.68 138.44 791.27 139.41 790.59 C 139.90 790.25 155.54 764.73 161.31 759.01 Z" fill="#7676c5" fill-rule="nonzero" node-id="248" stroke="none" target-height="56.353943" target-width="36.155" target-x="135.859" target-y="759.014"></path><path d="M 899.48 686.13 C 903.51 683.84 910.18 680.93 912.94 677.20 C 916.49 672.40 905.93 669.52 904.76 662.19 C 903.73 655.61 904.44 652.10 907.81 646.59 L 910.26 647.52 L 915.78 661.48 C 916.44 712.66 926.58 758.32 897.22 805.79 C 890.45 794.95 893.96 776.09 894.88 763.76 C 895.58 737.84 897.12 711.95 899.48 686.13 Z" fill="#80b8f0" fill-rule="nonzero" node-id="250" stroke="none" target-height="159.1961" target-width="36.13098" target-x="890.451" target-y="646.592"></path><path d="M 82.25 897.37 C 101.35 895.12 122.19 894.78 138.09 907.39 C 143.00 911.28 146.92 916.70 150.72 921.65 L 150.48 923.35 C 145.50 927.33 139.99 931.17 135.50 935.69 C 125.39 939.05 115.48 938.85 104.95 938.97 C 92.20 927.68 84.51 914.15 82.25 897.37 Z" fill="#634f4c" fill-rule="nonzero" node-id="252" stroke="none" target-height="44.262024" target-width="68.46751" target-x="82.2485" target-y="894.784"></path><path d="M 106.44 660.09 C 108.59 651.43 110.74 636.47 117.63 630.98 C 122.44 637.53 122.37 645.81 123.24 653.67 L 123.16 679.58 C 119.96 701.61 122.28 724.24 123.58 746.37 L 126.61 768.36 L 122.40 778.43 C 96.33 744.36 111.88 698.76 106.44 660.09 Z" fill="#6290d7" fill-rule="nonzero" node-id="254" stroke="none" target-height="147.45001" target-width="30.284988" target-x="96.326004" target-y="630.979"></path><path d="M 82.94 862.05 C 94.54 862.06 106.39 861.35 117.46 865.34 C 132.10 877.97 150.69 896.52 151.14 917.27 C 151.19 919.60 151.09 919.69 150.72 921.65 C 146.92 916.70 143.00 911.28 138.09 907.39 C 122.19 894.78 101.35 895.12 82.25 897.37 C 82.96 885.67 82.73 873.77 82.94 862.05 Z" fill="#bc5959" fill-rule="nonzero" node-id="256" stroke="none" target-height="60.299988" target-width="68.944496" target-x="82.2485" target-y="861.349"></path><path d="M 153.15 1039.81 C 159.32 1046.49 161.74 1050.16 171.59 1050.63 C 173.19 1050.71 174.78 1050.65 176.38 1050.62 L 186.69 1046.84 L 192.75 1054.51 C 196.43 1059.88 199.76 1064.23 200.62 1070.90 C 186.26 1075.04 170.57 1072.89 155.73 1075.04 C 143.53 1076.82 130.67 1082.85 118.69 1082.87 L 121.64 1076.02 C 129.19 1060.27 135.90 1050.58 151.42 1042.29 L 153.15 1039.81 Z" fill="#cacddc" fill-rule="nonzero" node-id="258" stroke="none" target-height="43.059937" target-width="81.928024" target-x="118.687" target-y="1039.81"></path><path d="M 151.42 1042.28 L 153.77 1048.08 C 148.37 1059.63 136.73 1069.17 127.08 1077.21 L 121.64 1076.02 C 129.19 1060.27 135.90 1050.58 151.42 1042.28 Z" fill="#cbcdd7" fill-rule="nonzero" node-id="260" stroke="none" target-height="34.92993" target-width="32.124" target-x="121.644005" target-y="1042.28"></path><path d="M 244.17 1080.96 C 260.09 1065.42 276.13 1046.48 294.24 1033.71 C 297.00 1031.77 299.57 1033.12 302.79 1033.68 C 290.26 1045.85 260.91 1068.74 255.69 1085.07 L 260.67 1092.75 L 259.14 1096.97 C 254.19 1090.46 249.94 1084.09 242.78 1079.82 L 233.93 1080.93 L 231.20 1084.62 C 233.14 1091.55 239.78 1106.16 237.23 1112.67 C 236.97 1113.30 236.49 1113.86 236.12 1114.47 C 233.33 1106.66 230.94 1099.04 225.67 1092.51 L 221.78 1083.72 C 217.00 1081.54 211.86 1080.05 206.87 1078.38 L 200.62 1070.89 C 199.76 1064.23 196.43 1059.87 192.75 1054.51 L 195.95 1052.49 C 201.33 1058.73 202.68 1060.85 210.90 1063.16 C 219.27 1061.78 225.20 1058.91 231.90 1053.71 C 236.68 1062.29 240.24 1071.95 244.17 1080.96 Z" fill="#b1b9d0" fill-rule="nonzero" node-id="262" stroke="none" target-height="82.69995" target-width="110.032" target-x="192.75499" target-y="1031.77"></path><path d="M 200.62 1070.90 L 204.18 1065.70 C 211.20 1066.94 215.53 1068.51 219.81 1074.86 C 221.00 1076.64 222.02 1078.55 223.03 1080.43 L 221.78 1083.73 C 217.00 1081.55 211.86 1080.06 206.87 1078.39 L 200.62 1070.90 Z" fill="#6d605e" fill-rule="nonzero" node-id="264" stroke="none" target-height="18.03003" target-width="22.410995" target-x="200.616" target-y="1065.7"></path><path d="M 152.54 981.72 C 161.58 995.76 177.09 1034.33 176.38 1050.62 C 174.78 1050.65 173.19 1050.71 171.59 1050.63 C 161.73 1050.16 159.32 1046.49 153.15 1039.81 C 153.33 1026.06 139.84 1001.26 134.53 987.84 L 152.54 981.72 Z" fill="#634f4c" fill-rule="nonzero" node-id="266" stroke="none" target-height="68.99103" target-width="42.551987" target-x="134.535" target-y="981.71893"></path><path d="M 158.05 953.92 C 167.62 966.66 175.50 987.79 178.48 1003.38 L 191.01 1036.71 L 195.95 1052.49 L 192.75 1054.52 L 186.69 1046.84 L 176.38 1050.62 C 177.09 1034.33 161.58 995.76 152.54 981.72 C 155.52 981.10 158.57 979.80 161.46 978.83 C 164.14 971.00 159.73 962.13 158.05 953.92 Z" fill="#8b6d63" fill-rule="nonzero" node-id="268" stroke="none" target-height="100.60199" target-width="43.404022" target-x="152.545" target-y="953.918"></path><path d="M 178.48 1003.38 L 191.01 1036.71 L 195.95 1052.49 L 192.75 1054.52 L 186.69 1046.84 L 182.90 1041.29 L 181.94 1042.42 C 179.66 1029.30 177.12 1016.76 178.48 1003.38 Z" fill="#6d605e" fill-rule="nonzero" node-id="270" stroke="none" target-height="51.140015" target-width="18.830017" target-x="177.119" target-y="1003.38"></path><path d="M 907.12 612.94 C 915.57 627.18 930.64 657.09 925.92 673.72 C 925.68 674.59 925.36 675.44 925.10 676.30 L 921.78 675.90 C 919.39 671.12 917.40 666.58 915.78 661.49 L 910.25 647.52 L 907.81 646.60 C 904.44 652.10 903.73 655.61 904.76 662.20 C 905.93 669.52 916.49 672.41 912.94 677.21 C 910.18 680.94 903.51 683.85 899.48 686.14 L 896.03 680.04 C 901.58 658.59 902.96 634.91 907.12 612.94 Z" fill="#aacdef" fill-rule="nonzero" node-id="272" stroke="none" target-height="73.19995" target-width="34.617065" target-x="896.02594" target-y="612.939"></path><path d="M 106.44 660.10 C 104.24 656.93 102.59 653.52 102.23 649.64 C 100.24 628.39 112.93 603.51 126.31 588.03 C 129.71 609.81 126.91 632.09 123.24 653.68 C 122.37 645.82 122.44 637.54 117.63 630.99 C 110.74 636.48 108.59 651.44 106.44 660.10 Z" fill="#aacdef" fill-rule="nonzero" node-id="274" stroke="none" target-height="72.070984" target-width="29.464005" target-x="100.24199" target-y="588.031"></path><path d="M 156.23 953.73 L 158.05 953.91 C 159.73 962.13 164.14 971.00 161.46 978.83 C 158.57 979.79 155.52 981.10 152.54 981.72 L 134.54 987.84 C 129.57 977.80 121.61 968.38 116.13 958.28 C 126.80 963.72 136.97 963.52 148.57 962.96 L 149.05 959.26 L 156.23 953.73 Z" fill="#948883" fill-rule="nonzero" node-id="276" stroke="none" target-height="34.10504" target-width="48.015007" target-x="116.128" target-y="953.73"></path><path d="M 135.50 935.69 C 139.98 943.53 144.23 951.65 149.05 959.27 L 148.57 962.97 C 136.97 963.52 126.80 963.72 116.13 958.29 L 104.95 938.97 C 115.48 938.85 125.39 939.05 135.50 935.69 Z" fill="#adadad" fill-rule="nonzero" node-id="278" stroke="none" target-height="28.030945" target-width="44.104996" target-x="104.946" target-y="935.691"></path><path d="M 191.01 1036.70 C 201.32 1035.94 213.36 1033.70 221.97 1040.76 C 226.32 1044.33 229.28 1048.80 231.90 1053.71 C 225.20 1058.91 219.27 1061.78 210.90 1063.16 C 202.68 1060.85 201.33 1058.73 195.95 1052.48 L 191.01 1036.70 Z" fill="#cbcdd7" fill-rule="nonzero" node-id="280" stroke="none" target-height="29.460083" target-width="40.886993" target-x="191.014" target-y="1033.7"></path><path d="M 82.94 862.05 L 76.04 828.84 C 89.63 840.68 105.12 852.29 117.46 865.34 C 106.39 861.35 94.54 862.05 82.94 862.05 Z" fill="#c38788" fill-rule="nonzero" node-id="282" stroke="none" target-height="36.494995" target-width="41.415504" target-x="76.0415" target-y="828.84"></path><path d="M 150.48 923.35 C 152.79 933.43 155.26 943.40 156.23 953.73 L 149.05 959.26 C 144.23 951.64 139.98 943.52 135.50 935.68 C 139.99 931.17 145.50 927.33 150.48 923.35 Z" fill="#c4bab1" fill-rule="nonzero" node-id="284" stroke="none" target-height="35.917908" target-width="20.723007" target-x="135.504" target-y="923.34607"></path><path d="M 706.48 214.39 C 717.95 200.83 733.35 197.55 749.70 204.44 C 754.90 211.07 753.68 207.76 753.20 217.73 C 743.67 235.28 729.84 246.37 719.20 262.81 C 731.97 276.04 735.55 291.48 744.66 299.91 C 770.33 323.69 800.22 341.39 826.50 365.24 C 844.39 381.48 855.38 407.88 869.40 421.22 C 901.04 451.32 939.40 462.85 940.94 513.63 C 907.02 594.44 842.35 571.52 787.21 534.97 C 771.68 524.66 708.00 502.79 699.92 489.72 C 597.37 442.63 492.46 400.90 385.57 364.69 C 379.11 364.33 371.92 362.16 365.54 360.56 C 335.14 309.47 357.49 291.24 404.39 265.68 C 477.33 225.92 559.41 234.61 639.08 234.88 C 651.88 239.33 669.87 247.41 682.51 245.84 C 689.94 235.29 697.59 223.63 706.48 214.39 Z" fill="#7494e6" fill-rule="nonzero" node-id="286" stroke="none" target-height="396.89502" target-width="605.7991" target-x="335.144" target-y="197.54698"></path><path d="M 385.58 364.69 L 383.36 360.16 C 395.46 345.01 378.68 332.53 383.04 324.76 C 410.57 275.64 518.61 335.27 548.87 346.89 C 581.10 358.96 613.38 370.78 645.80 382.33 C 654.61 385.49 684.13 396.10 692.41 397.20 C 765.36 424.02 893.42 455.21 940.94 513.64 C 907.02 594.44 842.35 571.52 787.21 534.97 C 771.68 524.66 708.00 502.79 699.92 489.72 C 597.37 442.63 492.46 400.90 385.58 364.69 Z" fill="#2e47a5" fill-rule="nonzero" node-id="288" stroke="none" target-height="318.79898" target-width="562.2599" target-x="378.68402" target-y="275.645"></path><path d="M 692.41 397.20 C 765.36 424.02 893.42 455.22 940.94 513.64 C 907.02 594.45 842.35 571.53 787.21 534.97 C 771.68 524.66 708.00 502.79 699.92 489.72 C 734.60 491.36 824.38 565.24 872.40 542.23 C 886.04 535.69 916.34 539.30 926.93 532.40 L 926.95 528.22 C 903.09 482.43 738.90 433.61 692.41 397.20 Z" fill="#273b7d" fill-rule="nonzero" node-id="290" stroke="none" target-height="197.24203" target-width="248.53107" target-x="692.412" target-y="397.205"></path><path d="M 706.48 214.39 C 717.95 200.83 733.35 197.55 749.70 204.44 C 754.90 211.07 753.68 207.76 753.20 217.73 C 743.67 235.28 729.84 246.37 719.20 262.81 C 710.04 258.76 700.91 253.80 692.01 249.16 C 696.92 237.61 701.76 226.02 706.48 214.39 Z" fill="#4252a9" fill-rule="nonzero" node-id="292" stroke="none" target-height="65.26701" target-width="62.889038" target-x="692.014" target-y="197.54698"></path><path d="M 730.32 269.02 C 767.38 268.35 835.95 329.06 861.91 352.95 C 893.85 382.38 941.26 433.54 943.20 478.96 C 929.08 470.00 925.73 442.61 913.87 429.35 C 865.55 375.36 791.03 307.54 730.32 269.02 Z" fill="#c7cff3" fill-rule="nonzero" node-id="294" stroke="none" target-height="210.613" target-width="212.88" target-x="730.321" target-y="268.347"></path><path d="M 639.08 234.88 L 636.29 233.70 C 575.55 208.78 478.20 209.93 415.47 232.56 C 378.45 245.92 375.19 265.82 354.22 276.75 L 352.28 273.85 C 360.14 248.23 377.91 245.21 395.59 229.90 C 442.60 189.17 652.38 200.12 682.51 245.84 C 669.87 247.41 651.88 239.33 639.08 234.88 Z" fill="#c7cff3" fill-rule="nonzero" node-id="296" stroke="none" target-height="87.574005" target-width="330.22702" target-x="352.283" target-y="189.17099"></path></g></svg>