<svg xmlns="http://www.w3.org/2000/svg" fill="none" viewBox="0 0 1024 1277" height="1277" width="1024">
<g clip-path="url(#clip0_30102_50555)">
<path fill="#E2C391" d="M189.602 1161.43C76.5821 1060.5 10.1734 931.304 1.68899 779.341C-1.29625 726.043 0.562942 671.782 0.667687 618.369C0.772433 569.656 -1.13917 519.879 3.28633 471.389C13.1062 363.466 57.9897 252.93 130.657 172.016C220.529 70.0909 347.506 8.40978 483.204 0.754299C618.745 -6.30163 747.372 36.0235 848.425 127.455C952.935 221.465 1015.65 353.252 1022.67 493.632C1025.21 548.399 1023.35 604.019 1023.25 658.867C1023.17 702.171 1025.16 746.606 1021.62 789.748C1011.85 909.822 962.546 1023.27 881.42 1112.34C861.807 1133.68 840.15 1152.95 818.232 1171.83L814.488 1174.31L802.469 1183.61C792.753 1190.26 783.117 1197.43 772.799 1203.14C759.601 1210.57 746.377 1218.9 732.184 1224.24C721.291 1230.21 710.292 1235.5 698.954 1240.55C688.165 1245.58 676.04 1249.38 664.728 1253.09C552.336 1290.04 407.787 1285.14 301.444 1231.49C284.528 1223.17 268.162 1214.37 251.926 1204.81C234.381 1194.37 217.884 1183.66 201.779 1171.09L189.602 1161.43Z"></path>
<path fill="#161820" d="M507.505 473.986C538.588 474.146 646.24 491.402 668.708 510.381C688.557 516.84 711.889 533.117 726.082 548.533L734.698 545.936C771.306 581.341 779.948 628.096 784.006 676.15C782.645 692.228 782.566 709.874 778.376 725.455L777.486 730.872L776.57 732.752C773.244 744.326 770.023 755.933 766.933 767.573L766.409 769.906C764.707 777.349 762.612 782.612 758.475 789.126L759.391 792.948L769.473 795.572L757.453 800.444L757.218 803.536C747.319 828.84 721.919 847.042 697.722 857.915C698.115 858.334 698.482 858.763 698.848 859.172C713.225 874.297 747.057 876.567 754.521 896.622C752.635 906.142 745.382 910.145 743.391 920.039C743.156 921.214 742.396 923.683 742.003 924.969L729.539 931.394C719.797 940.246 699.032 948.04 686.174 950.805C680.623 952.504 677.873 952.446 674.312 957.151C664.151 959.895 653.965 962.95 643.648 964.966C625.317 968.755 607.091 970.941 588.473 972.894C555.033 951.449 523.112 972.873 488.179 968.87C456.075 967.595 424.101 960.777 391.787 963.731L387.1 963.927C373.771 956.347 352.01 953.203 336.979 949.174L325.3 943.228L324.069 944.024C277.771 923.809 232.705 898.277 202.302 856.69C202.931 839.156 192.718 834.171 187.036 820.172C191.566 811.521 198.348 809.817 206.728 805.204C209.949 800.986 217.935 799.302 222.885 797.53C222.256 793.796 219.847 790.725 217.857 787.576C205.811 770.775 191.985 747.79 199.264 726.845C202.643 717.124 206.073 712.039 205.863 701.203L205.785 698.674C204.816 638.469 209.634 585.789 252.371 538.244L262.086 544.47C318.806 476.921 427.034 476.008 507.505 473.986Z"></path>
<path fill="#8C8A9D" d="M206.728 805.205C209.949 800.987 217.935 799.304 222.885 797.531C286.23 868.344 383.826 881.147 474.457 886.182C547.177 890.222 629.769 886.386 697.722 857.916C698.115 858.335 698.482 858.765 698.848 859.173C713.225 874.298 747.057 876.568 754.521 896.623C752.635 906.143 745.382 910.146 743.391 920.04C743.156 921.215 742.396 923.685 742.003 924.97L729.539 931.395C719.797 940.247 699.032 948.041 686.174 950.806C680.623 952.505 677.873 952.448 674.312 957.152C664.151 959.896 653.965 962.952 643.648 964.968C625.317 968.756 607.091 970.942 588.473 972.895C555.033 951.45 523.112 972.874 488.179 968.871C456.075 967.596 424.101 960.779 391.787 963.732L387.1 963.928C373.771 956.348 352.01 953.204 336.979 949.175L325.3 943.229L324.069 944.025C277.771 923.81 232.705 898.278 202.302 856.691C202.931 839.157 192.718 834.172 187.036 820.173C191.566 811.523 198.348 809.818 206.728 805.205Z"></path>
<path fill="#917B7D" d="M508.919 963.017C517.036 956.099 630.162 929.054 646.79 928.059C673.605 926.459 701.31 934.563 728.177 931.573C728.623 931.52 729.094 931.455 729.539 931.397C719.798 940.249 699.032 948.043 686.174 950.808C680.623 952.507 677.873 952.45 674.312 957.155C664.152 959.898 653.965 962.954 643.648 964.97C625.317 968.758 607.091 970.944 588.473 972.898C555.033 951.452 523.112 972.877 488.179 968.873C495.092 967.771 502.189 965.019 508.919 963.017Z"></path>
<path fill="#9E7E99" d="M325.3 943.221C339.677 941.595 356.279 938.234 370.629 939.365C386.655 940.629 400.586 951.974 416.377 954.736C446.124 959.935 480.402 952.256 508.919 963.007C502.189 965.009 495.093 967.761 488.18 968.863C456.075 967.588 424.102 960.771 391.788 963.724L387.1 963.92C373.772 956.341 352.011 953.196 336.98 949.167L325.3 943.221Z"></path>
<path fill="#464C5D" d="M262.087 544.47C318.806 476.921 427.035 476.008 507.505 473.986C500.906 481.097 498.969 491.384 490.17 494.963C440.442 515.146 388.96 529.591 339.598 550.989C323.127 558.126 271.775 583.951 257.687 576.359C254.885 561.946 261.301 554.539 262.087 544.47Z"></path>
<path fill="#DADBE1" d="M205.786 698.676L207.802 710.455L208.719 720.032C214.952 739.705 222.205 758.129 232.889 775.898L240.117 786.434C281.805 841.329 347.428 857.765 412.633 866.617C502.373 878.792 641.842 883.743 718.096 825.559C728.754 817.433 738.6 807.366 747.268 797.189L752.401 789.219L766.934 767.575L766.41 769.908C764.708 777.351 762.613 782.614 758.476 789.128L759.392 792.95L769.474 795.574L757.455 800.446L757.219 803.538C747.321 828.843 721.92 847.044 697.724 857.917C629.77 886.387 547.178 890.223 474.459 886.183C383.827 881.148 286.231 868.345 222.886 797.532C222.257 793.799 219.848 790.727 217.858 787.578C205.812 770.777 191.986 747.792 199.266 726.847C202.644 717.126 206.074 712.041 205.865 701.205L205.786 698.676Z"></path>
<path fill="#53535A" d="M668.708 510.373C688.557 516.832 711.889 533.109 726.082 548.525C739.883 565.558 758.344 588.98 757.899 612.104C754.992 604.964 755.542 602.43 749.964 599.757C745.748 607.645 747.11 606.179 747.634 616.259L744.675 616.458C723.49 598.024 720.347 584.705 705.971 564.362C698.325 553.512 676.983 540.83 670.777 524.137C675.071 522.856 674.888 522.974 678.528 520.377C674.836 515.599 673.317 514.381 668.708 510.373Z"></path>
<path fill="#C88E4D" d="M747.268 797.184C737.212 795.579 727.052 794.019 717.049 791.971C706.862 789.882 695.183 785.957 689.239 776.865L690.731 773.003C691.203 772.835 691.648 772.652 692.119 772.497C711.68 766.049 735.196 780.784 752.4 789.214L747.268 797.184Z"></path>
<path fill="#C88E4D" d="M778.376 725.449L777.486 730.866L776.57 732.745C749.44 734.861 717.755 744.538 690.914 739.644L690.469 735.981C710.161 720.026 753.709 723.118 778.376 725.449Z"></path>
<path fill="#C88E4D" d="M207.802 710.454C229.039 709.679 271.2 710.86 287.933 724.784L289.032 729.614C265.805 740.144 229.904 710.957 208.719 720.032L207.802 710.454Z"></path>
<path fill="#C88E4D" d="M232.889 775.895C246.453 771.429 277.562 757.008 290.97 762.561C291.441 765.669 292.698 767.431 290.603 770.03C282.25 780.451 252.083 778.898 240.116 786.431L232.889 775.895Z"></path>
<path fill="#EAC78B" d="M611.779 621.089C620.368 620.044 628.774 619.021 637.311 620.956C649.173 623.642 659.124 631.711 665.487 641.901C676.695 659.809 677.428 684.616 672.662 704.663C667.53 726.242 659.045 737.903 640.375 749.423C633.069 750.669 625.815 750.95 618.457 749.837C606.856 748.085 596.669 741.016 589.94 731.583C577.553 714.212 576.506 688.876 580.486 668.611C584.859 646.265 592.898 633.557 611.779 621.089Z"></path>
<path fill="#EAC78B" d="M341.981 610.473C349.051 609.991 355.493 609.894 362.459 611.64C374.348 614.62 384.298 624.119 389.981 634.685C400.063 653.452 399.984 679.26 394.013 699.275C387.833 719.982 378.721 730.617 359.866 740.702C353.006 741.307 346.197 740.901 339.52 739.129C327.84 736.034 318.44 726.847 312.81 716.456C302.073 696.67 302.806 669.617 309.484 648.672C315.664 629.2 324.07 619.861 341.981 610.473Z"></path>
<path fill="#DCAC6D" d="M483.047 737.488C495.328 742.785 496.507 757.695 509.338 763.332C519.289 761.109 522.117 751.061 531.099 746.924L536.494 752.459C537.41 758.206 538.379 761.431 534.765 766.594C529.685 773.799 519.734 778.997 511.04 779.696C499.23 780.641 492.108 774.145 483.807 767.019C479.512 771.307 475.06 775.679 469.457 778.164C463.486 780.8 455.421 781.214 449.502 778.248C443.323 775.161 436.488 768.862 434.419 762.196C432.377 755.616 432.822 750.783 436.174 745.055C451.886 744.073 451.1 759.261 463.303 762.002C472.677 756.376 477.496 746.55 483.047 737.488Z"></path>
<path fill="#E9EAED" d="M189.655 215.435C193.374 213.199 204.031 206.877 207.671 206.314C278.898 195.328 372.619 280.771 415.958 323.835C473.751 308.697 560.192 308.618 616.99 327.246C618.614 328.508 624.297 333.148 625.684 333.831C643.832 343.131 656.925 350.147 676.669 356.017L679 356.376C730.77 386.547 769.474 408.993 804.956 458.908C813.598 475.858 820.93 489.517 834.783 502.642C839.47 503.723 837.742 503.98 842.01 502.828L849.683 499.688C860.681 525.891 863.221 541.548 871.915 566.226C847.404 607.169 857.355 657.846 845.231 702.142L844.471 704.206C840.989 713.982 843.738 726.939 838.161 734.786L828.576 735.1C811.686 737.637 794.246 733.291 777.487 730.864L778.377 725.447C782.567 709.866 782.646 692.22 784.007 676.142C779.948 628.088 771.307 581.333 734.698 545.928L726.083 548.525C711.89 533.109 688.558 516.832 668.708 510.373C646.241 491.394 538.589 474.138 507.505 473.978C427.035 475.999 318.806 476.913 262.087 544.461L252.371 538.235C209.635 585.781 204.817 638.461 205.786 698.666L205.864 701.195C206.074 712.031 202.643 717.116 199.265 726.837C191.985 747.782 205.812 770.767 217.858 787.568C219.848 790.717 222.257 793.788 222.885 797.522C217.936 799.294 209.95 800.978 206.729 805.196C198.349 809.809 191.567 811.513 187.036 820.164C192.719 834.163 202.931 839.148 202.303 856.682C183.03 838.684 177.164 811.181 165.773 800.373C157.263 776.503 154.146 749.832 151.475 724.735L150.323 713.702L149.852 662.459L150.637 608.177C156.32 593.363 158.1 565.81 156.529 549.873L152.994 548.648C160.038 543.304 176.143 503.558 181.642 491.973C172.686 444.932 153.544 343.879 165.747 298.74C166.873 267.448 170.958 241.724 189.655 215.435Z"></path>
<path fill="#BCBECE" d="M151.475 724.746C153.622 724.306 153.832 723.565 155.874 721.864L154.512 715.227C175.2 691.532 160.692 685.191 164.437 660.287C170.853 617.53 199.396 654.616 198.924 598.31C227.337 553.15 273.529 481.025 334.832 483.617C298.852 500.776 280.914 509.138 252.371 538.247C209.635 585.793 204.817 638.473 205.785 698.677L205.864 701.206C206.073 712.043 202.643 717.127 199.265 726.849C191.985 747.794 205.812 770.779 217.857 787.579C219.848 790.729 222.256 793.8 222.885 797.533C217.936 799.306 209.949 800.99 206.728 805.207C198.348 809.821 191.566 811.525 187.036 820.175C192.718 834.175 202.931 839.16 202.302 856.693C183.029 838.696 177.164 811.193 165.773 800.385C157.262 776.515 154.146 749.844 151.475 724.746Z"></path>
<path fill="#C4BAB1" d="M217.858 787.57C219.848 790.72 222.257 793.791 222.885 797.525C217.936 799.297 209.95 800.981 206.729 805.198C199.894 806.144 194.211 806.432 187.403 805.369L186.198 803.392C194.29 795.611 207.514 791.796 217.858 787.57Z"></path>
<path fill="#070A10" d="M334.832 483.608C340.541 483.388 356.829 478.055 363.323 476.453C419.598 462.569 479.905 463.388 536.992 467.161C606.019 477.984 684.473 492.303 734.699 545.931L726.083 548.528C711.89 533.112 688.558 516.835 668.709 510.376C646.241 491.397 538.589 474.141 507.506 473.981C427.035 476.003 318.807 476.916 262.087 544.465L252.372 538.239C280.915 509.13 298.852 500.768 334.832 483.608Z"></path>
<path fill="#B9B8C7" d="M536.991 467.162C585.148 456.035 662.921 478.747 704.453 505.719C749.886 535.216 768.269 560.837 788.407 609.623C793.33 633.868 793.225 652.598 784.007 676.146C779.948 628.092 771.307 581.337 734.698 545.932C684.473 492.304 606.019 477.985 536.991 467.162Z"></path>
<path fill="#CBCDD7" d="M165.747 298.75C170.775 291.27 172.503 287.282 175.305 278.82C177.688 288.031 175.75 290.489 171.193 298.388C160.771 316.43 173.681 381.512 184.575 396.263C188.738 386.309 178.631 381.028 185.151 365.523C193.216 377.496 187.56 429.092 192.902 441.083C205.602 469.621 202.408 463.932 181.642 491.983C172.686 444.942 153.544 343.889 165.747 298.75Z"></path>
<path fill="#CBCDD7" d="M788.406 609.629C808.046 633.135 804.249 687.367 804.039 716.484C812.759 716.724 821.532 716.366 829.859 719.267L836.144 722.733L835.672 725.791L825.957 730.075L828.576 735.109C811.686 737.646 794.246 733.3 777.486 730.873L778.377 725.456C782.566 709.875 782.645 692.229 784.007 676.151C793.224 652.603 793.329 633.873 788.406 609.629Z"></path>
<path fill="#C4BAB1" d="M829.859 719.264L836.144 722.73L835.672 725.788L825.957 730.072L828.576 735.106C811.686 737.643 794.246 733.297 777.486 730.87L778.377 725.453C794.874 721.408 812.969 721.204 829.859 719.264Z"></path>
<path fill="#DEA25F" d="M211.808 280.878C214.375 271.822 215.422 262.52 221.34 256.647C252.79 251.008 340.017 317.744 351.487 345.421L348.92 350.128C302.02 362.714 249.753 409.775 217.072 443.913C208.483 406.704 196.07 315.718 211.808 280.878Z"></path>
<path fill="#C87F58" d="M211.808 280.878C214.374 271.822 215.422 262.52 221.34 256.647C252.79 251.008 340.017 317.744 351.486 345.421L348.92 350.128C339.152 344.02 322.105 321.938 309.51 315.165C292.934 306.25 275.362 313.393 263.474 296.388C265.621 291.403 269.863 291.22 276.305 288.588L277.405 285.132C262.453 269.133 229.746 283.229 211.808 280.878Z"></path>
<path fill="#D7A458" d="M325.3 943.229L336.98 949.174C352.011 953.204 373.771 956.348 387.1 963.928L391.788 963.731C424.102 960.778 456.075 967.596 488.18 968.871C523.112 972.874 555.033 951.45 588.473 972.895C607.092 970.942 625.318 968.755 643.648 964.967C653.966 962.951 664.152 959.896 674.312 957.152C677.874 952.447 680.623 952.505 686.175 950.805C688.663 954.128 690.679 957.296 694.502 959.228C694.293 959.851 694.109 960.477 693.874 961.097C690.05 972.24 680.938 979.71 678.319 991.06C683.635 994.615 695.105 998.301 696.388 1003.94C693.664 1004.8 690.862 1005.87 688.06 1006.45L693.376 1015.14C698.954 1029.54 684.473 1057.52 685.049 1074.25C684.316 1081.79 682.902 1090.07 682.954 1097.61C682.404 1119.91 680.597 1145.52 685.861 1167.38L691.962 1200.53C694.319 1213.85 696.833 1227.18 698.954 1240.56C688.165 1245.58 676.041 1249.38 664.728 1253.1C552.336 1290.04 407.787 1285.14 301.444 1231.5C284.528 1223.17 268.162 1214.38 251.926 1204.82C234.381 1194.37 217.884 1183.66 201.779 1171.1C202.486 1168.4 203.036 1166.78 204.974 1164.68C216.601 1152.22 224.142 1138.13 232.312 1123.34C245.798 1105.98 275.965 1060.87 274.97 1039.63L278.165 1035.97C286.021 1028.59 293.013 1021.33 299.507 1012.74L297.49 1007.02L294.845 1004.13L296.731 997.964C299.114 995.715 301.445 993.4 303.775 991.12C318.963 976.38 312.888 960.047 324.07 944.024L325.3 943.229Z"></path>
<path fill="#BD8D62" d="M325.3 943.229L336.979 949.174C352.01 953.204 373.771 956.348 387.1 963.928L391.787 963.731C424.101 960.778 456.075 967.596 488.179 968.871C523.112 972.874 555.033 951.45 588.473 972.895C607.092 970.942 625.318 968.755 643.648 964.967C653.965 962.951 664.152 959.896 674.312 957.152C677.873 952.447 680.623 952.505 686.175 950.805C688.662 954.128 690.679 957.296 694.502 959.228C694.292 959.851 694.109 960.477 693.873 961.097C690.05 972.24 680.937 979.71 678.319 991.06C683.635 994.615 695.104 998.301 696.387 1003.94C693.664 1004.8 690.862 1005.87 688.06 1006.45C656.139 1013.04 624.008 1026.07 591.589 1028.79L590.568 1024.49L586.562 1024.17C583.445 1027.84 582.45 1029.19 582.084 1034.21C583.079 1050.71 583.21 1066.84 582.66 1083.36C574.411 1073.62 580.905 1053.44 566.739 1050.06C542.228 1059.43 531.754 1084.17 514.601 1101.61C507.95 1107.76 500.906 1113.58 496.088 1121.33L487.132 1123.94C486.058 1122.4 484.985 1120.88 483.859 1119.36C477.469 1110.64 473.306 1107.74 462.569 1106.09C449.712 1101.27 445.522 1069.72 435.1 1058.02C431.46 1053.88 430.543 1054.17 425.122 1054.12C417.816 1065.66 419.388 1083.99 410.301 1094.12L408.992 1075.74L409.096 1035.73L413.103 1021.86L407.159 1019.35C405.771 1021.24 404.749 1021.97 404.514 1024.36L400.481 1040.39C376.495 1033.78 349.627 1029.9 326.426 1021.32C317.942 1018.18 317.47 1015.24 313.857 1007.74C308.907 1006.34 302.675 1007.04 297.49 1007.02L294.845 1004.13L296.731 997.964C299.114 995.715 301.444 993.4 303.775 991.12C318.963 976.38 312.888 960.047 324.069 944.024L325.3 943.229Z"></path>
<path fill="#C88E4D" d="M325.3 943.229L336.979 949.174C352.01 953.204 373.771 956.348 387.1 963.928L391.787 963.731C399.957 965.711 408.206 968.046 416.455 969.551L424.599 975.296L424.468 981.668L429.522 983.763C432.429 987.965 435.597 991.447 435.519 996.801C441.908 1001.38 448.35 1005.84 454.896 1010.17C455.158 1020.78 449.895 1030.28 445.757 1039.79L442.824 1037.9L434.026 1046.08C427.217 1046.32 419.1 1044.54 412.448 1043.2L409.096 1035.73L413.103 1021.86L407.159 1019.35C405.771 1021.24 404.749 1021.97 404.514 1024.36L400.481 1040.39C376.495 1033.78 349.627 1029.9 326.426 1021.32C317.942 1018.18 317.47 1015.24 313.857 1007.74C308.907 1006.34 302.675 1007.04 297.49 1007.02L294.845 1004.13L296.731 997.964C299.114 995.715 301.444 993.4 303.775 991.12C318.963 976.38 312.888 960.047 324.069 944.024L325.3 943.229Z"></path>
<path fill="#68351C" d="M336.979 949.17C352.01 953.199 373.771 956.344 387.1 963.923L391.787 963.727C399.958 965.706 408.206 968.041 416.455 969.547L424.599 975.291L424.468 981.664L429.522 983.758C432.429 987.96 435.597 991.443 435.519 996.797L426.484 990.23C419.702 989.06 412.815 988.599 406.007 987.727C383.251 984.813 350.413 973.288 336.063 954.726L336.979 949.17Z"></path>
<path fill="#5F2C29" d="M387.1 963.921L391.787 963.725C399.957 965.704 408.206 968.039 416.455 969.545L424.599 975.289L424.468 981.661L429.522 983.756C432.429 987.958 435.597 991.44 435.519 996.794L426.484 990.228C418.812 983.196 406.164 980.599 397.051 975.441C390.766 971.898 389.038 970.759 387.1 963.921Z"></path>
<path fill="#A4602A" d="M316.319 1001.55C342.112 1010.12 377.49 1026.4 404.514 1024.36L400.482 1040.39C376.495 1033.78 349.628 1029.9 326.427 1021.32C317.942 1018.18 317.471 1015.24 313.857 1007.74L316.319 1001.55Z"></path>
<path fill="#A4602A" d="M413.103 1021.86C416.691 1023.28 419.859 1024.79 423.185 1026.75C427.872 1029.53 432.9 1030.78 438.111 1032.22L442.825 1037.89L434.026 1046.07C427.218 1046.31 419.1 1044.53 412.449 1043.19L409.097 1035.72L413.103 1021.86Z"></path>
<path fill="#B7702F" d="M297.49 1007.02L294.845 1004.13L296.731 997.965L316.318 1001.56L313.857 1007.75C308.907 1006.34 302.675 1007.04 297.49 1007.02Z"></path>
<path fill="#C88E4D" d="M674.312 957.153C677.873 952.448 680.623 952.506 686.174 950.807C688.662 954.129 690.678 957.297 694.501 959.229C694.292 959.852 694.108 960.478 693.873 961.099C690.049 972.241 680.937 979.711 678.318 991.061C683.634 994.616 695.104 998.303 696.387 1003.94C693.663 1004.81 690.861 1005.87 688.059 1006.45C656.138 1013.04 624.008 1026.08 591.589 1028.79L590.568 1024.49L586.561 1024.18C583.445 1027.84 582.45 1029.19 582.083 1034.21L580.224 1034.56C569.671 1030.65 558.175 1038.54 546.051 1036.14C545.475 1035.35 544.82 1034.63 544.349 1033.79C541.154 1028.05 541.913 1024.12 543.223 1018.18C562.679 994.53 606.332 994.695 634.194 988.299C646.764 985.411 666.744 980.983 673.657 968.649C676.459 963.63 675.726 962.337 674.312 957.153Z"></path>
<path fill="#452135" d="M488.179 968.872C523.112 972.875 555.033 951.451 588.473 972.896L585.409 973.792L585.881 980.183C577.894 983.992 568.545 986.482 560.977 990.676C543.747 990.171 528.244 987.181 510.909 989.755L508.997 989.459C497.004 989.87 485.089 990.166 473.201 991.75C467.152 997.552 459.872 1003.49 454.896 1010.17C448.35 1005.84 441.908 1001.38 435.519 996.803C435.597 991.449 432.428 987.967 429.522 983.764L424.468 981.67L424.599 975.297L416.455 969.553C408.206 968.048 399.957 965.712 391.787 963.733C424.101 960.78 456.075 967.597 488.179 968.872Z"></path>
<path fill="#8B6D63" d="M488.179 968.872C523.112 972.875 555.033 951.451 588.473 972.896L585.409 973.792C528.454 976.847 473.174 977.337 416.455 969.553C408.206 968.048 399.957 965.712 391.787 963.733C424.101 960.78 456.075 967.597 488.179 968.872Z"></path>
<path fill="#652949" d="M429.522 983.757C447.46 981.434 492.212 983.265 508.998 989.451C497.004 989.862 485.09 990.158 473.201 991.742C467.152 997.544 459.872 1003.48 454.896 1010.16C448.35 1005.83 441.908 1001.37 435.519 996.795C435.597 991.441 432.429 987.959 429.522 983.757Z"></path>
<path fill="#68351C" d="M643.648 964.961L645.638 970.182C641.16 975.078 582.058 993.664 574.49 993.978C572.028 994.08 571.845 993.996 569.436 993.897L566.739 993.797C564.617 993.706 562.522 993.541 560.401 993.331L560.977 990.669C568.545 986.474 577.894 983.984 585.881 980.175L585.409 973.784L588.473 972.889C607.092 970.936 625.318 968.749 643.648 964.961Z"></path>
<path fill="#B7702F" d="M442.824 1037.9L445.757 1039.79C451.073 1048.91 460.186 1069.28 471.001 1071.79C474.51 1072.6 474.301 1072 477.103 1070.38L485.849 1076.27L486.189 1078.36C479.905 1077.63 474.798 1075.8 469.482 1080.41C467.937 1081.74 467.361 1082.63 466.183 1084.15C447.302 1077.94 447.25 1057.86 434.026 1046.08L442.824 1037.9Z"></path>
<path fill="#5F2C29" d="M510.91 989.751C528.245 987.177 543.747 990.167 560.978 990.672L560.402 993.335C551.158 996.922 543.878 1004.88 536.625 1011.42C528.219 1004.01 519.499 996.948 510.91 989.751Z"></path>
<path fill="#A4602A" d="M546.051 1036.14C558.175 1038.54 569.671 1030.65 580.225 1034.56L580.513 1042.28C573.285 1049.22 561.999 1051.71 552.205 1051.19C548.486 1051 545.135 1050.14 541.704 1048.86L539.452 1044.17C541.338 1040.16 542.149 1038.57 546.051 1036.14Z"></path>
<path fill="#A4602A" d="M466.183 1084.15C467.361 1082.63 467.938 1081.74 469.483 1080.4C474.798 1075.8 479.905 1077.63 486.19 1078.36C493.338 1078.86 508.239 1077.86 513.135 1083.21C513.816 1083.96 514.314 1084.83 514.916 1085.64C511.878 1087.55 508.71 1089.2 505.175 1090.04C491.374 1093.21 478.176 1091.64 466.183 1084.15Z"></path>
<path fill="#B7702F" d="M504.205 1060.29L505.96 1055.97C511.014 1061.24 520.86 1072.76 520.624 1080.5C520.598 1081.29 520.493 1082.08 520.415 1082.89C518.424 1084.3 517.429 1085.64 514.915 1085.64C514.313 1084.82 513.816 1083.96 513.135 1083.2C508.238 1077.86 493.338 1078.86 486.189 1078.36L485.849 1076.26L490.536 1072.65C496.271 1071.92 500.618 1071.68 505.305 1068.12L504.205 1060.29Z"></path>
<path fill="#A4602A" d="M477.103 1070.37C478.49 1067.93 478.045 1068.43 479.485 1066.68C484.487 1060.6 496.297 1061.21 504.205 1060.29L505.305 1068.12C500.618 1071.68 496.271 1071.91 490.536 1072.65L485.849 1076.26L477.103 1070.37Z"></path>
<path fill="#DCAC6D" d="M525.469 1030.76C530.915 1031.97 532.486 1033.37 537.409 1030.43C537.776 1037.85 537.462 1043.64 535.734 1050.89C530.784 1055.58 530.575 1054.93 524.107 1054.87C515.806 1050.21 508.473 1045.5 501.848 1038.62L498.549 1038L501.691 1029.7L525.469 1030.76Z"></path>
<path fill="#BD8D62" d="M525.469 1030.76C517.927 1037.59 511.852 1037.52 501.848 1038.62L498.549 1038L501.691 1029.7L525.469 1030.76Z"></path>
<path fill="#C88E4D" d="M498.549 1038C494.411 1041.99 494.045 1042.2 488.362 1043.07C482.104 1040.54 481.659 1040.77 478.804 1034.74L481.659 1029.63C488.493 1026.54 494.595 1028.42 501.691 1029.7L498.549 1038Z"></path>
<path fill="#C88E4D" d="M299.507 1012.73C298.826 1027.49 303.225 1041.96 306.629 1056.2C309.772 1088.88 274.865 1177.29 252.947 1203.63C252.607 1204.03 252.267 1204.42 251.926 1204.81C234.381 1194.36 217.884 1183.66 201.779 1171.09C202.486 1168.39 203.036 1166.77 204.974 1164.67C216.601 1152.21 224.142 1138.13 232.312 1123.33C245.798 1105.98 275.965 1060.86 274.97 1039.62L278.165 1035.96C286.021 1028.59 293.013 1021.33 299.507 1012.73Z"></path>
<path fill="#CBCDD7" d="M485.849 1150.36L509.705 1156.22C522.955 1167.74 541.705 1186.7 545.842 1204.14C547.021 1209.08 546.418 1214.37 543.433 1218.51C538.248 1225.71 529.973 1227.99 521.594 1229.06C502.609 1231.44 459.349 1233.35 444.553 1221.73C440.73 1214.11 439.002 1209.37 441.699 1200.86C447.958 1181.15 467.754 1159.86 485.849 1150.36Z"></path>
<path fill="#A4602A" d="M306.629 1056.21C312.05 1083.8 299.062 1133.44 304.927 1153.26C309.353 1152.71 310.453 1151.95 314.355 1154.39C312.129 1180.6 304.325 1205.62 301.444 1231.49C284.528 1223.17 268.162 1214.37 251.926 1204.81C252.267 1204.42 252.607 1204.03 252.947 1203.64C274.865 1177.3 309.772 1088.88 306.629 1056.21Z"></path>
<path fill="#BCC2C8" d="M404.514 1024.36C404.749 1021.97 405.771 1021.25 407.159 1019.35L413.103 1021.86L409.096 1035.73L408.992 1075.74C407.944 1091.06 407.787 1149.92 400.822 1160.23C397.836 1164.66 397.129 1165.23 391.971 1166.04C385.843 1157.27 398.805 1057.73 400.481 1040.39L404.514 1024.36Z"></path>
<path fill="#CBCDD7" d="M582.084 1034.2C582.451 1029.18 583.446 1027.83 586.562 1024.17L590.568 1024.48L591.59 1028.78L592.847 1041.9C593.056 1060.24 600.833 1160.22 594.732 1168.21C589.521 1165.33 587.557 1163.21 586.038 1157.13C580.618 1135.82 584.179 1105.95 582.66 1083.35C583.21 1066.83 583.079 1050.71 582.084 1034.2Z"></path>
<path fill="#BB7633" d="M299.507 1012.73C304.247 1014.25 306.787 1014.05 309.065 1019.02C320.194 1043.11 321.923 1131 314.355 1154.39C310.453 1151.95 309.353 1152.71 304.928 1153.26C299.062 1133.44 312.05 1083.8 306.63 1056.2C303.225 1041.96 298.826 1027.49 299.507 1012.73Z"></path>
<path fill="#CBCDD7" d="M514.601 1101.61C521.409 1105.17 531.203 1109.38 534.11 1117C536.571 1123.39 535.76 1129.7 532.512 1135.64C529.396 1141.3 524.211 1147.29 519.393 1151.59C510.437 1150.09 503.236 1147.42 497.632 1140.01L496.087 1121.32C500.906 1113.57 507.95 1107.76 514.601 1101.61Z"></path>
<path fill="#BCC2C8" d="M462.569 1106.09C473.306 1107.74 477.469 1110.64 483.859 1119.36C484.985 1120.88 486.059 1122.4 487.132 1123.94C487.342 1128.16 487.342 1134 485.535 1137.82C482.628 1144.02 478.36 1145.41 472.52 1147.74C465.45 1147.3 460.265 1145.31 455.342 1140.02C451.178 1135.57 448.743 1128.37 449.817 1122.29C451.231 1114.23 456.782 1110.98 462.569 1106.09Z"></path>
<path fill="#B7702F" d="M688.06 1006.45L693.376 1015.14C661.088 1024.81 626.313 1038.1 592.847 1041.91L591.59 1028.79C624.009 1026.08 656.139 1013.04 688.06 1006.45Z"></path>
<path fill="#DCAC6D" d="M497.633 1140.02C503.236 1147.43 510.437 1150.1 519.393 1151.59L509.704 1156.23L485.849 1150.36L494.359 1147.66L497.633 1140.02Z"></path>
<path fill="#CBCDD7" d="M547.335 1134.83C551.446 1136.09 556.238 1137.87 559.668 1140.49C566.084 1145.38 566.582 1148.95 567.655 1156.33C565.534 1165.62 560.14 1169.42 553.2 1175.15C549.979 1176.2 547.125 1177.12 543.695 1176.44C537.855 1175.31 537.436 1174.16 534.163 1169.58C532.33 1155.52 539.636 1145.7 547.335 1134.83Z"></path>
<path fill="#CBCDD7" d="M425.385 1135.09C429.025 1135.61 433.659 1136.03 437.011 1137.58C442.091 1139.91 446.438 1144.72 448.481 1149.88C452.199 1159.31 449.712 1167.08 446.412 1175.96C440.075 1174.7 432.691 1172.56 427.218 1168.92C421.849 1165.33 417.895 1160.41 417.11 1153.89C416.219 1146.37 421.064 1140.56 425.385 1135.09Z"></path>
<path fill="#E5E5E9" d="M616.99 327.256C774.501 198.485 903.678 131.95 866.677 414.357C862.932 443.013 856.071 471.579 849.682 499.698L842.009 502.837C837.741 503.989 839.469 503.733 834.782 502.652C820.929 489.527 813.597 475.868 804.956 458.918C769.473 409.003 730.77 386.557 678.999 356.386L676.669 356.027C656.924 350.157 643.831 343.141 625.684 333.841C624.296 333.158 618.613 328.518 616.99 327.256Z"></path>
<path fill="#E1A862" d="M708.93 321.873C717.781 315.152 726.711 308.523 735.719 301.988C761.958 283.064 800.112 253.172 823.313 289.038C834.154 320.828 823.444 430.152 804.956 458.912C769.473 408.997 730.77 386.552 679 356.38L676.669 356.021C679.392 345.544 700.106 329.565 708.93 321.873Z"></path>
<path fill="#C87F58" d="M708.93 321.873C717.781 315.152 726.711 308.523 735.719 301.988C761.958 283.064 800.112 253.172 823.313 289.038C814.305 289.91 795.45 285.693 792.098 286.648C750.907 298.406 711.942 330.18 679 356.38L676.669 356.021C679.392 345.544 700.106 329.565 708.93 321.873Z"></path>
<path fill="#CBCDD7" d="M715.085 294.254C734.384 273.973 810.325 228.698 832.871 256.076C858.638 287.397 851.935 364.967 856.072 405.51C858.874 433.506 840.57 477.001 842.01 502.832C837.742 503.984 839.47 503.727 834.783 502.646C820.93 489.521 813.598 475.862 804.956 458.912C823.444 430.152 834.154 320.828 823.313 289.038C800.112 253.172 761.958 283.064 735.72 301.988C726.711 308.523 717.782 315.152 708.931 321.873C714.535 307.824 715.478 310.295 715.085 294.254Z"></path>
<path fill="#CBCDD7" d="M625.685 333.835C640.401 324.206 673.16 353.846 676.12 323.603C676.539 319.493 708.041 298.933 715.085 294.254C715.478 310.295 714.535 307.824 708.931 321.873C700.106 329.565 679.393 345.544 676.669 356.022C656.925 350.152 643.832 343.135 625.685 333.835Z"></path>
<path fill="#EAC78B" d="M694.502 959.229L699.163 958.312C708.747 967.136 726.24 985.08 729.251 997.569C727.523 1003.71 724.878 1007.1 720.793 1011.94L720.06 1018.14C731.529 1029.36 743.889 1040.67 753.84 1053.25C772.145 1076.37 812.131 1144.99 818.232 1171.83L814.488 1174.32L802.469 1183.61C792.753 1190.26 783.117 1197.44 772.799 1203.14C759.601 1210.58 746.377 1218.91 732.184 1224.25C721.291 1230.22 710.292 1235.5 698.954 1240.56C696.833 1227.18 694.319 1213.85 691.962 1200.53L685.861 1167.38C680.597 1145.52 682.404 1119.91 682.954 1097.61C682.902 1090.07 684.315 1081.79 685.049 1074.25C684.473 1057.52 698.954 1029.54 693.376 1015.14L688.06 1006.45C690.862 1005.87 693.664 1004.81 696.388 1003.94C695.104 998.302 683.635 994.616 678.319 991.06C680.937 979.711 690.05 972.241 693.873 961.098C694.109 960.478 694.292 959.852 694.502 959.229Z"></path>
<path fill="#C88E4D" d="M685.048 1074.25C693.926 1092.78 704.636 1109.86 714.194 1127.97C722.155 1143.08 728.309 1159.1 737.264 1173.66L740.826 1174.26L749.703 1167.01C756.668 1168.89 757.768 1172.01 761.88 1177.46C761.88 1178.06 761.775 1178.66 761.853 1179.26C763.241 1189.13 770.18 1194.53 772.799 1203.14C759.601 1210.58 746.377 1218.9 732.184 1224.24C721.29 1230.21 710.292 1235.5 698.954 1240.55C696.832 1227.17 694.318 1213.85 691.962 1200.52L685.86 1167.38C680.597 1145.51 682.404 1119.91 682.954 1097.6C682.901 1090.06 684.315 1081.79 685.048 1074.25Z"></path>
<path fill="#B7702F" d="M682.954 1097.6L688.479 1096.5C688.505 1097.21 688.505 1097.89 688.558 1098.6C690.207 1126.43 715.634 1148.34 720.269 1175.76C723.071 1192.41 708.407 1209.06 712.989 1224.92C718.096 1226.6 720.007 1226.21 725.114 1224.82C727.654 1224.11 729.591 1224.11 732.184 1224.24C721.29 1230.21 710.292 1235.5 698.954 1240.55C696.832 1227.18 694.318 1213.85 691.962 1200.52L685.86 1167.38C680.597 1145.52 682.404 1119.91 682.954 1097.6Z"></path>
<path fill="#A4602A" d="M685.861 1167.38L689.082 1161.3C694.398 1165.18 696.283 1170.7 697.487 1177.17C698.613 1183.22 699.923 1191.73 696.126 1196.65C694.921 1198.22 693.533 1199.32 691.962 1200.52L685.861 1167.38Z"></path>
<path fill="#B5B3BB" d="M828.576 735.1L838.16 734.786C843.738 726.939 840.988 713.982 844.471 704.206L845.23 702.143L847.063 705.049C846.88 716.65 847.692 729.322 845.23 740.653L842.795 771.877C840.621 789.406 835.123 810.634 843.424 827.039C820.642 869.477 782.174 899.622 742.004 924.961C742.396 923.675 743.156 921.206 743.392 920.031C745.382 910.137 752.635 906.134 754.521 896.614C747.058 876.559 713.225 874.289 698.848 859.164C698.482 858.755 698.115 858.326 697.723 857.907C721.919 847.034 747.32 828.832 757.218 803.528L757.454 800.436L769.473 795.564L759.391 792.94L758.475 789.118C762.612 782.604 764.707 777.341 766.409 769.898L766.933 767.565C770.023 755.925 773.244 744.318 776.57 732.744L777.486 730.864C794.246 733.291 811.686 737.637 828.576 735.1Z"></path>
<path fill="#C4BAB1" d="M769.474 795.568C780.446 801.247 791.602 805.075 799.562 814.919L799.536 818.16C787.464 820.022 767.693 811.984 758.397 804.611C757.978 804.282 757.612 803.891 757.219 803.533L757.454 800.441L769.474 795.568Z"></path>
<path fill="#DCAC6D" d="M871.914 566.234L873.171 567.538C888.674 574.204 898.231 578.307 906.297 593.714L903.6 600.71C901.374 612.563 897.551 625.782 897.551 637.802C895.273 659.037 885.688 705.125 890.769 724.203C887.521 742.693 892.785 773.749 883.777 788.644C883.646 786.864 883.75 786.759 883.043 784.787C880.948 778.81 875.816 771.804 869.95 769.497C865.263 770.275 861.728 771.165 857.643 773.679C854.71 775.48 852.222 776.849 849.001 778.085L842.795 771.885L845.23 740.661C847.692 729.33 846.88 716.658 847.063 705.057L845.23 702.151C857.355 657.854 847.404 607.177 871.914 566.234Z"></path>
<path fill="#ECE2CF" d="M873.172 567.533C888.674 574.199 898.232 578.302 906.297 593.709L903.6 600.705C901.374 612.558 897.551 625.777 897.551 637.797C896.503 642.35 894.723 646.494 892.968 650.793L888.307 652.186C881.813 648.329 875.659 644.496 870.893 638.493C856.884 620.854 870.029 588.526 873.172 567.533Z"></path>
<path fill="#BD8D62" d="M847.063 705.054L852.432 699.75C856.176 706.188 854.055 713.299 856.7 719.179C863.613 734.53 883.593 723.112 879.875 758.219C874.978 760.507 871.338 759.821 866.075 759.185C857.407 754.087 854.265 742.138 845.23 740.659C847.692 729.327 846.88 716.655 847.063 705.054Z"></path>
<path fill="#EAC78B" d="M903.601 600.711C906.979 608.696 906.429 616.679 906.272 625.151C907.66 644.002 916.406 661.287 917.348 679.536C918.239 697.245 905.695 763.416 911.404 772.86C909.047 778.889 907.45 780.02 902.37 784.207C899.227 790.161 898.861 793.59 892.052 795.771L884.301 791.43L883.777 788.645C892.785 773.75 887.522 742.694 890.769 724.204C885.689 705.126 895.273 659.038 897.551 637.802C897.551 625.782 901.375 612.563 903.601 600.711Z"></path>
<path fill="#DCAC6D" d="M900.012 742.789C902.264 729.088 905.328 714.651 905.59 700.762C906.009 677.306 899.75 647.475 906.271 625.152C907.659 644.003 916.405 661.288 917.348 679.537C918.238 697.246 905.695 763.417 911.403 772.861C909.046 778.89 907.449 780.021 902.369 784.208C900.248 770.468 900.248 756.657 900.012 742.789Z"></path>
<path fill="#C88E4D" d="M890.769 724.199C891.293 735.326 891.948 746.448 892.733 757.56L895.352 759.196C897.944 747.119 897.761 734.779 897.97 722.484L900.013 742.783C900.249 756.651 900.249 770.462 902.37 784.202C899.227 790.156 898.861 793.586 892.052 795.766L884.301 791.426L883.777 788.64C892.785 773.745 887.522 742.689 890.769 724.199Z"></path>
<path fill="#EAC78B" d="M189.602 1161.43C206.702 1123.73 244.175 1048.14 279.683 1024.92L282.066 1026.71L278.164 1035.96L274.97 1039.62C275.965 1060.87 245.798 1105.98 232.312 1123.34C224.142 1138.13 216.6 1152.21 204.973 1164.68C203.036 1166.77 202.486 1168.39 201.779 1171.09L189.602 1161.43Z"></path>
<path fill="#DCAC6D" d="M232.313 1123.34L223.122 1119.7C230.794 1093.96 256.116 1058.33 274.97 1039.63C275.966 1060.87 245.799 1105.98 232.313 1123.34Z"></path>
<path fill="#948883" d="M125.943 773.272C126.808 754.717 113.531 734.976 121.466 717.144C127.541 714.015 133.538 711.782 139.98 709.58C145.845 700.45 143.724 690.907 144.798 680.246C144.536 692.585 142.939 703.443 150.323 713.704L151.475 724.737C154.146 749.834 157.263 776.505 165.773 800.375C165.171 800.338 164.568 800.317 163.966 800.27C162.971 800.192 161.976 800.084 160.955 800.001C155.036 799.498 149.145 799.139 143.698 796.508C133.223 791.465 129.479 783.566 125.943 773.272Z"></path>
<path fill="#BFA68C" d="M102.559 726.276C98.867 711.3 101.145 693.782 102.481 678.51L103.869 687.315C114.16 680.029 120.314 687.828 131.076 681.416C140.765 675.643 138.906 656.512 147.207 652.02L149.852 662.463L150.323 713.706C142.939 703.445 144.536 692.588 144.798 680.248C143.724 690.91 145.845 700.453 139.98 709.582C133.538 711.784 127.541 714.017 121.466 717.146C113.531 734.978 126.808 754.719 125.943 773.274L118.009 765.119C105.806 754.447 104.785 741.448 102.559 726.276Z"></path>
<path fill="#C88E4D" d="M102.559 726.275C102.455 717.805 101.198 708.964 105.754 701.51C109.289 703.345 109.027 703.623 110.232 707.518C115.26 723.581 119.79 748.417 118.009 765.118C105.807 754.446 104.785 741.447 102.559 726.275Z"></path>
<path fill="#EEE0CA" d="M903.601 600.711L906.298 593.715C932.877 633.477 935.783 683.628 926.671 729.686C923.712 744.636 919.469 759.798 911.404 772.859C905.695 763.416 918.239 697.245 917.348 679.535C916.406 661.287 907.66 644.002 906.272 625.151C906.429 616.679 906.979 608.696 903.601 600.711Z"></path>
<path fill="#A37C62" d="M842.796 771.888L849.002 778.087C852.223 776.852 854.711 775.482 857.644 773.681C861.729 771.168 865.264 770.278 869.951 769.5C875.817 771.807 880.949 778.813 883.044 784.79C883.751 786.761 883.647 786.866 883.778 788.647L884.301 791.432C884.171 802.308 883.542 809.466 875.031 817.407C866.599 825.277 854.449 826.856 843.425 827.05C835.123 810.644 840.622 789.416 842.796 771.888Z"></path>
<path fill="#EAC78B" d="M156.529 549.881C158.1 565.818 156.319 593.371 150.637 608.185C140.372 610.436 142.938 637.969 134.061 644.784C132.228 642.896 130.761 642.317 130.604 639.6C129.871 627.399 137.334 620.888 140.162 609.905C146.08 586.855 138.565 570.478 156.529 549.881Z"></path>
<path fill="#EAC78B" d="M312.076 947.514C312.155 948.043 312.259 948.566 312.312 949.1C313.307 966.254 302.282 979.706 291.86 991.92L289.975 984.736C293.405 970.708 303.539 958.84 312.076 947.514Z"></path>
</g>
<defs>
<clipPath id="clip0_30102_50555">
<rect fill="white" height="1277" width="1024"></rect>
</clipPath>
</defs>
</svg>
